<svg xmlns="http://www.w3.org/2000/svg" width="37.429" height="10.824" viewBox="0 0 37.429 10.824">
  <g id="Group_288" data-name="Group 288" transform="translate(-103.516 20.337)">
    <path id="Path_861" data-name="Path 861" d="M298.165,246.189a25.116,25.116,0,0,1-4.213,2.641,5.021,5.021,0,0,1-3.084.7,1.992,1.992,0,0,1-1.68-2.3,1.82,1.82,0,0,1,1.4-1.158,3.222,3.222,0,0,1,1.861.269,5.351,5.351,0,0,1,2.526,2.241,3.962,3.962,0,0,0,1.015,1.435,2.884,2.884,0,0,0,1.289.373,8.959,8.959,0,0,0,3.2.013,3.042,3.042,0,0,0,2.311-2.015" transform="translate(-184.599 -261.541)" fill="none" stroke="#3f3d56" stroke-miterlimit="10" stroke-width="2"/>
    <path id="Path_862" data-name="Path 862" d="M367.29,223.933q.124,4.789-.134,9.579l2.266-.428a2.82,2.82,0,0,0,2.163-1.16,1.9,1.9,0,0,0-.569-2.14,5.548,5.548,0,0,0-2.122-1.029l-1.237-.394" transform="translate(-242.666 -244.244)" fill="none" stroke="#3f3d56" stroke-miterlimit="10" stroke-width="2"/>
    <path id="Path_863" data-name="Path 863" d="M406.933,239.592a7.976,7.976,0,0,0-2.493-.077,2.762,2.762,0,0,0-2.012,1.339c-.7,1.375.372,3.067,1.732,3.8a5.6,5.6,0,0,0,3.694.556" transform="translate(-267.097 -256.383)" fill="none" stroke="#3f3d56" stroke-miterlimit="10" stroke-width="2"/>
  </g>
</svg>
