<svg xmlns="http://www.w3.org/2000/svg" width="18" height="18" viewBox="0 0 18 18">
  <g id="Group_285" data-name="Group 285" transform="translate(-331 -352)">
    <g id="Group_284" data-name="Group 284" transform="translate(-2549 1216)">
      <g id="Group_279" data-name="Group 279" transform="translate(2880 -864)">
        <g id="Group_278" data-name="Group 278" transform="translate(0 0)">
          <rect id="Rectangle_1610" data-name="Rectangle 1610" width="18" height="18" transform="translate(0 0)" fill="#575a89"/>
          <rect id="Rectangle_1611" data-name="Rectangle 1611" width="14" height="16" transform="translate(2 1)" fill="#fff"/>
          <rect id="Rectangle_1612" data-name="Rectangle 1612" width="14" height="16" transform="translate(16 17) rotate(180)" fill="#fff"/>
          <rect id="Rectangle_1613" data-name="Rectangle 1613" width="11" transform="translate(3 3)" fill="#6c63ff" opacity="0.2"/>
          <rect id="Rectangle_1614" data-name="Rectangle 1614" width="11" transform="translate(3 5)" fill="#6c63ff" opacity="0.2"/>
          <rect id="Rectangle_1615" data-name="Rectangle 1615" width="11" transform="translate(3 7)" fill="#6c63ff" opacity="0.2"/>
          <rect id="Rectangle_1616" data-name="Rectangle 1616" width="12" transform="translate(3 3)" fill="#6c63ff" opacity="0.2"/>
          <rect id="Rectangle_1617" data-name="Rectangle 1617" width="12" transform="translate(3 5)" fill="#6c63ff" opacity="0.2"/>
          <rect id="Rectangle_1618" data-name="Rectangle 1618" width="12" transform="translate(3 7)" fill="#6c63ff" opacity="0.2"/>
          <rect id="Rectangle_1619" data-name="Rectangle 1619" width="11" transform="translate(3 8)" fill="#6c63ff" opacity="0.2"/>
          <rect id="Rectangle_1620" data-name="Rectangle 1620" width="11" transform="translate(3 10)" fill="#6c63ff" opacity="0.2"/>
          <rect id="Rectangle_1621" data-name="Rectangle 1621" width="11" transform="translate(3 11)" fill="#6c63ff" opacity="0.2"/>
          <rect id="Rectangle_1622" data-name="Rectangle 1622" width="11" transform="translate(3 13)" fill="#6c63ff" opacity="0.2"/>
          <rect id="Rectangle_1623" data-name="Rectangle 1623" width="8" height="1" transform="translate(3 14)" fill="#6c63ff" opacity="0.2"/>
          <rect id="Rectangle_1624" data-name="Rectangle 1624" width="11" height="1" transform="translate(3 12)" fill="#6c63ff" opacity="0.2"/>
          <rect id="Rectangle_1625" data-name="Rectangle 1625" width="11" height="1" transform="translate(3 10)" fill="#6c63ff" opacity="0.2"/>
          <rect id="Rectangle_1626" data-name="Rectangle 1626" width="4" height="1" transform="translate(3 8)" fill="#6c63ff" opacity="0.2"/>
          <rect id="Rectangle_1627" data-name="Rectangle 1627" width="9" height="1" transform="translate(3 6)" fill="#6c63ff" opacity="0.2"/>
          <rect id="Rectangle_1628" data-name="Rectangle 1628" width="7" height="1" transform="translate(3 3)" fill="#6c63ff" opacity="0.2"/>
        </g>
      </g>
    </g>
  </g>
</svg>
