<svg xmlns="http://www.w3.org/2000/svg" width="308.877" height="248.721" viewBox="0 0 308.877 248.721">
  <g id="Group_281" data-name="Group 281" transform="translate(2318 -702)">
    <g id="Group_279" data-name="Group 279" transform="translate(-2318 702)">
      <g id="Group_278" data-name="Group 278" transform="translate(0)">
        <g id="Group_276" data-name="Group 276">
          <path id="Path_1261" data-name="Path 1261" d="M496.724,584.448a10.175,10.175,0,0,1,4.08-12.6c.69-.419.059-1.506-.634-1.085a11.309,11.309,0,0,0-4.53,14.316c.317.741,1.4.1,1.085-.634Z" transform="translate(-384.328 -395.783)" fill="#3f3d56"/>
          <path id="Path_1262" data-name="Path 1262" d="M495.956,573.173c-1.694-3-1.3-6.594-.686-9.84.636-3.388,1.47-6.829.749-10.275a9.432,9.432,0,0,0-2.241-4.494c-.549-.6-1.435.294-.888.888,2.131,2.314,2.378,5.672,2.032,8.653-.408,3.517-1.563,6.944-1.419,10.517a11.391,11.391,0,0,0,1.37,5.185.629.629,0,0,0,1.085-.634Z" transform="translate(-383.2 -382.818)" fill="#3f3d56"/>
          <path id="Path_1263" data-name="Path 1263" d="M489.906,604.343H468.551a1.886,1.886,0,0,1-1.884-1.884v-6.272a6.087,6.087,0,0,1,6.08-6.08h3.132a.629.629,0,0,0,.628-.628v-2.931a1.048,1.048,0,0,1,1.047-1.047h3.35a1.048,1.048,0,0,1,1.047,1.047v2.931a.629.629,0,0,0,.628.628h3.132a6.087,6.087,0,0,1,6.08,6.08v6.273A1.886,1.886,0,0,1,489.906,604.343Z" transform="translate(-368.058 -404.402)" fill="#ccc"/>
          <path id="Path_1264" data-name="Path 1264" d="M491.614,532.8c.45,2.386-.107,4.494-1.243,4.708s-2.422-1.547-2.872-3.933.933-6.354.933-6.354S491.164,530.409,491.614,532.8Z" transform="translate(-380.115 -370.524)" fill="#6c63ff"/>
          <path id="Path_1265" data-name="Path 1265" d="M511.406,558.52c-1.424,1.967-3.337,3.012-4.274,2.334s-.542-2.822.882-4.789,5.256-3.69,5.256-3.69S512.83,556.554,511.406,558.52Z" transform="translate(-391.284 -385.147)" fill="#6c63ff"/>
          <path id="Path_1266" data-name="Path 1266" d="M402.724,224.448a10.175,10.175,0,0,1,4.08-12.6c.69-.419.059-1.506-.634-1.085a11.309,11.309,0,0,0-4.53,14.316c.317.741,1.4.1,1.085-.634Z" transform="translate(-329.688 -186.523)" fill="#3f3d56"/>
          <path id="Path_1267" data-name="Path 1267" d="M401.956,213.173c-1.694-3-1.3-6.594-.686-9.84.636-3.388,1.47-6.829.749-10.275a9.432,9.432,0,0,0-2.241-4.494c-.549-.6-1.435.294-.888.888,2.131,2.314,2.378,5.671,2.032,8.653-.408,3.517-1.563,6.944-1.419,10.517a11.39,11.39,0,0,0,1.37,5.185.629.629,0,0,0,1.085-.634Z" transform="translate(-328.56 -173.558)" fill="#3f3d56"/>
          <path id="Path_1268" data-name="Path 1268" d="M395.906,244.343H374.551a1.886,1.886,0,0,1-1.884-1.884v-6.272a6.087,6.087,0,0,1,6.08-6.08h3.132a.629.629,0,0,0,.628-.628v-2.931a1.048,1.048,0,0,1,1.047-1.047h3.35a1.048,1.048,0,0,1,1.047,1.047v2.931a.629.629,0,0,0,.628.628h3.132a6.087,6.087,0,0,1,6.08,6.08v6.273a1.886,1.886,0,0,1-1.884,1.884Z" transform="translate(-313.418 -195.143)" fill="#ccc"/>
          <path id="Path_1269" data-name="Path 1269" d="M397.614,172.8c.45,2.386-.107,4.494-1.243,4.708s-2.422-1.547-2.872-3.933.933-6.354.933-6.354S397.164,170.409,397.614,172.8Z" transform="translate(-325.475 -161.264)" fill="#6c63ff"/>
          <path id="Path_1270" data-name="Path 1270" d="M417.406,198.52c-1.424,1.967-3.337,3.012-4.274,2.334s-.542-2.822.882-4.789,5.256-3.69,5.256-3.69S418.83,196.554,417.406,198.52Z" transform="translate(-336.644 -175.888)" fill="#6c63ff"/>
          <rect id="Rectangle_1653" data-name="Rectangle 1653" width="17" height="7" transform="translate(13 113)" fill="#6c63ff"/>
          <rect id="Rectangle_1654" data-name="Rectangle 1654" width="17" height="7" transform="translate(13 134)" fill="#6c63ff"/>
          <path id="Path_1271" data-name="Path 1271" d="M366.414,401.3H238.285a7.126,7.126,0,0,1-7.118-7.118V160.118A7.126,7.126,0,0,1,238.285,153H366.414a7.126,7.126,0,0,1,7.118,7.118V394.184A7.126,7.126,0,0,1,366.414,401.3ZM238.285,153.837A6.288,6.288,0,0,0,232,160.118V394.184a6.288,6.288,0,0,0,6.281,6.281H366.414a6.288,6.288,0,0,0,6.281-6.281V160.118a6.288,6.288,0,0,0-6.281-6.281Z" transform="translate(-231.167 -153)" fill="#3f3d56"/>
          <rect id="Rectangle_1655" data-name="Rectangle 1655" width="141.528" height="0.837" transform="translate(0.419 48.343)" fill="#3f3d56"/>
          <rect id="Rectangle_1656" data-name="Rectangle 1656" width="141.528" height="0.837" transform="translate(0.419 98.602)" fill="#3f3d56"/>
          <rect id="Rectangle_1657" data-name="Rectangle 1657" width="141.528" height="0.837" transform="translate(0.419 148.863)" fill="#3f3d56"/>
          <rect id="Rectangle_1658" data-name="Rectangle 1658" width="141.528" height="0.837" transform="translate(0.419 199.122)" fill="#3f3d56"/>
          <path id="Path_1272" data-name="Path 1272" d="M278.5,448.8H264.261a2.1,2.1,0,0,1-2.094-2.094V406.094A2.1,2.1,0,0,1,264.261,404H278.5a2.1,2.1,0,0,1,2.094,2.094V446.71A2.1,2.1,0,0,1,278.5,448.8Zm-14.237-43.966A1.258,1.258,0,0,0,263,406.094V446.71a1.258,1.258,0,0,0,1.256,1.256H278.5a1.258,1.258,0,0,0,1.256-1.256V406.094a1.258,1.258,0,0,0-1.256-1.256Z" transform="translate(-249.187 -298.901)" fill="#3f3d56"/>
          <rect id="Rectangle_1659" data-name="Rectangle 1659" width="18" height="7" transform="translate(39 113)" fill="#6c63ff"/>
          <rect id="Rectangle_1660" data-name="Rectangle 1660" width="18" height="7" transform="translate(39 134)" fill="#6c63ff"/>
          <path id="Path_1273" data-name="Path 1273" d="M341.5,448.8H327.261a2.1,2.1,0,0,1-2.094-2.094V406.094A2.1,2.1,0,0,1,327.261,404H341.5a2.1,2.1,0,0,1,2.094,2.094V446.71A2.1,2.1,0,0,1,341.5,448.8Zm-14.237-43.966A1.258,1.258,0,0,0,326,406.094V446.71a1.258,1.258,0,0,0,1.256,1.256H341.5a1.258,1.258,0,0,0,1.256-1.256V406.094a1.258,1.258,0,0,0-1.256-1.256Z" transform="translate(-285.807 -298.901)" fill="#3f3d56"/>
          <rect id="Rectangle_1661" data-name="Rectangle 1661" width="17" height="7" transform="translate(82 63)" fill="#6c63ff"/>
          <rect id="Rectangle_1662" data-name="Rectangle 1662" width="17" height="6" transform="translate(82 84)" fill="#6c63ff"/>
          <path id="Path_1274" data-name="Path 1274" d="M441.5,327.8H427.261a2.1,2.1,0,0,1-2.094-2.094V285.094A2.1,2.1,0,0,1,427.261,283H441.5a2.1,2.1,0,0,1,2.094,2.094V325.71A2.1,2.1,0,0,1,441.5,327.8Zm-14.237-43.966A1.258,1.258,0,0,0,426,285.094V325.71a1.258,1.258,0,0,0,1.256,1.256H441.5a1.258,1.258,0,0,0,1.256-1.256V285.094a1.258,1.258,0,0,0-1.256-1.256Z" transform="translate(-343.935 -228.566)" fill="#3f3d56"/>
          <rect id="Rectangle_1663" data-name="Rectangle 1663" width="17" height="7" transform="translate(108 63)" fill="#6c63ff"/>
          <rect id="Rectangle_1664" data-name="Rectangle 1664" width="17" height="6" transform="translate(108 84)" fill="#6c63ff"/>
          <path id="Path_1275" data-name="Path 1275" d="M504.5,327.8H490.261a2.1,2.1,0,0,1-2.094-2.094V285.094A2.1,2.1,0,0,1,490.261,283H504.5a2.1,2.1,0,0,1,2.094,2.094V325.71A2.1,2.1,0,0,1,504.5,327.8Zm-14.237-43.966A1.258,1.258,0,0,0,489,285.094V325.71a1.258,1.258,0,0,0,1.256,1.256H504.5a1.258,1.258,0,0,0,1.256-1.256V285.094a1.258,1.258,0,0,0-1.256-1.256Z" transform="translate(-380.555 -228.566)" fill="#3f3d56"/>
          <rect id="Rectangle_1665" data-name="Rectangle 1665" width="17.168" height="6.281" transform="matrix(0.936, -0.352, 0.352, 0.936, 61.932, 116.181)" fill="#6c63ff"/>
          <rect id="Rectangle_1666" data-name="Rectangle 1666" width="17.168" height="6.281" transform="matrix(0.936, -0.352, 0.352, 0.936, 69.149, 135.387)" fill="#6c63ff"/>
          <path id="Path_1276" data-name="Path 1276" d="M388.573,444.336a2.1,2.1,0,0,1-1.959-1.358l-14.287-38.02a2.1,2.1,0,0,1,1.223-2.7l13.327-5.008a2.093,2.093,0,0,1,2.7,1.223l14.287,38.02a2.1,2.1,0,0,1-1.223,2.7h0L389.311,444.2A2.092,2.092,0,0,1,388.573,444.336Zm-.958-46.38a1.258,1.258,0,0,0-.443.081l-13.327,5.008a1.258,1.258,0,0,0-.734,1.618l14.287,38.02a1.256,1.256,0,0,0,1.618.734l13.327-5.008a1.258,1.258,0,0,0,.734-1.618l-14.287-38.02a1.259,1.259,0,0,0-1.175-.815Z" transform="translate(-313.143 -294.901)" fill="#3f3d56"/>
          <rect id="Rectangle_1667" data-name="Rectangle 1667" width="17.168" height="6.281" transform="matrix(0.936, -0.352, 0.352, 0.936, 4.149, 66.353)" fill="#6c63ff"/>
          <rect id="Rectangle_1668" data-name="Rectangle 1668" width="17.168" height="6.281" transform="matrix(0.936, -0.352, 0.352, 0.936, 11.366, 85.559)" fill="#6c63ff"/>
          <path id="Path_1277" data-name="Path 1277" d="M250.573,325.336a2.1,2.1,0,0,1-1.959-1.358l-14.287-38.02a2.1,2.1,0,0,1,1.223-2.7l13.327-5.008a2.093,2.093,0,0,1,2.7,1.223l14.287,38.02a2.1,2.1,0,0,1-1.223,2.7h0L251.311,325.2a2.091,2.091,0,0,1-.738.135Zm-.958-46.38a1.258,1.258,0,0,0-.443.081l-13.327,5.008a1.258,1.258,0,0,0-.734,1.618l14.287,38.02a1.256,1.256,0,0,0,1.618.734l13.327-5.008a1.258,1.258,0,0,0,.734-1.618l-14.287-38.02a1.259,1.259,0,0,0-1.175-.815Z" transform="translate(-232.926 -225.729)" fill="#3f3d56"/>
          <circle id="Ellipse_316" data-name="Ellipse 316" cx="13" cy="13" r="13" transform="translate(249 79)" fill="#2f2e41"/>
          <path id="Path_1278" data-name="Path 1278" d="M716.4,467.433a4.5,4.5,0,0,0,6.04-3.331l35.691-22.518-6.5-7.314-33.055,24.45a4.523,4.523,0,0,0-2.179,8.714Z" transform="translate(-511.526 -316.496)" fill="#ffb8b8"/>
          <path id="Path_1279" data-name="Path 1279" d="M793.954,436.876a1.886,1.886,0,0,1-1.588-.864l-4.133-6.423a1.885,1.885,0,0,1,.481-2.547l13.83-10a6.192,6.192,0,1,1,6.963,10.236l-14.542,9.3A1.87,1.87,0,0,1,793.954,436.876Z" transform="translate(-554.803 -305.802)" fill="#2f2e41"/>
          <path id="Path_1280" data-name="Path 1280" d="M575.378,553.362h-5.133l-2.442-19.8h7.577Z" transform="translate(-330.05 -310.147)" fill="#ffb8b8"/>
          <path id="Path_1281" data-name="Path 1281" d="M556.224,577.346h9.9v6.234H549.991A6.233,6.233,0,0,1,556.224,577.346Z" transform="translate(-319.697 -335.598)" fill="#6c63ff"/>
          <path id="Path_1282" data-name="Path 1282" d="M625.572,545.22l-4.943,1.388-7.7-18.4,7.295-2.048Z" transform="translate(-356.28 -305.843)" fill="#ffb8b8"/>
          <path id="Path_1283" data-name="Path 1283" d="M6.233,0h9.9V6.233H0A6.234,6.234,0,0,1,6.233,0Z" transform="translate(254.42 242.027) rotate(-15.68)" fill="#6c63ff"/>
          <path id="Path_1284" data-name="Path 1284" d="M879.661,598.14l-19.93-23.52,12.093-14.674a1.884,1.884,0,0,1,2.915.009l18.3,22.458Z" transform="translate(-596.537 -389.15)" fill="#6c63ff"/>
          <path id="Path_1285" data-name="Path 1285" d="M861.651,577.027h0a6.677,6.677,0,0,1,1.083-1.446l11.543-11.7a2.568,2.568,0,0,1,1.707-.766c1.319-.062,3.482.071,4.085,1.518l-15.584,12.751Z" transform="translate(-597.653 -391.382)" fill="#f2f2f2"/>
          <path id="Path_1286" data-name="Path 1286" d="M880.1,605.534a4.786,4.786,0,0,1-2.495-.79l-.055-.057L859.3,576.771l3.029-.293,16.232-12.661a1.884,1.884,0,0,1,2.731.447l17.744,26.856a1.89,1.89,0,0,1-.518,2.6L881.348,605.3a3.325,3.325,0,0,1-1.245.236Z" transform="translate(-596.287 -391.567)" fill="#6c63ff"/>
          <path id="Path_1287" data-name="Path 1287" d="M889.2,601.111a1.046,1.046,0,0,1-.87-.462l-2.1-3.115a1.048,1.048,0,0,1,.284-1.453l10.757-7.242a1.049,1.049,0,0,1,1.453.284l2.1,3.115a1.048,1.048,0,0,1-.284,1.453l-10.757,7.242A1.043,1.043,0,0,1,889.2,601.111Z" transform="translate(-611.838 -406.24)" fill="#3f3d56"/>
          <path id="Path_1288" data-name="Path 1288" d="M785.507,579.605a2.294,2.294,0,0,1-2.277-2.1c-.914-10.378-5.5-62.683-6-73.246-.559-11.737,9.209-30.3,9.308-30.489l.068-.128,4.828.6v.561l4.6.541,8.893.861,2.546,31.119,1.126,21.1,10.577,43.1a1.874,1.874,0,0,1-1.334,2.267l-9.2,2.51a1.892,1.892,0,0,1-2.308-1.3l-8.667-30.444a.628.628,0,0,0-1.232.191l.917,29.685a2.237,2.237,0,0,1-.677,1.638c-2.11,1.982-7.685,3.039-10.82,3.494a2.322,2.322,0,0,1-.336.024Z" transform="translate(-548.568 -339.385)" fill="#2f2e41"/>
          <path id="Path_1289" data-name="Path 1289" d="M824.424,413.671c-1.461-1.523-11.085.57-13.222,2.813L796.574,440.4l24.193,4.5,5.345-30.382Z" transform="translate(-559.825 -304.22)" fill="#6c63ff"/>
          <g id="Group_280" data-name="Group 280" transform="translate(241.532 109.075)">
            <path id="Path_1290" data-name="Path 1290" d="M824.723,474.621a4.709,4.709,0,0,1-1.531-.255c-1.405-.482-3.128-.987-5.12-1.5-8.724-2.243-11.8-9.425-9.154-21.347l.067-.3a88.238,88.238,0,0,1,13.8-31.514l1.026-1.474a11.054,11.054,0,0,1,11.324-4.5c3.925.81,6.033,1.983,6.264,3.487.454,2.952-8.313,38.635-12.1,53.84a4.7,4.7,0,0,1-4.571,3.567Z" transform="translate(-807.998 -413.494)" fill="#2f2e41"/>
          </g>
          <path id="Path_1291" data-name="Path 1291" d="M769.184,472.013a2.21,2.21,0,0,1-.672-.1l-2.828-.9a2.206,2.206,0,0,1-1.357-2.965l15-35.216a32.951,32.951,0,0,1,14.288-15.839h0a.771.771,0,0,1,.612-.057.694.694,0,0,1,.421.373c1.765,3.882-7.84,22.252-15.557,37.013-3.951,7.558-7.364,14.086-7.753,15.947a2.2,2.2,0,0,1-2.159,1.753Z" transform="translate(-540.979 -306.392)" fill="#2f2e41"/>
          <path id="Path_1292" data-name="Path 1292" d="M874,499.559a4.5,4.5,0,0,0,.386-6.887l-.119-42.2-9.647,1.619,3.155,40.994A4.523,4.523,0,0,0,874,499.559Z" transform="translate(-599.38 -325.914)" fill="#ffb8b8"/>
          <path id="Path_1293" data-name="Path 1293" d="M864.081,440.233a1.884,1.884,0,0,1-1.879-1.759l-1.122-17.028a6.193,6.193,0,1,1,12.371-.463l.152,17.26a1.888,1.888,0,0,1-1.862,1.9l-7.637.09Z" transform="translate(-597.313 -305.205)" fill="#2f2e41"/>
          <circle id="Ellipse_317" data-name="Ellipse 317" cx="10.284" cy="10.284" r="10.284" transform="translate(249.581 84.772)" fill="#ffb8b8"/>
          <path id="Path_1294" data-name="Path 1294" d="M850.4,370.02c.767-2.441,1.471-5.319-.047-7.379a6.31,6.31,0,0,0-4.9-2.141c-1.842-.082-3.689.23-5.527.084a5.867,5.867,0,0,1-4.714-2.461c-1.211-2.061-.185-4.9,1.761-6.289a9.611,9.611,0,0,1,6.886-1.259,14.855,14.855,0,0,1,8.078,3.614,10.763,10.763,0,0,1,3.573,7.957,8.473,8.473,0,0,1-4.421,7.323" transform="translate(-581.981 -267.767)" fill="#2f2e41"/>
          <path id="Path_1295" data-name="Path 1295" d="M862.029,330.182c-2.462-.758-3.6-4.013-2.5-6.342A6.328,6.328,0,0,1,866,320.615a9.816,9.816,0,0,1,6.361,4.019,22.847,22.847,0,0,1,3.271,6.96,65.043,65.043,0,0,0,2.5,7.308,22.682,22.682,0,0,0,18.612,12.956,10.411,10.411,0,0,0,5.1-.687,5.109,5.109,0,0,0,3.074-3.9,14.37,14.37,0,0,1-25.19,11.362c-3.907-4.619-4.512-11.14-4.418-17.189a16.9,16.9,0,0,0-.371-4.943,5.171,5.171,0,0,0-3.123-3.617,7.661,7.661,0,0,0-3.962.176,7.356,7.356,0,0,1-3.96.132c-1.265-.437-2.284-1.876-1.774-3.113" transform="translate(-596.177 -250.401)" fill="#2f2e41"/>
          <path id="Path_1296" data-name="Path 1296" d="M809.211,745.837H698.669a.419.419,0,0,1,0-.837H809.211a.419.419,0,1,1,0,.837Z" transform="translate(-502.672 -497.116)" fill="#ccc"/>
        </g>
      </g>
    </g>
  </g>
</svg>
