<svg xmlns="http://www.w3.org/2000/svg" xmlns:xlink="http://www.w3.org/1999/xlink" width="18" height="18" viewBox="0 0 18 18">
  <defs>
    <clipPath id="clip-path">
      <rect width="18" height="18" fill="none"/>
    </clipPath>
  </defs>
  <g id="Group_271" data-name="Group 271" transform="translate(-308 -379)">
    <g id="Symbol_113_4" data-name="Symbol 113 – 4" transform="translate(308 379)" clip-path="url(#clip-path)">
      <rect id="Rectangle_305" data-name="Rectangle 305" width="8.95" height="8.95" fill="none"/>
      <path id="Path_114" data-name="Path 114" d="M7.594,10.66a3.177,3.177,0,0,0,3.223-3.14A3.271,3.271,0,0,0,7.594,4.268a3.177,3.177,0,0,0-3.223,3.14A3.351,3.351,0,0,0,7.594,10.66ZM2.184,2.137a7.787,7.787,0,0,1,10.822,0,7.311,7.311,0,0,1,0,10.542L7.594,17.95,2.184,12.679A7.515,7.515,0,0,1,2.184,2.137Z" transform="translate(0.975 0.05)" fill="#6c63ff" fill-rule="evenodd"/>
    </g>
  </g>
</svg>
