<svg xmlns="http://www.w3.org/2000/svg" width="135.643" height="135.643" viewBox="0 0 135.643 135.643">
  <g id="Group_429" data-name="Group 429" transform="translate(-18.348 -178.609)">
    <g id="Group_412" data-name="Group 412" transform="translate(18.348 178.609)">
      <path id="Path_1182" data-name="Path 1182" d="M67.821,0A67.821,67.821,0,1,1,0,67.821,67.821,67.821,0,0,1,67.821,0Z" fill="#ececec"/>
      <ellipse id="Ellipse_309" data-name="Ellipse 309" cx="64.031" cy="63.506" rx="64.031" ry="63.506" transform="translate(4.647 4.199)" fill="#fff"/>
      <g id="Group_411" data-name="Group 411" transform="translate(20.79 11.396)">
        <g id="Symbols" transform="translate(37.205 0)">
          <g id="Head_Front_Short-Beard" data-name="Head/Front/Short-Beard" transform="translate(0)">
            <g id="Head" transform="translate(0.053 0.944)">
              <path id="Path_1180" data-name="Path 1180" d="M3.941,16.451A12.922,12.922,0,0,1,.5,7.167C1.22-3.041,15.43-.8,18.194,4.357S20.63,22.577,17.057,23.5c-1.425.367-4.46-.532-7.548-2.394L11.448,34.82H0Z" transform="translate(0 0)" fill="#ffb8b8" fill-rule="evenodd"/>
            </g>
            <path id="Hair" d="M64.023,38.259q.657,9.156,3.477,9.156c2.82,0,5.213-1.79,6.451-1.79.9,0,.7,1.129.1,1.966-.493.691-2.9,1.356-2.9,2.427s1.9.242,1.9.877c0,1.05.334,3.025-1.489,3.025-1.845,0-7.134-.672-8.04-3.41q-.877-2.651-1.135-10.985a2.864,2.864,0,0,0-3.2,2.842,2.853,2.853,0,0,0,.862,2.047c-.662.935-1.4,1.911-2.255,2.919C54.6,45.415,52.23,39.8,55.354,34.414a7.068,7.068,0,0,1,5.126-4.706,8.3,8.3,0,0,1,5.449-.4,17.731,17.731,0,0,1,6.893,1.837c0,3.041-.589,3.943-5.622,3.864A9.283,9.283,0,0,0,64.023,38.259Z" transform="translate(-53.889 -29.02)" fill="#191847" fill-rule="evenodd"/>
          </g>
        </g>
        <g id="Symbols-2" data-name="Symbols" transform="translate(0 26.711)">
          <g id="Body_Jacket" data-name="Body/Jacket" transform="translate(0 0)">
            <path id="Skin" d="M110.424,89.122,123.936,102.3a40.951,40.951,0,0,1,9.664,5.555c.565.681,1.179,1.986-1.478,1.4s-5.478-1.079-5.977-.215.972,2.188.049,3.319q-.923,1.13-6.208-7.194l-14.051-8.284ZM50.45,90.982l9.968.039q-9.232,29.8-9.968,31.626c-1.1,2.735,1.232,6.9,2.231,9.14-3.253,1.456-2.906-3.935-7.01-2.026-3.746,1.743-6.595,4.9-10.923,2.23-.532-.328-1.115-1.564.294-2.53,3.51-2.406,8.567-6.618,9.25-8Q45.69,118.62,50.45,90.982Z" transform="translate(-34.163 -46.612)" fill="#ffb8b8" fill-rule="evenodd"/>
            <path id="Coat-Back" d="M0,1.064,4.047,0q12.93,25.579,41.267,44.93L33.41,62.278C13.985,43.256,1.265,22.99,0,1.064Z" transform="translate(44.706 1.483) rotate(5)" fill="#191847" fill-rule="evenodd"/>
            <path id="Shirt" d="M90,54.377h36.728Q113.965,23.343,113.964,1.651L102.885,0C94.178,14,91.719,31.245,90,54.377Z" transform="translate(-63.366 0)" fill="#dde3e9" fill-rule="evenodd"/>
            <path id="Coat-Front" d="M84.345.008l0-.008h.723q1.3.045,3.954.161L91.7,7.812q.425,13.992,4.961,56.394H72.589q.095,2.928.312,5.912H55Q59.017,24.8,84.337,0Z" transform="translate(-45.061 0)" fill="#2f3676" fill-rule="evenodd"/>
            <path id="Shade" d="M93.386,82.233q1.028,18.256,5.147,25.169H91.8A125.848,125.848,0,0,1,93.386,82.233Z" transform="translate(-64.267 -43.009)" fill="rgba(0,0,0,0.1)" fill-rule="evenodd"/>
            <path id="Light" d="M103.111,97.948l11.872-5.519v5.519Z" transform="translate(-70.223 -48.342)" fill="rgba(255,255,255,0.2)" fill-rule="evenodd"/>
          </g>
        </g>
      </g>
    </g>
  </g>
</svg>
