<svg xmlns="http://www.w3.org/2000/svg" width="290.134" height="183.239" viewBox="0 0 290.134 183.239">
  <g id="Group_274" data-name="Group 274" transform="translate(320 165)">
    <g id="Group_277" data-name="Group 277" transform="translate(554 -16)">
      <g id="Group_276" data-name="Group 276" transform="translate(-874 -149)">
        <path id="Path_1305" data-name="Path 1305" d="M688.233,344.967a54.062,54.062,0,0,1,4.474-17.061q1.01-2.256,2.223-4.412a.329.329,0,0,0-.569-.332,54.806,54.806,0,0,0-6.1,16.824q-.458,2.473-.688,4.981c-.039.422.62.419.658,0Z" transform="translate(-503.715 -287.639)" fill="#e6e6e6"/>
        <circle id="Ellipse_320" data-name="Ellipse 320" cx="4.17" cy="4.17" r="4.17" transform="translate(188.639 28.571)" fill="#e6e6e6"/>
        <path id="Path_1306" data-name="Path 1306" d="M689.487,354.917a35.071,35.071,0,0,1,2.9-11.068q.655-1.463,1.442-2.862a.214.214,0,0,0-.369-.216,35.556,35.556,0,0,0-3.956,10.915q-.3,1.6-.446,3.232C689.035,355.191,689.462,355.189,689.487,354.917Z" transform="translate(-504.543 -297.478)" fill="#e6e6e6"/>
        <circle id="Ellipse_321" data-name="Ellipse 321" cx="2.705" cy="2.705" r="2.705" transform="translate(187.618 38.783)" fill="#e6e6e6"/>
        <path id="Path_1307" data-name="Path 1307" d="M681.808,354.859a35.071,35.071,0,0,1-4.519-10.512q-.384-1.557-.624-3.144a.214.214,0,0,0-.423.057,35.554,35.554,0,0,0,3.594,11.04q.753,1.448,1.636,2.823C681.619,355.353,681.955,355.089,681.808,354.859Z" transform="translate(-497.403 -297.675)" fill="#e6e6e6"/>
        <circle id="Ellipse_322" data-name="Ellipse 322" cx="2.705" cy="2.705" r="2.705" transform="translate(176.13 38.593)" fill="#e6e6e6"/>
        <path id="Path_1308" data-name="Path 1308" d="M670.059,368.469v-5.315a2,2,0,0,1,1.993-1.993h12.4a2,2,0,0,1,1.993,1.993v5.315a2,2,0,0,1-1.993,1.993h-12.4a2,2,0,0,1-1.993-1.993Z" transform="translate(-493.959 -308.892)" fill="#f2f2f2"/>
        <path id="Path_1309" data-name="Path 1309" d="M692.368,268.851h-5.315a2,2,0,0,1-1.993-1.993v-21.7a2,2,0,0,1,1.993-1.993h5.315a2,2,0,0,1,1.993,1.993v21.7a2,2,0,0,1-1.993,1.993Z" transform="translate(-502.315 -243.16)" fill="#f2f2f2"/>
        <rect id="Rectangle_1610" data-name="Rectangle 1610" width="8.859" height="1.772" transform="translate(182.966 4.208)" fill="#ccc"/>
        <rect id="Rectangle_1611" data-name="Rectangle 1611" width="8.859" height="1.772" transform="translate(182.966 17.94)" fill="#ccc"/>
        <path id="Path_1310" data-name="Path 1310" d="M722.368,268.851h-5.315a2,2,0,0,1-1.993-1.993v-21.7a2,2,0,0,1,1.993-1.993h5.315a2,2,0,0,1,1.993,1.993v21.7a2,2,0,0,1-1.993,1.993Z" transform="translate(-519.026 -243.16)" fill="#f2f2f2"/>
        <rect id="Rectangle_1612" data-name="Rectangle 1612" width="8.859" height="1.772" transform="translate(196.254 4.208)" fill="#ccc"/>
        <rect id="Rectangle_1613" data-name="Rectangle 1613" width="8.859" height="1.772" transform="translate(196.254 17.94)" fill="#ccc"/>
        <path id="Path_1311" data-name="Path 1311" d="M752.368,268.851h-5.315a2,2,0,0,1-1.993-1.993v-21.7a2,2,0,0,1,1.993-1.993h5.315a2,2,0,0,1,1.993,1.993v21.7a2,2,0,0,1-1.993,1.993Z" transform="translate(-535.738 -243.16)" fill="#f2f2f2"/>
        <rect id="Rectangle_1614" data-name="Rectangle 1614" width="8.859" height="1.772" transform="translate(209.543 4.208)" fill="#ccc"/>
        <rect id="Rectangle_1615" data-name="Rectangle 1615" width="8.859" height="1.772" transform="translate(209.543 17.94)" fill="#ccc"/>
        <path id="Path_1312" data-name="Path 1312" d="M768.368,349.851h-5.315a2,2,0,0,1-1.993-1.993v-21.7a2,2,0,0,1,1.993-1.993h5.315a2,2,0,0,1,1.993,1.993v21.7a2,2,0,0,1-1.993,1.993Z" transform="translate(-544.65 -288.281)" fill="#f2f2f2"/>
        <rect id="Rectangle_1616" data-name="Rectangle 1616" width="8.859" height="1.772" transform="translate(216.63 40.087)" fill="#ccc"/>
        <rect id="Rectangle_1617" data-name="Rectangle 1617" width="8.859" height="1.772" transform="translate(216.63 53.819)" fill="#ccc"/>
        <path id="Path_1313" data-name="Path 1313" d="M798.368,349.851h-5.315a2,2,0,0,1-1.993-1.993v-21.7a2,2,0,0,1,1.993-1.993h5.315a2,2,0,0,1,1.993,1.993v21.7A2,2,0,0,1,798.368,349.851Z" transform="translate(-561.362 -288.281)" fill="#f2f2f2"/>
        <rect id="Rectangle_1618" data-name="Rectangle 1618" width="8.859" height="1.772" transform="translate(229.919 40.087)" fill="#ccc"/>
        <rect id="Rectangle_1619" data-name="Rectangle 1619" width="8.859" height="1.772" transform="translate(229.919 53.819)" fill="#ccc"/>
        <path id="Path_1314" data-name="Path 1314" d="M828.368,349.851h-5.315a2,2,0,0,1-1.993-1.993v-21.7a2,2,0,0,1,1.993-1.993h5.315a2,2,0,0,1,1.993,1.993v21.7a2,2,0,0,1-1.993,1.993Z" transform="translate(-578.073 -288.281)" fill="#f2f2f2"/>
        <rect id="Rectangle_1620" data-name="Rectangle 1620" width="8.859" height="1.772" transform="translate(243.207 40.087)" fill="#ccc"/>
        <rect id="Rectangle_1621" data-name="Rectangle 1621" width="8.859" height="1.772" transform="translate(243.207 53.819)" fill="#ccc"/>
        <path id="Path_1315" data-name="Path 1315" d="M689.368,430.851h-5.315a2,2,0,0,1-1.993-1.993v-21.7a2,2,0,0,1,1.993-1.993h5.315a2,2,0,0,1,1.993,1.993v21.7a2,2,0,0,1-1.993,1.993Z" transform="translate(-500.644 -333.402)" fill="#f2f2f2"/>
        <rect id="Rectangle_1622" data-name="Rectangle 1622" width="8.859" height="1.772" transform="translate(181.637 75.967)" fill="#ccc"/>
        <rect id="Rectangle_1623" data-name="Rectangle 1623" width="8.859" height="1.772" transform="translate(181.637 89.698)" fill="#ccc"/>
        <path id="Path_1316" data-name="Path 1316" d="M719.368,430.851h-5.315a2,2,0,0,1-1.993-1.993v-21.7a2,2,0,0,1,1.993-1.993h5.315a2,2,0,0,1,1.993,1.993v21.7a2,2,0,0,1-1.993,1.993Z" transform="translate(-517.355 -333.402)" fill="#f2f2f2"/>
        <rect id="Rectangle_1624" data-name="Rectangle 1624" width="8.859" height="1.772" transform="translate(194.925 75.967)" fill="#ccc"/>
        <rect id="Rectangle_1625" data-name="Rectangle 1625" width="8.859" height="1.772" transform="translate(194.925 89.698)" fill="#ccc"/>
        <path id="Path_1317" data-name="Path 1317" d="M749.368,430.851h-5.315a2,2,0,0,1-1.993-1.993v-21.7a2,2,0,0,1,1.993-1.993h5.315a2,2,0,0,1,1.993,1.993v21.7a2,2,0,0,1-1.993,1.993Z" transform="translate(-534.067 -333.402)" fill="#f2f2f2"/>
        <rect id="Rectangle_1626" data-name="Rectangle 1626" width="8.859" height="1.772" transform="translate(208.214 75.967)" fill="#ccc"/>
        <rect id="Rectangle_1627" data-name="Rectangle 1627" width="8.859" height="1.772" transform="translate(208.214 89.698)" fill="#ccc"/>
        <path id="Path_1318" data-name="Path 1318" d="M782.368,268.851h-5.315a2,2,0,0,1-1.993-1.993v-21.7a2,2,0,0,1,1.993-1.993h5.315a2,2,0,0,1,1.993,1.993v21.7a2,2,0,0,1-1.993,1.993Z" transform="translate(-552.449 -243.16)" fill="#f2f2f2"/>
        <rect id="Rectangle_1628" data-name="Rectangle 1628" width="8.859" height="1.772" transform="translate(222.831 4.208)" fill="#ccc"/>
        <rect id="Rectangle_1629" data-name="Rectangle 1629" width="8.859" height="1.772" transform="translate(222.831 17.94)" fill="#ccc"/>
        <path id="Path_1319" data-name="Path 1319" d="M812.368,268.851h-5.315a2,2,0,0,1-1.993-1.993v-21.7a2,2,0,0,1,1.993-1.993h5.315a2,2,0,0,1,1.993,1.993v21.7a2,2,0,0,1-1.993,1.993Z" transform="translate(-569.161 -243.16)" fill="#f2f2f2"/>
        <rect id="Rectangle_1630" data-name="Rectangle 1630" width="8.859" height="1.772" transform="translate(236.12 4.208)" fill="#ccc"/>
        <rect id="Rectangle_1631" data-name="Rectangle 1631" width="8.859" height="1.772" transform="translate(236.12 17.94)" fill="#ccc"/>
        <path id="Path_1320" data-name="Path 1320" d="M842.368,268.851h-5.315a2,2,0,0,1-1.993-1.993v-21.7a2,2,0,0,1,1.993-1.993h5.315a2,2,0,0,1,1.993,1.993v21.7a2,2,0,0,1-1.993,1.993Z" transform="translate(-585.872 -243.16)" fill="#f2f2f2"/>
        <rect id="Rectangle_1632" data-name="Rectangle 1632" width="8.859" height="1.772" transform="translate(249.409 4.208)" fill="#ccc"/>
        <rect id="Rectangle_1633" data-name="Rectangle 1633" width="8.859" height="1.772" transform="translate(249.409 17.94)" fill="#ccc"/>
        <path id="Path_1321" data-name="Path 1321" d="M872.368,268.851h-5.315a2,2,0,0,1-1.993-1.993v-21.7a2,2,0,0,1,1.993-1.993h5.315a2,2,0,0,1,1.993,1.993v21.7a2,2,0,0,1-1.993,1.993Z" transform="translate(-602.583 -243.16)" fill="#f2f2f2"/>
        <rect id="Rectangle_1634" data-name="Rectangle 1634" width="8.859" height="1.772" transform="translate(262.697 4.208)" fill="#ccc"/>
        <rect id="Rectangle_1635" data-name="Rectangle 1635" width="8.859" height="1.772" transform="translate(262.697 17.94)" fill="#ccc"/>
        <path id="Path_1322" data-name="Path 1322" d="M767.184,301.546H640.943a.443.443,0,1,1,0-.886H767.184a.443.443,0,1,1,0,.886Z" transform="translate(-477.493 -275.19)" fill="#ccc"/>
        <path id="Path_1323" data-name="Path 1323" d="M767.184,382.546H640.943a.443.443,0,1,1,0-.886H767.184a.443.443,0,1,1,0,.886Z" transform="translate(-477.493 -320.311)" fill="#ccc"/>
        <path id="Path_1324" data-name="Path 1324" d="M767.184,463.546H640.943a.443.443,0,1,1,0-.886H767.184a.443.443,0,1,1,0,.886Z" transform="translate(-477.493 -365.432)" fill="#ccc"/>
        <path id="Path_1325" data-name="Path 1325" d="M853.233,425.967a54.057,54.057,0,0,1,4.474-17.061q1.01-2.256,2.223-4.412a.329.329,0,0,0-.569-.332,54.8,54.8,0,0,0-6.1,16.824q-.458,2.473-.688,4.981c-.039.422.62.419.659,0Z" transform="translate(-595.628 -332.76)" fill="#e6e6e6"/>
        <circle id="Ellipse_323" data-name="Ellipse 323" cx="4.17" cy="4.17" r="4.17" transform="translate(261.726 64.45)" fill="#e6e6e6"/>
        <path id="Path_1326" data-name="Path 1326" d="M854.487,435.917a35.07,35.07,0,0,1,2.9-11.068q.655-1.463,1.442-2.862a.214.214,0,0,0-.369-.216,35.554,35.554,0,0,0-3.956,10.915q-.3,1.6-.446,3.232C854.035,436.191,854.462,436.189,854.487,435.917Z" transform="translate(-596.456 -342.599)" fill="#e6e6e6"/>
        <circle id="Ellipse_324" data-name="Ellipse 324" cx="2.705" cy="2.705" r="2.705" transform="translate(260.705 74.662)" fill="#e6e6e6"/>
        <path id="Path_1327" data-name="Path 1327" d="M846.808,435.859a35.073,35.073,0,0,1-4.519-10.513q-.384-1.557-.623-3.144a.214.214,0,0,0-.423.057,35.554,35.554,0,0,0,3.594,11.039q.753,1.448,1.636,2.823C846.619,436.353,846.955,436.089,846.808,435.859Z" transform="translate(-589.315 -342.796)" fill="#e6e6e6"/>
        <circle id="Ellipse_325" data-name="Ellipse 325" cx="2.705" cy="2.705" r="2.705" transform="translate(249.217 74.472)" fill="#e6e6e6"/>
        <path id="Path_1328" data-name="Path 1328" d="M835.059,449.469v-5.315a2,2,0,0,1,1.993-1.993h12.4a2,2,0,0,1,1.993,1.993v5.315a2,2,0,0,1-1.993,1.993h-12.4A2,2,0,0,1,835.059,449.469Z" transform="translate(-585.872 -354.012)" fill="#f2f2f2"/>
        <path id="Path_1329" data-name="Path 1329" d="M441.708,605.546H272.943a.443.443,0,0,1,0-.886H441.708a.443.443,0,1,1,0,.886Z" transform="translate(-272.5 -444.533)" fill="#3f3d56"/>
        <circle id="Ellipse_326" data-name="Ellipse 326" cx="11.96" cy="11.96" r="11.96" transform="translate(76.214 79.067)" fill="#2f2e41"/>
        <path id="Path_1330" data-name="Path 1330" d="M173.007,367.227l-.317-5.421,20.759-3.8.468,8Z" transform="translate(-96.196 -199.424)" fill="#ffb8b8"/>
        <path id="Path_1331" data-name="Path 1331" d="M6.594,0H17.067V6.594H0A6.594,6.594,0,0,1,6.594,0Z" transform="translate(77.429 151.835) rotate(86.655)" fill="#2f2e41"/>
        <path id="Path_1332" data-name="Path 1332" d="M167.039,361.988l-3.448,4.2-17.823-11.3,5.089-6.192Z" transform="translate(-81.2 -194.236)" fill="#ffb8b8"/>
        <path id="Path_1333" data-name="Path 1333" d="M6.594,0H17.067V6.594H0A6.594,6.594,0,0,1,6.594,0Z" transform="matrix(0.635, -0.773, 0.773, 0.635, 74.543, 179.052)" fill="#2f2e41"/>
        <path id="Path_1334" data-name="Path 1334" d="M440.875,576.064l-2.356,11.109a1.772,1.772,0,0,0,1.7,2.139l23.165.374a1.772,1.772,0,0,0,1.773-2.08l-2.026-11.482a1.772,1.772,0,0,0-1.745-1.464H442.608A1.772,1.772,0,0,0,440.875,576.064Z" transform="translate(-364.959 -427.821)" fill="#2f2e41"/>
        <path id="Path_1335" data-name="Path 1335" d="M417.019,575.532s-22.591-14.174-27.02-6.644c-2.215,3.765-1.107,7.419.554,10.133a15.34,15.34,0,0,0,6.38,5.71l18.315,8.963,6.644-7.087-4.43-3.987Z" transform="translate(-337.262 -423.377)" fill="#2f2e41"/>
        <path id="Path_1336" data-name="Path 1336" d="M470.76,578.869s29.235-8.416,23.477,7.53-27.463,9.745-27.463,9.745l-2.215-6.644,7.53-5.315Z" transform="translate(-379.486 -428.93)" fill="#2f2e41"/>
        <circle id="Ellipse_327" data-name="Ellipse 327" cx="10.879" cy="10.879" r="10.879" transform="translate(77.445 82.878)" fill="#ffb8b8"/>
        <path id="Path_1337" data-name="Path 1337" d="M448.222,530.6a58.463,58.463,0,0,1-13.4-1.766l-.13-.035-6.071-27.926a10.287,10.287,0,0,1,6.615-11.935,35.64,35.64,0,0,1,22.723-.454h0a10.4,10.4,0,0,1,6.926,12.3L458.1,528.778l-.1.045A23.386,23.386,0,0,1,448.222,530.6Z" transform="translate(-359.328 -378.905)" fill="#ccc"/>
        <path id="Path_1338" data-name="Path 1338" d="M454.428,574.518a4.454,4.454,0,0,1,6.412-2.353l11.954-10.376,1.082,8.154-11.517,8.6a4.478,4.478,0,0,1-7.93-4.028Z" transform="translate(-373.689 -420.652)" fill="#ffb8b8"/>
        <path id="Path_1339" data-name="Path 1339" d="M476.18,537.548a2.007,2.007,0,0,1-.574-.084,1.972,1.972,0,0,1-1.312-1.248l-1.443-4.088a1.981,1.981,0,0,1,.577-2.172l16.287-9.778-6.42-28.642.163-.039c.066-.016,6.644-1.514,9.34,5.674,1.888,5.034,8.873,15.98,8.38,23.377a6.593,6.593,0,0,1-5.458,6.081l-18.333,10.5a1.974,1.974,0,0,1-1.207.414Z" transform="translate(-384.04 -381.418)" fill="#ccc"/>
        <path id="Path_1340" data-name="Path 1340" d="M460.18,572.325a4.454,4.454,0,0,0-6.412-2.353L441.814,559.6l-1.081,8.154,11.517,8.6a4.478,4.478,0,0,0,7.93-4.028Z" transform="translate(-366.213 -419.43)" fill="#ffb8b8"/>
        <path id="Path_1341" data-name="Path 1341" d="M428.472,537.548a1.974,1.974,0,0,1-1.207-.414L407.6,527.516a6.593,6.593,0,0,1-5.458-6.081c-.493-7.4,7.821-19.229,9.709-24.263,2.7-7.188,9.273-5.691,9.34-5.674l.163.039-7.749,29.528,17.616,8.892a1.981,1.981,0,0,1,.577,2.172l-1.443,4.088a1.973,1.973,0,0,1-1.312,1.248A2.008,2.008,0,0,1,428.472,537.548Z" transform="translate(-344.707 -381.418)" fill="#ccc"/>
        <path id="Path_1342" data-name="Path 1342" d="M461.082,570.566H421.66a3.1,3.1,0,0,1-3.1-3.1v-21.7a3.1,3.1,0,0,1,3.1-3.1h39.423a3.1,3.1,0,0,1,3.1,3.1v21.7A3.1,3.1,0,0,1,461.082,570.566Z" transform="translate(-353.862 -409.996)" fill="#6c63ff"/>
        <circle id="Ellipse_328" data-name="Ellipse 328" cx="2.658" cy="2.658" r="2.658" transform="translate(84.852 143.96)" fill="#fff"/>
        <path id="Path_1343" data-name="Path 1343" d="M446.849,438.765a3.7,3.7,0,0,1,1.982-4.377,6.943,6.943,0,0,1,5.142-.119c1.411.439,2.733,1.119,4.109,1.656a9.2,9.2,0,0,0,4.32.769,4.351,4.351,0,0,0,3.53-2.339,4.289,4.289,0,0,0-.76-4.3,8.328,8.328,0,0,0-3.815-2.452,12.387,12.387,0,0,0-9.981.484c-3.005,1.658-5.047,5.187-4.426,8.562" transform="translate(-369.514 -345.45)" fill="#2f2e41"/>
        <path id="Path_1344" data-name="Path 1344" d="M304.332,567.363a54.061,54.061,0,0,1,4.474-17.062q1.01-2.256,2.223-4.412a.329.329,0,0,0-.569-.332,54.806,54.806,0,0,0-6.1,16.824q-.458,2.473-.688,4.981c-.039.422.62.419.658,0Z" transform="translate(-289.864 -411.524)" fill="#e6e6e6"/>
        <circle id="Ellipse_329" data-name="Ellipse 329" cx="4.17" cy="4.17" r="4.17" transform="translate(18.589 127.081)" fill="#6c63ff"/>
        <path id="Path_1345" data-name="Path 1345" d="M305.586,577.313a35.069,35.069,0,0,1,2.9-11.068q.655-1.463,1.442-2.862a.214.214,0,0,0-.369-.216,35.556,35.556,0,0,0-3.956,10.915q-.3,1.6-.446,3.232C305.134,577.587,305.561,577.585,305.586,577.313Z" transform="translate(-290.692 -421.363)" fill="#e6e6e6"/>
        <circle id="Ellipse_330" data-name="Ellipse 330" cx="2.705" cy="2.705" r="2.705" transform="translate(17.568 137.294)" fill="#6c63ff"/>
        <path id="Path_1346" data-name="Path 1346" d="M297.907,577.254a35.071,35.071,0,0,1-4.519-10.512q-.384-1.557-.624-3.144a.214.214,0,0,0-.423.057,35.556,35.556,0,0,0,3.594,11.039q.753,1.448,1.636,2.823C297.718,577.748,298.054,577.484,297.907,577.254Z" transform="translate(-283.552 -421.56)" fill="#e6e6e6"/>
        <circle id="Ellipse_331" data-name="Ellipse 331" cx="2.705" cy="2.705" r="2.705" transform="translate(6.08 137.103)" fill="#6c63ff"/>
        <path id="Path_1347" data-name="Path 1347" d="M286.159,590.865v-5.315a2,2,0,0,1,1.993-1.993h12.4a2,2,0,0,1,1.993,1.993v5.315a2,2,0,0,1-1.993,1.993h-12.4A2,2,0,0,1,286.159,590.865Z" transform="translate(-280.109 -432.777)" fill="#f2f2f2"/>
        <path id="Path_1348" data-name="Path 1348" d="M573.641,607.053c0,2.913-2.362,4.238-5.275,4.238s-5.275-1.324-5.275-4.238,1.172-6.312,5.275-5.14C572.469,600.154,573.641,604.14,573.641,607.053Z" transform="translate(-434.373 -442.761)" fill="#ff6584"/>
        <path id="Path_1349" data-name="Path 1349" d="M571.37,596.488a.843.843,0,0,1-.838-.735,35.384,35.384,0,0,0-1.543-5.456h0a.754.754,0,0,1,.1-.694.791.791,0,0,1,1.18-.085.755.755,0,0,1,.207.565c-.079,1.484,1,3.882,1.654,5.18a.845.845,0,0,1-.669,1.221.78.78,0,0,1-.089,0Z" transform="translate(-437.634 -435.973)" fill="#3f3d56"/>
        <path id="Path_1350" data-name="Path 1350" d="M577.766,593.051a2.267,2.267,0,0,0-1.9-3.977,1.851,1.851,0,0,0-.826.44c-1.406,1.328-1.624,4.726-1.624,4.726A6.223,6.223,0,0,0,577.766,593.051Z" transform="translate(-440.126 -435.809)" fill="#3f3d56"/>
      </g>
    </g>
  </g>
</svg>
