<svg xmlns="http://www.w3.org/2000/svg" width="878" height="470" viewBox="0 0 878 470">
  <g id="Group_279" data-name="Group 279" transform="translate(-2880 864)">
    <g id="Group_278" data-name="Group 278" transform="translate(2880 -864)">
      <rect id="Rectangle_1610" data-name="Rectangle 1610" width="878" height="470" fill="#575a89"/>
      <rect id="Rectangle_1611" data-name="Rectangle 1611" width="376" height="412" transform="translate(39 31)" fill="#fff"/>
      <rect id="Rectangle_1612" data-name="Rectangle 1612" width="376" height="412" transform="translate(839 443) rotate(180)" fill="#fff"/>
      <rect id="Rectangle_1613" data-name="Rectangle 1613" width="298" height="10" transform="translate(69 83)" fill="#6c63ff" opacity="0.2"/>
      <rect id="Rectangle_1614" data-name="Rectangle 1614" width="298" height="10" transform="translate(69 123)" fill="#6c63ff" opacity="0.2"/>
      <rect id="Rectangle_1615" data-name="Rectangle 1615" width="298" height="10" transform="translate(69 163)" fill="#6c63ff" opacity="0.2"/>
      <rect id="Rectangle_1616" data-name="Rectangle 1616" width="298" height="10" transform="translate(494 83)" fill="#6c63ff" opacity="0.2"/>
      <rect id="Rectangle_1617" data-name="Rectangle 1617" width="298" height="10" transform="translate(494 123)" fill="#6c63ff" opacity="0.2"/>
      <rect id="Rectangle_1618" data-name="Rectangle 1618" width="298" height="10" transform="translate(494 163)" fill="#6c63ff" opacity="0.2"/>
      <rect id="Rectangle_1619" data-name="Rectangle 1619" width="298" height="10" transform="translate(69 203)" fill="#6c63ff" opacity="0.2"/>
      <rect id="Rectangle_1620" data-name="Rectangle 1620" width="298" height="10" transform="translate(69 243)" fill="#6c63ff" opacity="0.2"/>
      <rect id="Rectangle_1621" data-name="Rectangle 1621" width="298" height="10" transform="translate(69 283)" fill="#6c63ff" opacity="0.2"/>
      <rect id="Rectangle_1622" data-name="Rectangle 1622" width="298" height="10" transform="translate(69 323)" fill="#6c63ff" opacity="0.2"/>
      <rect id="Rectangle_1623" data-name="Rectangle 1623" width="298" height="10" transform="translate(69 363)" fill="#6c63ff" opacity="0.2"/>
    </g>
  </g>
</svg>
