<svg xmlns="http://www.w3.org/2000/svg" xmlns:xlink="http://www.w3.org/1999/xlink" width="193.803" height="154.533" viewBox="0 0 193.803 154.533">
  <defs>
    <linearGradient id="linear-gradient" x1="-2.392" y1="1" x2="-2.392" gradientUnits="objectBoundingBox">
      <stop offset="0" stop-color="gray" stop-opacity="0.251"/>
      <stop offset="0.54" stop-color="gray" stop-opacity="0.122"/>
      <stop offset="1" stop-color="gray" stop-opacity="0.102"/>
    </linearGradient>
  </defs>
  <g id="Group_275" data-name="Group 275" transform="translate(-83 -85)">
    <g id="Group_274" data-name="Group 274">
      <g id="Group_238" data-name="Group 238" transform="translate(82.952 85.023)">
        <ellipse id="Ellipse_236" data-name="Ellipse 236" cx="79.947" cy="5.546" rx="79.947" ry="5.546" transform="translate(13.393 143.419)" fill="#6ffb8b" opacity="0.2"/>
        <path id="Path_892" data-name="Path 892" d="M84.3,51.357c-4.982,5.832-6.242,13.225-6.311,20.313-.048,5,.635,10.42,4.807,14.106,5.492,4.85,16.036,5.806,18.757,12,2.413,5.507-3.2,11.047-8.6,14.934s-11.587,8.646-10.58,14.433c.638,3.7,4.141,6.6,7.634,9.032,6.641,4.64,14.106,8.7,22.522,10.674,15.268,3.579,31.759-.126,46.066-5.735,8.807-3.452,19.032-7.69,27.778-4.139a60.7,60.7,0,0,1,6.4,3.527c6.19,3.391,13.75,4.64,21.107,5.7,10.784,1.559,22.117,2.86,32.507.048s19.37-11.036,17.779-19.808c-1.5-8.263-11.047-13.65-18.655-19.294-2.684-1.992-5.416-4.631-4.748-7.528.531-2.3,3.029-3.9,5.256-5.383,11.723-7.859,20.339-18.707,24.3-30.6,1.871-5.613,2.547-12.079-1.628-16.812-3.367-3.818-9.137-5.652-14.626-7.161-10.184-2.8-20.623-5.167-31.334-5.806s-21.777.579-31.286,4.62c-4.56,1.94-8.694,4.494-13.3,6.361-13.074,5.3-28.48,4.588-43.061,3.751-5.21-.3-10.656-.83-15.179-3.105-3.9-1.964-6.125-3.371-10.951-3.59C99.5,41.466,89.717,45.005,84.3,51.357Z" transform="translate(-77.94 -33.72)" fill="#6c63ff" opacity="0.1"/>
        <path id="Path_893" data-name="Path 893" d="M228.721,304.488l-.2.421-1.323,2.719-13.882,28.5-23.555,57.716-3.367.026,23.568-57.742,16.061-32.982,1.175.581,1.323.655Z" transform="translate(-151.756 -246.902)" fill="#535461"/>
        <path id="Path_894" data-name="Path 894" d="M453.987,393.875l-2.771-.026-23.557-57.716-13.516-27.756-1.687-3.467-.206-.421.206-.1,1.687-.835.811-.4,15.819,32.982Z" transform="translate(-335.695 -246.902)" fill="#535461"/>
        <rect id="Rectangle_1564" data-name="Rectangle 1564" width="3.012" height="98.478" transform="translate(75.438 48.496)" fill="#535461"/>
        <path id="Path_895" data-name="Path 895" d="M473.613,207.69a3.837,3.837,0,0,0-3.833,3.833v1.37a3.834,3.834,0,1,0,7.668,0v-1.37A3.838,3.838,0,0,0,473.613,207.69Zm2.875,5.2a2.877,2.877,0,0,1-5.754,0v-1.37a2.877,2.877,0,0,1,5.754,0Z" transform="translate(-397.013 -175.418)" fill="#535461"/>
        <path id="Path_896" data-name="Path 896" d="M350.246,302.115h-3.115l-13.516-27.756v27.756h-3.011v-28.5l-13.882,28.5H313.37l16.061-32.982,1.175.581V261.38h3.011v8.154l.811-.4Z" transform="translate(-255.167 -212.884)" opacity="0.1"/>
        <path id="Path_897" data-name="Path 897" d="M477.443,229.08v1.232a3.834,3.834,0,1,1-7.668,0V229.08h.958v1.232a2.877,2.877,0,1,0,5.754,0V229.08Z" transform="translate(-397.009 -192.838)" opacity="0.1"/>
        <rect id="Rectangle_1565" data-name="Rectangle 1565" width="115.836" height="52.304" transform="translate(18.683 36.516)" fill="#535461"/>
        <rect id="Rectangle_1566" data-name="Rectangle 1566" width="111.453" height="47.649" transform="translate(20.738 38.159)" fill="#fff"/>
        <g id="Group_216" data-name="Group 216" transform="translate(31.744 43.339)" opacity="0.2">
          <rect id="Rectangle_1567" data-name="Rectangle 1567" width="5.269" height="2.4" fill="#6c63ff"/>
        </g>
        <g id="Group_217" data-name="Group 217" transform="translate(31.744 47.981)" opacity="0.2">
          <rect id="Rectangle_1568" data-name="Rectangle 1568" width="5.269" height="2.4" fill="#6c63ff"/>
        </g>
        <g id="Group_218" data-name="Group 218" transform="translate(31.744 52.622)" opacity="0.2">
          <rect id="Rectangle_1569" data-name="Rectangle 1569" width="5.269" height="2.4" fill="#6c63ff"/>
        </g>
        <g id="Group_219" data-name="Group 219" transform="translate(31.744 57.262)" opacity="0.2">
          <rect id="Rectangle_1570" data-name="Rectangle 1570" width="5.269" height="2.4" fill="#6c63ff"/>
        </g>
        <g id="Group_220" data-name="Group 220" transform="translate(31.744 61.904)" opacity="0.2">
          <rect id="Rectangle_1571" data-name="Rectangle 1571" width="5.269" height="2.4" fill="#6c63ff"/>
        </g>
        <g id="Group_221" data-name="Group 221" transform="translate(31.744 66.544)" opacity="0.2">
          <rect id="Rectangle_1572" data-name="Rectangle 1572" width="5.269" height="2.4" fill="#6c63ff"/>
        </g>
        <g id="Group_222" data-name="Group 222" transform="translate(31.744 71.184)" opacity="0.2">
          <rect id="Rectangle_1573" data-name="Rectangle 1573" width="5.269" height="2.4" fill="#6c63ff"/>
        </g>
        <g id="Group_223" data-name="Group 223" transform="translate(31.744 75.824)" opacity="0.2">
          <rect id="Rectangle_1574" data-name="Rectangle 1574" width="5.269" height="2.4" fill="#6c63ff"/>
        </g>
        <g id="Group_224" data-name="Group 224" transform="translate(41.665 78.226)" opacity="0.2">
          <rect id="Rectangle_1575" data-name="Rectangle 1575" width="5.269" height="2.4" fill="#6c63ff"/>
        </g>
        <g id="Group_225" data-name="Group 225" transform="translate(50.947 78.226)" opacity="0.2">
          <rect id="Rectangle_1576" data-name="Rectangle 1576" width="5.269" height="2.4" fill="#6c63ff"/>
        </g>
        <g id="Group_226" data-name="Group 226" transform="translate(60.227 78.226)" opacity="0.2">
          <rect id="Rectangle_1577" data-name="Rectangle 1577" width="5.269" height="2.4" fill="#6c63ff"/>
        </g>
        <g id="Group_227" data-name="Group 227" transform="translate(69.51 78.226)" opacity="0.2">
          <rect id="Rectangle_1578" data-name="Rectangle 1578" width="5.269" height="2.4" fill="#6c63ff"/>
        </g>
        <g id="Group_228" data-name="Group 228" transform="translate(78.79 78.226)" opacity="0.2">
          <rect id="Rectangle_1579" data-name="Rectangle 1579" width="5.269" height="2.4" fill="#6c63ff"/>
        </g>
        <g id="Group_229" data-name="Group 229" transform="translate(88.072 78.226)" opacity="0.2">
          <rect id="Rectangle_1580" data-name="Rectangle 1580" width="5.269" height="2.4" fill="#6c63ff"/>
        </g>
        <g id="Group_230" data-name="Group 230" transform="translate(97.353 78.226)" opacity="0.2">
          <rect id="Rectangle_1581" data-name="Rectangle 1581" width="5.269" height="2.4" fill="#6c63ff"/>
        </g>
        <g id="Group_231" data-name="Group 231" transform="translate(106.635 78.226)" opacity="0.2">
          <rect id="Rectangle_1582" data-name="Rectangle 1582" width="5.269" height="2.4" fill="#6c63ff"/>
        </g>
        <g id="Group_232" data-name="Group 232" transform="translate(115.915 78.226)" opacity="0.2">
          <rect id="Rectangle_1583" data-name="Rectangle 1583" width="5.269" height="2.4" fill="#6c63ff"/>
        </g>
        <rect id="Rectangle_1584" data-name="Rectangle 1584" width="5.269" height="15.042" transform="translate(41.665 60.783)" fill="#7971ff"/>
        <rect id="Rectangle_1585" data-name="Rectangle 1585" width="5.269" height="22.004" transform="translate(50.947 53.822)" fill="#7971ff"/>
        <rect id="Rectangle_1586" data-name="Rectangle 1586" width="5.269" height="27.845" transform="translate(60.227 47.981)" fill="#6ffb8b"/>
        <rect id="Rectangle_1587" data-name="Rectangle 1587" width="5.269" height="24.816" transform="translate(69.51 51.009)" fill="#7971ff"/>
        <rect id="Rectangle_1588" data-name="Rectangle 1588" width="5.269" height="30.085" transform="translate(78.79 45.741)" fill="#6ffb8b"/>
        <g id="Group_233" data-name="Group 233" transform="translate(88.072 57.262)" opacity="0.2">
          <rect id="Rectangle_1589" data-name="Rectangle 1589" width="5.269" height="18.563" fill="#6c63ff"/>
        </g>
        <g id="Group_234" data-name="Group 234" transform="translate(97.353 57.262)" opacity="0.2">
          <rect id="Rectangle_1590" data-name="Rectangle 1590" width="5.269" height="18.563" fill="#6c63ff"/>
        </g>
        <g id="Group_235" data-name="Group 235" transform="translate(106.635 57.262)" opacity="0.2">
          <rect id="Rectangle_1591" data-name="Rectangle 1591" width="5.269" height="18.563" fill="#6c63ff"/>
        </g>
        <g id="Group_236" data-name="Group 236" transform="translate(115.915 57.262)" opacity="0.2">
          <rect id="Rectangle_1592" data-name="Rectangle 1592" width="5.269" height="18.563" fill="#6c63ff"/>
        </g>
        <path id="Path_898" data-name="Path 898" d="M423.071,308.39l-45.121,2.777v.88l46.083-1.828Z" transform="translate(-307.761 -251.169)" fill="#535461"/>
        <path id="Path_899" data-name="Path 899" d="M750.855,205.285a17.1,17.1,0,0,0,1.734-9.975c-.627-6.092-2.9-15.951-2.9-15.951s.986-5.524-4.36-6.3a19.077,19.077,0,0,1-5.7-2.112,5.463,5.463,0,0,1-2.042-2.042s-.032.091-.093.258a2.941,2.941,0,0,1-.145-.258s-.013.033-.033.093l-.908-1.414s-.124.132-.334.349a9.447,9.447,0,0,1-.928-1.67,4.825,4.825,0,0,0,.663-.212,1.3,1.3,0,0,0,.54-.345,1.37,1.37,0,0,0,.245-.611,7.424,7.424,0,0,0,.122-2.146,10.591,10.591,0,0,1-.124-1.68c.041-.6.254-1.186.284-1.791a4.577,4.577,0,0,0-1.13-2.923c-.39-.5-.828-.971-1.166-1.509-.293-.468-.507-.984-.822-1.438a4.967,4.967,0,0,0-3.25-1.9,11.561,11.561,0,0,0-3.848.126,31.986,31.986,0,0,1-3.341.52c-.973.056-1.765-.273-2.656.371a2.569,2.569,0,0,0-1.036,1.856.984.984,0,0,0,.028.371,2.665,2.665,0,0,0,.186.362c.4.78-.206,1.706-.128,2.576a1.721,1.721,0,0,0,1.522,1.5c-.035.074-.074.147-.108.223a7.7,7.7,0,0,0,6.287,10.778l.345.265c.78.6,1.656,1.325,2.5,2.11l-.017.013-.137-.078a7.4,7.4,0,0,1-.809.557,7.568,7.568,0,0,1-3.46,1.171s-2.539,1.346-3.413,5.784a14.922,14.922,0,0,1-7.489,3.684c-4.987.742-11.136.986-11.136.986s-.05.089-.121.252l-.568-.1a1.022,1.022,0,0,1-.024.186l-.223-.1c-1.761-.77-5.281-1.893-5.726,1.2a2.922,2.922,0,0,0,3.36,3.673,18.449,18.449,0,0,1,2.4-.729l.221-.043a1.228,1.228,0,0,0,.156.3h.538a6.351,6.351,0,0,0,.674,1.1l12.543-.275a13.168,13.168,0,0,1,4.122-.171c-.863,6.452-1.882,13.527-1.882,13.527s-2.134,11.205-.64,12.376a22.736,22.736,0,0,1,2.647-.709,12.041,12.041,0,0,0,.219,2.062l.956,6.257a51.9,51.9,0,0,0,1.613,10.208l1.1,5.216.917,3.942.516,6.691a63.558,63.558,0,0,1,1.533,8.62c.484,4.5,3.115,11.76,3.465,12.716-.9,1.271-2.743,3.428-5.058,3.651-3.3.319-3.384,2.311-1.075,3.027s7.168,0,7.168,0l6.853-1.695a5.943,5.943,0,0,0-.163,2.37c.438.319,7.088,2.042,7.328-.716q.028-.342.05-.663a14.031,14.031,0,0,0-.7-5.216c-.054-.165-.1-.332-.145-.5a3.072,3.072,0,0,0,.271-.351s.479-7.447.837-10.116c.028-.213.046-.473.056-.767.165-3.2-1-11.617-1-11.617s-1.442-5.475-1.388-7.992a2.4,2.4,0,0,1,.106-.616.684.684,0,0,0-.019-.134.356.356,0,0,1,.028-.106,58.978,58.978,0,0,1-.629-7.992,6.185,6.185,0,0,1,.186-1.318,8.657,8.657,0,0,0,.176-1.721c.093-2.042-.015-5.568-.163-8.876.017-.056.033-.111.046-.176a1.726,1.726,0,0,0-.091-.78c-.011-.213-.02-.425-.031-.635.061-.21.111-.432.156-.663h.1v.013s6.24-.3,7.675-1.971c0,0-1.45-4.5-2.253-8.167Zm-26.891-14.011-.1-.035c.158-.557.345-1.2.557-1.884C724.243,190.09,724.087,190.758,723.964,191.274Zm6.333-18.466.028.026-.03-.017Zm7.8,96.612c-.336-1.156-1.671-5.871-1.628-8.118a2.287,2.287,0,0,1,.1-.575,4.3,4.3,0,0,0,.186-1.257,33.416,33.416,0,0,0-.765-6.55s-2.01-5.67-1.856-10.173c0-.113.013-.226.02-.34.033-.427.059-.889.078-1.377v-.009c.076-1.739.059-3.833.009-5.785l-.011-.072c-.069-2.586-.2-4.913-.251-5.834.186,1.331,1.374,9.614,1.886,10.969a27.817,27.817,0,0,0,1.554,7.053l1.4,8.4s.358,10,.954,12.824c.267,1.258.494,2.107.663,2.66-.241,1.127-.631,3.014-.893,4.577-.154-1.019-.7-4.9-1.442-6.392Z" transform="translate(-582.123 -129.734)" fill="url(#linear-gradient)"/>
        <path id="Path_900" data-name="Path 900" d="M849.715,781.865s-2.329,4.223-5.605,4.538-3.354,2.289-1.065,3,7.105,0,7.105,0l6.867-1.7s-.83-6.79-1.934-7.144S849.715,781.865,849.715,781.865Z" transform="translate(-699.713 -641.921)" fill="#4c4c78"/>
        <path id="Path_901" data-name="Path 901" d="M924.989,786.066s-1.737,7.814-1.3,8.131,7.025,2.012,7.263-.711q.028-.343.05-.657a13.93,13.93,0,0,0-.69-5.169,4.138,4.138,0,0,1-.267-1.594C930.154,784.962,924.989,786.066,924.989,786.066Z" transform="translate(-766.616 -646.044)" fill="#4c4c78"/>
        <path id="Path_902" data-name="Path 902" d="M861.723,213.6s-5.329,13.089-4.38,8.885c.627-2.784-3.428-6.483-6.233-8.657-1.427-1.114-2.53-1.821-2.53-1.821s10-11.664,9.3-6.632a7.578,7.578,0,0,0,.546,4.061A10.644,10.644,0,0,0,861.723,213.6Z" transform="translate(-705.505 -172.504)" fill="#ffb9b9"/>
        <path id="Path_903" data-name="Path 903" d="M705.34,334.01a3.054,3.054,0,0,0-1.219.076,18.323,18.323,0,0,0-2.378.722,2.9,2.9,0,0,1-3.33-3.64c.44-3.066,3.927-1.953,5.674-1.192.594.262.987.481.987.481Z" transform="translate(-583.16 -274.324)" fill="#ffb9b9"/>
        <path id="Path_904" data-name="Path 904" d="M729.7,337.693a3.054,3.054,0,0,0-1.219.076c-.427-1.077-.1-3.629-.033-4.109.594.262.987.481.987.481Z" transform="translate(-607.521 -278.007)" opacity="0.1"/>
        <path id="Path_905" data-name="Path 905" d="M730.744,333.416l-1.026-.186s-.525,3.527.162,4.455h1.18Z" transform="translate(-608.547 -277.657)" fill="#cbcdda"/>
        <path id="Path_906" data-name="Path 906" d="M819.034,365.805s-3.137-1.876-3.512.492-.869,6.415-.869,6.415l-.869,5.151-1.125,10.32.158,1.756s3.341-1.125,4.124-.729,1.422-4.341,1.422-4.341l1.3-4.894.2-10.379Z" transform="translate(-676.252 -303.612)" fill="#4c4c78"/>
        <path id="Path_907" data-name="Path 907" d="M819.034,365.805s-3.137-1.876-3.512.492-.869,6.415-.869,6.415l-.869,5.151-1.125,10.32.158,1.756s3.341-1.125,4.124-.729,1.422-4.341,1.422-4.341l1.3-4.894.2-10.379Z" transform="translate(-676.252 -303.612)" opacity="0.1"/>
        <path id="Path_908" data-name="Path 908" d="M751.192,303.4a15.051,15.051,0,0,1-8.2,4.41c-4.943.739-11.042.978-11.042.978a5.35,5.35,0,0,0,.681,5.683l12.436-.275a12.023,12.023,0,0,1,4.885,0Z" transform="translate(-610.101 -253.364)" fill="#4c4c78"/>
        <path id="Path_909" data-name="Path 909" d="M751.192,303.4a15.051,15.051,0,0,1-8.2,4.41c-4.943.739-11.042.978-11.042.978a5.35,5.35,0,0,0,.681,5.683l12.436-.275a12.023,12.023,0,0,1,4.885,0Z" transform="translate(-610.101 -253.364)" opacity="0.05"/>
        <path id="Path_910" data-name="Path 910" d="M692.29,384.58" transform="translate(-578.223 -319.476)" fill="none" stroke="blue" stroke-miterlimit="10" stroke-width="1"/>
        <path id="Path_911" data-name="Path 911" d="M857.894,209.319c-1.214,2.6-3.324,4.514-6.385,4.514-.135,0-.267,0-.4-.009-1.427-1.114-2.53-1.821-2.53-1.821s10-11.664,9.3-6.632C857.656,206.912,857.406,208.163,857.894,209.319Z" transform="translate(-705.505 -172.504)" opacity="0.1"/>
        <path id="Path_912" data-name="Path 912" d="M838.513,180.632a7.61,7.61,0,1,1-2.226-5.4A7.627,7.627,0,0,1,838.513,180.632Z" transform="translate(-684.884 -147.167)" fill="#ffb9b9"/>
        <path id="Path_913" data-name="Path 913" d="M852.722,294.189s-17.009,1.5-17.633-.67,1.735-8.052,1.735-8.052l-.768-8.209-.028-.314s2.131-8.881,2.053-9.59c-.074-.639,3.43-8.091,4.15-9.614.085-.176.13-.273.13-.273l.135.078.059.035.833.486,3.291-.78,3.966-2.077.371,22.72Z" transform="translate(-694.433 -214.118)" fill="#cbcdda"/>
        <path id="Path_914" data-name="Path 914" d="M864.735,268.679a1.355,1.355,0,0,0-1.618.848,12.055,12.055,0,0,1-.631,1.461l-.453,2.7-.83,4.269-.612,18.886.277,3.354,1.52-2.7.276-17.653v-2.2a15.9,15.9,0,0,1,1.266-5.513l.212-.5,1.322-1.7Z" transform="translate(-715.286 -225.055)" opacity="0.1"/>
        <path id="Path_915" data-name="Path 915" d="M863.465,267.4a1.355,1.355,0,0,0-1.619.848,11.96,11.96,0,0,1-.633,1.461l-.453,2.7-.83,4.269-.611,18.886.277,3.356,1.52-2.712.277-17.642v-2.2a15.978,15.978,0,0,1,1.266-5.513l.214-.5,1.321-1.7Z" transform="translate(-714.252 -224.013)" fill="#4c4c78"/>
        <path id="Path_916" data-name="Path 916" d="M884.538,241.31s-4.026,4.269-5.448,4.776c0,0,.711,3.237,1.422,3.868a59.877,59.877,0,0,1,4.972-4.657l.627-1.535Z" transform="translate(-730.352 -202.798)" opacity="0.1"/>
        <path id="Path_917" data-name="Path 917" d="M884.538,240s-4.026,4.269-5.448,4.776c0,0,.711,3.237,1.422,3.868a59.876,59.876,0,0,1,4.972-4.657l.627-1.533Z" transform="translate(-730.352 -201.731)" fill="#cbcdda"/>
        <path id="Path_918" data-name="Path 918" d="M847.179,267.37l-.041.111-1.29,3.458-2.307,6.524s-.02.067-.061.186c-.382,1.188-2.437,7.634-2.842,9.507l-.028-.314s2.131-8.881,2.053-9.59c-.074-.639,3.43-8.091,4.15-9.614.115-.078.2-.145.265-.195Z" transform="translate(-699.014 -224.021)" opacity="0.1"/>
        <path id="Path_919" data-name="Path 919" d="M822.532,267.36l-1.333,3.571-2.307,6.524s-.02.067-.061.186c-.4,1.266-2.712,8.492-2.9,9.813-.21,1.451-3.111,9.3-3.111,9.3l-1.657,13.585c-1.485-1.153.624-12.25.624-12.25s2.368-16.458,2.929-21.933,3.584-7.075,3.584-7.075a7.559,7.559,0,0,0,3.428-1.16,7.228,7.228,0,0,0,.8-.557Z" transform="translate(-674.604 -224.013)" fill="#4c4c78"/>
        <path id="Path_920" data-name="Path 920" d="M853.055,501.832c-.354,2.645-.828,10.023-.828,10.023C850.569,514.34,846.9,513,846.9,513a16.618,16.618,0,0,1-.986-3.553c-.592-2.81-.947-12.709-.947-12.709l-1.383-8.315a27.483,27.483,0,0,1-1.539-6.986c-.557-1.461-1.9-11.051-1.9-11.051a126.006,126.006,0,0,1,.2,13.143c-.358,4.54,1.813,10.648,1.813,10.648s1.225,5.724.592,7.5,1.579,9.115,1.579,9.115c-.186,2.133-6.47,1.264-6.47,1.264s-2.957-7.935-3.475-12.71a63.11,63.11,0,0,0-1.52-8.538l-.512-6.632-.909-3.92-1.084-5.169a51.988,51.988,0,0,1-1.6-10.123l-.948-6.216a19.787,19.787,0,0,1,.72-8.569c.232-.819.418-1.318.418-1.318.544.386,3.658.839,5.269,1.206a9.237,9.237,0,0,0,2.691.215,59.974,59.974,0,0,0,12.026-2.205c.265-.08.406-.126.406-.126l.084.711.2,1.693.351,3.005s1.065,16.023.434,18.19.434,9.466.434,9.466c-.592,1.732,1.262,8.77,1.262,8.77S853.411,499.187,853.055,501.832Z" transform="translate(-688.412 -371.084)" opacity="0.1"/>
        <path id="Path_921" data-name="Path 921" d="M853.055,500.622c-.354,2.645-.828,10.023-.828,10.023-1.657,2.487-5.329,1.143-5.329,1.143a16.614,16.614,0,0,1-.986-3.551c-.592-2.808-.947-12.71-.947-12.71l-1.383-8.326a27.977,27.977,0,0,1-1.539-7c-.557-1.461-1.9-11.051-1.9-11.051a126.006,126.006,0,0,1,.2,13.143c-.358,4.54,1.813,10.656,1.813,10.656s1.225,5.724.592,7.5,1.579,9.117,1.579,9.117c-.186,2.131-6.47,1.262-6.47,1.262s-2.957-7.925-3.475-12.7a63.109,63.109,0,0,0-1.52-8.538l-.512-6.63-.909-3.907-1.084-5.169a52.019,52.019,0,0,1-1.6-10.125l-.948-6.216a19.787,19.787,0,0,1,.72-8.57c.232-.817.418-1.316.418-1.316.544.386,3.658.837,5.269,1.2a9.173,9.173,0,0,0,2.691.215,59.971,59.971,0,0,0,12.026-2.205l.406-.124.084.709.2,1.695.351,3s1.065,16.022.434,18.189.434,9.466.434,9.466c-.592,1.73,1.262,8.768,1.262,8.768S853.411,497.974,853.055,500.622Z" transform="translate(-688.412 -370.107)" fill="#474463"/>
        <path id="Path_922" data-name="Path 922" d="M841.421,180.663a7.61,7.61,0,0,1-1.01,3.8,3.991,3.991,0,0,1-3.341-.807,16.415,16.415,0,0,1-1.526-1.891,11.446,11.446,0,0,0-1.089-1.075,3.461,3.461,0,0,0-.859-.625,1.168,1.168,0,0,0-1.03-.011c-.419.234-.557.755-.8,1.171a1.565,1.565,0,0,1-.874.763.928.928,0,0,1-1.045-.355c-.258-.444-.069-1.136-.5-1.407a2.76,2.76,0,0,0-.353-.145c-.557-.252-.622-1-.67-1.613a1,1,0,0,0-.342-.8,1.574,1.574,0,0,0-.885-.074,1.148,1.148,0,0,1-.265-.02,7.627,7.627,0,0,1,14.6,3.09Z" transform="translate(-687.792 -147.198)" opacity="0.1"/>
        <path id="Path_923" data-name="Path 923" d="M819.779,155.714a2.547,2.547,0,0,0-1.026,1.845.95.95,0,0,0,.028.362,2.446,2.446,0,0,0,.186.36c.39.774-.206,1.691-.13,2.554a1.7,1.7,0,0,0,1.67,1.485c.3,0,.631-.089.885.074a1,1,0,0,1,.341.8c.048.613.109,1.361.668,1.613a3.119,3.119,0,0,1,.353.145c.434.271.245.965.5,1.407a.928.928,0,0,0,1.045.354,1.559,1.559,0,0,0,.872-.761c.239-.418.382-.928.8-1.171a1.162,1.162,0,0,1,1.03.009,3.466,3.466,0,0,1,.859.627,11.241,11.241,0,0,1,1.09,1.075,16.55,16.55,0,0,0,1.526,1.889,4.22,4.22,0,0,0,4.317.533,1.31,1.31,0,0,0,.536-.342,1.361,1.361,0,0,0,.243-.607,7.359,7.359,0,0,0,.122-2.125,10.542,10.542,0,0,1-.124-1.67c.039-.6.252-1.175.282-1.773a4.567,4.567,0,0,0-1.114-2.9c-.386-.5-.82-.961-1.154-1.5-.291-.464-.5-.974-.815-1.424a4.909,4.909,0,0,0-3.222-1.888,11.449,11.449,0,0,0-3.812.126,30.965,30.965,0,0,1-3.319.514C821.447,155.4,820.662,155.074,819.779,155.714Z" transform="translate(-681.208 -132.168)" fill="#472727"/>
        <path id="Path_924" data-name="Path 924" d="M858.491,267.36l-1.333,3.571-2.307,6.524s-.02.067-.061.186v.009l2.9-9.737A7.23,7.23,0,0,0,858.491,267.36Z" transform="translate(-710.562 -224.013)" opacity="0.1"/>
        <path id="Path_925" data-name="Path 925" d="M934.254,480.1s.137,4.321-1.026,5.407l-3.1-5.841,2.6-1.264Z" transform="translate(-771.919 -395.883)" fill="#ffb9b9"/>
        <path id="Path_926" data-name="Path 926" d="M901.577,293.315c-1.422,1.657-7.61,1.954-7.61,1.954l-6.125-9.652s-1.45-1.006-4.172-5.537a16.766,16.766,0,0,1-2.482-10.626c.152-2.606,1.856-10.1,1.856-10.1.265-1.685,4.083-12.25,4.083-12.25a5.425,5.425,0,0,0,2.019,2.019,18.811,18.811,0,0,0,5.648,2.094c5.3.77,4.323,6.246,4.323,6.246s.059,21.284-.267,23.83S901.577,293.315,901.577,293.315Z" transform="translate(-732.01 -207.522)" opacity="0.1"/>
        <path id="Path_927" data-name="Path 927" d="M857.7,447.206l-.178,1.58L855.368,448l-1.578-2.389,1.184-.928Z" transform="translate(-695.282 -362.163)" fill="#cbcdda"/>
        <path id="Path_928" data-name="Path 928" d="M854.9,449.554l-1.125.115-10.845,1.084a17.569,17.569,0,0,1-5.216-.256l-5.03-1.006c.232-.817.418-1.316.418-1.316.544.386,3.658.837,5.269,1.2a9.173,9.173,0,0,0,2.691.215,59.971,59.971,0,0,0,12.026-2.205l.49.585Z" transform="translate(-692.556 -370.628)" opacity="0.1"/>
        <g id="Group_237" data-name="Group 237" transform="translate(140.54 76.641)" opacity="0.1">
          <path id="Path_929" data-name="Path 929" d="M835.035,451.679a.976.976,0,0,1-.1-.059.056.056,0,0,1-.011.028Z" transform="translate(-834.92 -450.714)"/>
          <path id="Path_930" data-name="Path 930" d="M936.772,488.572s-1.856-7.038-1.262-8.768c0,0-1.065-7.294-.432-9.466s-.436-18.19-.436-18.19l-.351-3.005-.2-1.695-.082-.709-.408.124-.252.074.032.275.2,1.693.351,3s1.065,16.023.436,18.189.432,9.466.432,9.466c-.592,1.732,1.262,8.768,1.262,8.768s1.3,9.4.948,12.038-.83,10.023-.83,10.023c-1.21,1.817-3.495,1.591-4.64,1.336l.021.045s3.671,1.344,5.329-1.143c0,0,.473-7.382.83-10.023S936.772,488.572,936.772,488.572Z" transform="translate(-913.607 -446.74)"/>
          <path id="Path_931" data-name="Path 931" d="M887.588,597.83c.631-1.776-.592-7.5-.592-7.5s-2.17-6.125-1.815-10.656c.148-1.891.139-4.486.076-6.867-.5-3.072-.986-6.5-.986-6.5a126.336,126.336,0,0,1,.2,13.141c-.356,4.538,1.813,10.658,1.813,10.658s1.225,5.722.592,7.5,1.576,9.108,1.576,9.108c-.158,1.708-4.213,1.485-5.823,1.336l.061.163s6.275.869,6.472-1.262C889.167,606.947,886.956,599.606,887.588,597.83Z" transform="translate(-873.775 -544.117)"/>
        </g>
        <path id="Path_932" data-name="Path 932" d="M902.841,293.315c-1.42,1.657-7.61,1.954-7.61,1.954l-6.125-9.652s-1.45-1.006-4.174-5.537a16.766,16.766,0,0,1-2.482-10.626c.15-2.606,1.856-10.1,1.856-10.1.265-1.685,4.083-12.25,4.083-12.25a5.4,5.4,0,0,0,2.019,2.019,18.811,18.811,0,0,0,5.648,2.094c5.3.77,4.321,6.246,4.321,6.246s.059,21.284-.267,23.83S902.841,293.315,902.841,293.315Z" transform="translate(-733.038 -207.522)" fill="#4c4c78"/>
        <path id="Path_933" data-name="Path 933" d="M889.8,252.323l-1.333.5.887.622-6.626,15.984c.154-2.6,1.856-10.1,1.856-10.1.265-1.685,4.083-12.25,4.083-12.25a5.4,5.4,0,0,0,2.019,2.019Z" transform="translate(-733.317 -207.497)" opacity="0.1"/>
        <path id="Path_934" data-name="Path 934" d="M851.5,387.367l6.778-1.747.889,2.753-6.927,1.689Z" transform="translate(-693.417 -314.065)" opacity="0.1"/>
        <path id="Path_935" data-name="Path 935" d="M933.179,279.663s-3.079,2.9-1.917,9.355,3.02,13.468,3.02,13.468l-5.011,13.883s3.493,3.642,5.21,4.083l5-11.1a16.951,16.951,0,0,0,1.717-9.885c-.622-6.038-2.871-15.808-2.871-15.808S938.329,277.71,933.179,279.663Z" transform="translate(-771.218 -233.712)" opacity="0.1"/>
        <path id="Path_936" data-name="Path 936" d="M934.416,279.663s-3.081,2.9-1.923,9.355,3.018,13.468,3.018,13.468L930.5,316.369s3.493,3.642,5.21,4.083l5.011-11.1a16.953,16.953,0,0,0,1.717-9.885c-.622-6.038-2.871-15.808-2.871-15.808S939.567,277.71,934.416,279.663Z" transform="translate(-772.22 -233.712)" fill="#4c4c78"/>
        <path id="Path_937" data-name="Path 937" d="M928.11,480.636s3.907,5.409,3.612,6.849a.876.876,0,0,1-1.44.67l-1.539-2.11L927.36,482.1S927.5,480.393,928.11,480.636Z" transform="translate(-769.663 -397.684)" opacity="0.1"/>
        <path id="Path_938" data-name="Path 938" d="M925.56,480.636s3.9,5.409,3.612,6.849a.876.876,0,0,1-1.44.67l-1.541-2.11L924.81,482.1S924.945,480.393,925.56,480.636Z" transform="translate(-767.586 -397.684)" opacity="0.1"/>
        <path id="Path_939" data-name="Path 939" d="M926.84,480.636s3.9,5.409,3.61,6.849a.876.876,0,0,1-1.44.67l-1.539-2.11L926.09,482.1S926.224,480.393,926.84,480.636Z" transform="translate(-768.628 -397.684)" fill="#474463"/>
      </g>
    </g>
  </g>
</svg>
