<svg xmlns="http://www.w3.org/2000/svg" width="278.441" height="200.329" viewBox="0 0 278.441 200.329">
  <g id="Group_273" data-name="Group 273" transform="translate(-49 -88.861)">
    <g id="Group_254" data-name="Group 254" transform="translate(52 88.861)">
      <ellipse id="Ellipse_283" data-name="Ellipse 283" cx="135.602" cy="13.243" rx="135.602" ry="13.243" transform="translate(-3 173.842)" fill="#f1f1f1"/>
      <path id="Path_1122" data-name="Path 1122" d="M63.914,0c35.3,0,63.914,4.318,63.914,9.645s-28.615,9.645-63.914,9.645S0,14.971,0,9.645,28.615,0,63.914,0Z" transform="translate(31.381 180.569)" fill="#f1f1f1" opacity="0.1"/>
      <path id="Path_1093" data-name="Path 1093" d="M207.577,354.14a54.347,54.347,0,1,0,11.009,107.577,54.376,54.376,0,0,1,35.452-81.442A54.316,54.316,0,0,0,207.577,354.14Z" transform="translate(-144.132 -279.072)" fill="#7971ff"/>
      <path id="Path_1094" data-name="Path 1094" d="M158.715,411.019a54.376,54.376,0,0,1,63.064-53.646A54.355,54.355,0,1,0,198.894,463.5,54.365,54.365,0,0,1,158.715,411.019Z" transform="translate(-144.132 -280.041)" opacity="0.1"/>
      <path id="Path_1095" data-name="Path 1095" d="M298.293,194.209a54.322,54.322,0,1,0-81.436-35.449,54.367,54.367,0,0,1,81.436,35.449Z" transform="translate(-188.646 -93.4)" fill="#004354"/>
      <path id="Path_1096" data-name="Path 1096" d="M448.388,147.747A54.267,54.267,0,0,1,426.3,191.482c.233.9.449,1.808.639,2.726A54.353,54.353,0,0,0,398.733,93.4c-.786,0-1.566.02-2.344.055A54.35,54.35,0,0,1,448.388,147.747Z" transform="translate(-317.286 -93.4)" opacity="0.1"/>
      <path id="Path_1097" data-name="Path 1097" d="M475.448,509.377a16.22,16.22,0,0,0-2.528,1.6,5.435,5.435,0,0,0-1.759,2.381,21.931,21.931,0,0,1-1.088-3.219,53.561,53.561,0,0,0-2.223-5.784,7.707,7.707,0,0,0,3.5-2.686c1.727,1.713,3.486,3.5,4.342,5.758.147.392.576.809.677,1.152C476.5,509.089,475.822,509.17,475.448,509.377Z" transform="translate(-368.173 -384.128)" fill="#ffbfc5"/>
      <path id="Path_1098" data-name="Path 1098" d="M329,677.276c0,12.846,9.268,14.208,20.7,14.208s20.7-1.362,20.7-14.208-9.268-17.726-20.7-17.726S329,664.433,329,677.276Z" transform="translate(-269.298 -496.554)" fill="#d9d9d9"/>
      <path id="Path_1099" data-name="Path 1099" d="M542.547,673.107a15.856,15.856,0,0,1,5.165,2.764.532.532,0,0,1,.233.317c.04.288-.357.418-.645.5-.864.245-1.391,1.042-2.015,1.664s-1.627,1.114-2.355.616a2.3,2.3,0,0,1-.5-.521l-3.075-4.008a18.62,18.62,0,0,1,3.273-1.44" transform="translate(-419.095 -506.132)" fill="#ffb8b8"/>
      <path id="Path_1100" data-name="Path 1100" d="M552.308,675c.409.415.576,1.013.985,1.44a3.521,3.521,0,0,0,.91.63l2.355,1.3a6.518,6.518,0,0,0,1.152.538,10.234,10.234,0,0,0,1.35.288,9.733,9.733,0,0,1,1.906.576c.461.19.976.515.973,1.013a1.1,1.1,0,0,1-.288.656c-.927,1.169-2.571,1.439-4.057,1.586a28.436,28.436,0,0,1-9.642-.164,4.114,4.114,0,0,1-1.7-.734,3.209,3.209,0,0,1-.783-3.394,1.837,1.837,0,0,1,.749-1.114,3.88,3.88,0,0,1,1.69-.2,5.33,5.33,0,0,0,1.727-.556c.36-.161.772-.371.864-.8s-.394-.795-.288-1.152C550.417,674.118,551.934,674.622,552.308,675Z" transform="translate(-422.325 -506.195)" fill="#2f2e41"/>
      <path id="Path_1101" data-name="Path 1101" d="M552.308,675c.409.415.576,1.013.985,1.44a3.521,3.521,0,0,0,.91.63l2.355,1.3a6.518,6.518,0,0,0,1.152.538,10.234,10.234,0,0,0,1.35.288,9.733,9.733,0,0,1,1.906.576c.461.19.976.515.973,1.013a1.1,1.1,0,0,1-.288.656c-.927,1.169-2.571,1.439-4.057,1.586a28.436,28.436,0,0,1-9.642-.164,4.114,4.114,0,0,1-1.7-.734,3.209,3.209,0,0,1-.783-3.394,1.837,1.837,0,0,1,.749-1.114,3.88,3.88,0,0,1,1.69-.2,5.33,5.33,0,0,0,1.727-.556c.36-.161.772-.371.864-.8s-.394-.795-.288-1.152C550.417,674.118,551.934,674.622,552.308,675Z" transform="translate(-422.325 -506.195)" fill="#f1f1f1" opacity="0.1"/>
      <path id="Path_1102" data-name="Path 1102" d="M570.146,713.921l.99.654a1.77,1.77,0,0,1,.717.708,1.628,1.628,0,0,1-.4,1.517,8.717,8.717,0,0,1-3.812,2.954,5.684,5.684,0,0,1-1.655.412.691.691,0,0,1-.383-.046c-.3-.161-.259-.59-.262-.933a4.024,4.024,0,0,0-1.44-2.519,3.313,3.313,0,0,1-1.2-2.591,3.225,3.225,0,0,1,.864-1.52,6.213,6.213,0,0,1,1.3-1.224c.7-.458.944-.21,1.6.207Q568.315,712.717,570.146,713.921Z" transform="translate(-435.702 -533.253)" fill="#ffb8b8"/>
      <path id="Path_1103" data-name="Path 1103" d="M569.392,725.864a1.765,1.765,0,0,0,1.557-.351,3.9,3.9,0,0,0,1.011-1.3,10.585,10.585,0,0,0,.628-1.376,2.938,2.938,0,0,1,.887-1.506,1.85,1.85,0,0,1,2.015.147,11.11,11.11,0,0,1,1.552,1.486,10.486,10.486,0,0,0,4.4,2.45,47.765,47.765,0,0,0,4.975,1.062,2.82,2.82,0,0,1,.956.308,1.927,1.927,0,0,1,.711,2.1,4.579,4.579,0,0,1-1.232,1.975,4.963,4.963,0,0,1-1.65,1.275,5.266,5.266,0,0,1-1.667.317,28.472,28.472,0,0,1-8.234-.645,22.03,22.03,0,0,0-3.017-.6c-.619-.055-1.247-.037-1.866-.081a9.824,9.824,0,0,1-3.564-.939,1.258,1.258,0,0,1-.648-.541,1.331,1.331,0,0,1-.049-.714l.412-3.61c.037-.314.141-.705.455-.754s.512.259.7.5a2.554,2.554,0,0,0,3.055.668" transform="translate(-438.161 -540.378)" fill="#2f2e41"/>
      <path id="Path_1104" data-name="Path 1104" d="M453.528,579.269c1.811-.2,3.913-.239,5.139,1.111a6.733,6.733,0,0,1,1.238,3.075,19.966,19.966,0,0,0,1.963,5.228,29.567,29.567,0,0,1,1.727,3.055,21.043,21.043,0,0,1,.887,3.481,21,21,0,0,0,7.353,11.7c-.654,1.776-2.545,2.793-4.385,3.248a2.416,2.416,0,0,1-1.373.043,2.452,2.452,0,0,1-.89-.656,30.521,30.521,0,0,1-2.4-2.939c-2.652-3.541-5.341-7.154-6.786-11.332-.507-1.468-1.013-3.167-2.439-3.792a4.63,4.63,0,0,0-2.614-.092,35.431,35.431,0,0,0-5.735,1.471c-1.992.694-4.272,1.546-6.095.487a4.543,4.543,0,0,1-1.978-3.092,12.738,12.738,0,0,1,0-3.771,3.884,3.884,0,0,1,.4-1.63,3.532,3.532,0,0,1,.953-.964,19.619,19.619,0,0,1,5.367-2.879,34.26,34.26,0,0,1,5.741-1.189Q451.556,579.491,453.528,579.269Z" transform="translate(-346.204 -439.312)" fill="#2f2e41"/>
      <path id="Path_1105" data-name="Path 1105" d="M453.528,579.269c1.811-.2,3.913-.239,5.139,1.111a6.733,6.733,0,0,1,1.238,3.075,19.966,19.966,0,0,0,1.963,5.228,29.567,29.567,0,0,1,1.727,3.055,21.043,21.043,0,0,1,.887,3.481,21,21,0,0,0,7.353,11.7c-.654,1.776-2.545,2.793-4.385,3.248a2.416,2.416,0,0,1-1.373.043,2.452,2.452,0,0,1-.89-.656,30.521,30.521,0,0,1-2.4-2.939c-2.652-3.541-5.341-7.154-6.786-11.332-.507-1.468-1.013-3.167-2.439-3.792a4.63,4.63,0,0,0-2.614-.092,35.431,35.431,0,0,0-5.735,1.471c-1.992.694-4.272,1.546-6.095.487a4.543,4.543,0,0,1-1.978-3.092,12.738,12.738,0,0,1,0-3.771,3.884,3.884,0,0,1,.4-1.63,3.532,3.532,0,0,1,.953-.964,19.619,19.619,0,0,1,5.367-2.879,34.26,34.26,0,0,1,5.741-1.189Q451.556,579.491,453.528,579.269Z" transform="translate(-345.204 -440.312)" fill="#6c63ff" opacity="0.1"/>
      <path id="Path_1106" data-name="Path 1106" d="M521.728,622.564a9.351,9.351,0,0,1,2.3,1.627,8.265,8.265,0,0,1,1.56,2.8,3.4,3.4,0,0,1,.271,1.082,1.229,1.229,0,0,1-.4,1,1.794,1.794,0,0,1-1.131.288c-.524,0-1.051,0-1.575-.04a2.631,2.631,0,0,1-.933-.179,2.591,2.591,0,0,1-.726-.55,10.2,10.2,0,0,1-2.231-3.011c-.38-.838-1.008-2.772-.409-3.645S521.077,622.192,521.728,622.564Z" transform="translate(-404.034 -469.541)" fill="#ffbfc5"/>
      <path id="Path_1107" data-name="Path 1107" d="M392.746,623.87a38.7,38.7,0,0,0,8.335,1.218,69.613,69.613,0,0,1,13.891,2.747,7.457,7.457,0,0,1,2.62,1.218,7.793,7.793,0,0,1,1.52,1.935,32.673,32.673,0,0,1,2,3.489c.51,1.088.9,2.228,1.37,3.331a23.41,23.41,0,0,0,7.3,9.354,3.177,3.177,0,0,1,1.385,1.647,2.286,2.286,0,0,1-.216,1.353,8.432,8.432,0,0,1-3.63,3.677,3.811,3.811,0,0,0-1.676,1.46c-2.286-.944-3.987-2.96-5.4-4.986a34.747,34.747,0,0,0-4.486-5.893,15.909,15.909,0,0,1-2.335-2.28c-.959-1.359-1.218-3.219-2.508-4.267s-3.167-.913-4.834-.749a118.613,118.613,0,0,1-25.666-.288,12.845,12.845,0,0,1-5.125-1.393,4.745,4.745,0,0,1-2.513-4.388,4.87,4.87,0,0,1,3.124-3.619,17.565,17.565,0,0,1,4.894-.953A51.167,51.167,0,0,0,392.746,623.87Z" transform="translate(-300.454 -471.147)" fill="#2f2e41"/>
      <path id="Path_1108" data-name="Path 1108" d="M356.839,543.8c.21-1.4.754-2.735,1.1-4.114a24.884,24.884,0,0,1,.651-2.571c0-.026.02-.049.029-.072a.593.593,0,0,0,.438-.25.725.725,0,0,0,.037-.386,2.8,2.8,0,0,1,0-.412,29.442,29.442,0,0,1,1.837-2.721c1.152-1.644,2.165-3.392,3.167-5.136.823-1.44,1.647-2.862,2.326-4.365.512-1.126.941-2.3,1.506-3.392,2.015-3.915,5.62-6.8,9.5-8.876A119.363,119.363,0,0,1,389.1,506.59a2.653,2.653,0,0,1,.273.322c2.116,2.893,2.344,6.694,3.216,10.172a17.777,17.777,0,0,1,.821,4.249c0,2.136-1.022,4.123-2.038,6a32.453,32.453,0,0,1-3.2,5.1c-.6.743-1.258,1.44-1.86,2.174-2.47,3.026-3.9,6.748-5.283,10.4-.8,2.116-2.113,3.99-2.994,6.075a23.779,23.779,0,0,1-.962,2.421,2.563,2.563,0,0,1-2.035,1.44,3.051,3.051,0,0,1-.751-.118c-3.147-.809-5.781-2.879-8.4-4.819-.469-.346-.939-.685-1.44-1s-1.008-.6-1.52-.864l-1.169-.642c-1.273-.7-2.551-1.4-3.878-1.986a7.061,7.061,0,0,1-1.152-.576A6.87,6.87,0,0,1,356.839,543.8Z" transform="translate(-289.044 -387.632)" fill="#2f2e41"/>
      <circle id="Ellipse_285" data-name="Ellipse 285" cx="7.249" cy="7.249" r="7.249" transform="translate(101.681 110.508)" fill="#ffbfc5"/>
      <path id="Path_1109" data-name="Path 1109" d="M477.69,468.376a1.727,1.727,0,0,0,1.785.838,2.5,2.5,0,0,0,1.667-1.189,4.7,4.7,0,0,0,.616-2,2.088,2.088,0,0,0-.3-1.581,3.472,3.472,0,0,0-.918-.645,3.5,3.5,0,0,1-1.152-1.152c-.2-.337-.348-.7-.53-1.048a3.887,3.887,0,0,0-3.357-2.225,16.03,16.03,0,0,0-2,.4c-2.249.394-4.69-.795-6.777.132a6.334,6.334,0,0,0-1.416.944q-.881.728-1.693,1.532a3.5,3.5,0,0,0-1.031,1.5c-.288,1.065.389,2.254-.04,3.268a4.813,4.813,0,0,1-.521.821c-.472.694.04,3.4,0,4.241a1.569,1.569,0,0,0,.288,1.152,1.891,1.891,0,0,0,1.44.42h.941a1.194,1.194,0,0,0,.417-.043,1.264,1.264,0,0,0,.475-.363c.783-.826.95-3.524,2.087-3.512a.812.812,0,0,1,.492.127c.2.15.265.429.412.636a1.2,1.2,0,0,0,1.4.328,3.149,3.149,0,0,0,1.189-.962,4.684,4.684,0,0,1,1.111-1.062c.607-.354,1.293-.507,1.883-.907a16.317,16.317,0,0,0,1.215-1.186,1.021,1.021,0,0,1,1.29-.072C477.342,467.144,477.37,467.743,477.69,468.376Z" transform="translate(-363.879 -354.01)" fill="#3f3d56"/>
      <path id="Path_1110" data-name="Path 1110" d="M440.044,534.714a11.537,11.537,0,0,1,5.05.4,2.684,2.684,0,0,1,1.408.838,2.528,2.528,0,0,1,.4,1.054,8.519,8.519,0,0,1-.613,5.136.679.679,0,0,0-.083.547.966.966,0,0,0,.288.288,1,1,0,0,1-.06,1.494c-.135.1-.314.184-.34.348s.141.322.273.449a1.609,1.609,0,0,1,.449,1.48,3.239,3.239,0,0,0-.147.654,2.132,2.132,0,0,0,.239.78,3.414,3.414,0,0,1,.216,1.727,1.9,1.9,0,0,0-.02.844,1.966,1.966,0,0,0,.322.507c.521.7.633,1.877-.121,2.3a1.748,1.748,0,0,1,.93,1.8c.452-.239,1,.069,1.376.415s.76.772,1.27.8c.357.017.734-.167,1.057-.02.5.222.478,1.025.964,1.264.426.213,1.022-.132,1.385.176.127.107.19.271.314.383.273.253.705.147,1.08.13a2.571,2.571,0,0,1,2.156,1.319,6.42,6.42,0,0,1,.74,2.525,3.344,3.344,0,0,1-.029,1.454,1.247,1.247,0,0,1-1.022.921c-4.448.288-8.839-.78-13.172-1.834a10.243,10.243,0,0,1-3.628-1.44,11.073,11.073,0,0,1-2.364-2.652,25.853,25.853,0,0,1-5.683-13.736,7.583,7.583,0,0,1-.187-2.274,6.446,6.446,0,0,1,1-2.493,27.143,27.143,0,0,1,2.015-2.859A7.472,7.472,0,0,1,440.044,534.714Z" transform="translate(-342.984 -407.576)" opacity="0.1"/>
      <path id="Path_1111" data-name="Path 1111" d="M441.1,533.714a11.516,11.516,0,0,1,5.053.406,2.66,2.66,0,0,1,1.408.835,2.569,2.569,0,0,1,.4,1.054,8.539,8.539,0,0,1-.613,5.136.68.68,0,0,0-.083.547.967.967,0,0,0,.288.288,1,1,0,0,1-.06,1.494c-.135.1-.314.184-.34.348s.141.322.288.449a1.609,1.609,0,0,1,.449,1.48,3.242,3.242,0,0,0-.147.654,2.127,2.127,0,0,0,.236.78,3.389,3.389,0,0,1,.219,1.727,1.244,1.244,0,0,0,.3,1.35c.521.7.633,1.877-.121,2.32a1.742,1.742,0,0,1,.93,1.8c.452-.239,1,.069,1.376.415s.76.772,1.27.8c.357.017.731-.167,1.057-.02.5.225.478,1.025.964,1.267.426.21,1.022-.135,1.385.173.127.107.19.271.314.383.274.253.705.147,1.08.13a2.571,2.571,0,0,1,2.156,1.319,6.478,6.478,0,0,1,.74,2.525,3.436,3.436,0,0,1-.029,1.44,1.247,1.247,0,0,1-1.022.921c-4.448.288-8.839-.78-13.171-1.834a10.222,10.222,0,0,1-3.628-1.44,11.017,11.017,0,0,1-2.364-2.652,25.828,25.828,0,0,1-5.683-13.733,7.6,7.6,0,0,1-.187-2.277,6.445,6.445,0,0,1,.976-2.5,26.4,26.4,0,0,1,2.015-2.856A7.492,7.492,0,0,1,441.1,533.714Z" transform="translate(-343.746 -406.865)" fill="#fff"/>
      <path id="Path_1112" data-name="Path 1112" d="M1023.639,329.122a5.79,5.79,0,1,0-2.9-11.185A16.837,16.837,0,0,1,1023.639,329.122Z" transform="translate(-761.884 -253.084)" fill="#2f2e41"/>
      <path id="Path_1113" data-name="Path 1113" d="M1054.829,320.992a5.79,5.79,0,1,0-2.9-11.185A16.836,16.836,0,0,1,1054.829,320.992Z" transform="translate(-784.095 -247.295)" fill="#2f2e41"/>
      <path id="Path_1114" data-name="Path 1114" d="M979.069,311.9a5.79,5.79,0,0,1-2.9-11.185,16.8,16.8,0,0,0-18.02-6.723,46.124,46.124,0,0,1,8.954,32.386A16.8,16.8,0,0,0,979.069,311.9Z" transform="translate(-717.314 -235.862)" fill="#2f2e41"/>
      <path id="Path_1115" data-name="Path 1115" d="M638.842,374.13a16.81,16.81,0,0,0-13,13.327,5.79,5.79,0,0,1,1.86,11.312,16.788,16.788,0,0,0,19.929,7.742,46.136,46.136,0,0,1-8.787-32.38Z" transform="translate(-480.677 -293.307)" fill="#2f2e41"/>
      <path id="Path_1116" data-name="Path 1116" d="M611.789,420.42a5.793,5.793,0,1,0,1.86,11.312,16.854,16.854,0,0,1-1.86-11.312Z" transform="translate(-466.62 -326.27)" fill="#2f2e41"/>
      <path id="Path_1117" data-name="Path 1117" d="M575,429.12a5.793,5.793,0,1,0,1.86,11.312A16.874,16.874,0,0,1,575,429.12Z" transform="translate(-440.422 -332.465)" fill="#2f2e41"/>
      <path id="Path_1118" data-name="Path 1118" d="M874.011,246l-9.331,11.433a16.339,16.339,0,0,1,1.178,2.2l10.272-12.584C875.424,246.665,874.725,246.314,874.011,246Z" transform="translate(-650.754 -202.066)" fill="#2f2e41"/>
      <path id="Path_1119" data-name="Path 1119" d="M762.625,282.407a16.8,16.8,0,1,1-8.954-32.388A46.422,46.422,0,0,0,739.918,237.8l2.528,2.064-13.071,16.013a16.8,16.8,0,1,1-20.948-15.9l-1.051-.864,6.046-7.4a46.064,46.064,0,0,0-42.422,41,16.8,16.8,0,0,1,8.792,32.38,46.064,46.064,0,0,0,82.832-22.687Zm-49.879,30.457a16.8,16.8,0,1,1,23.642-2.4A16.8,16.8,0,0,1,712.746,312.864Z" transform="translate(-512.835 -191.89)" fill="#d9d9d9"/>
      <path id="Path_1120" data-name="Path 1120" d="M828.623,231.958q-1.368-.181-2.747-.288l-6.357,7.791a16.572,16.572,0,0,1,2.649.394Z" transform="translate(-618.596 -191.862)" fill="#2f2e41"/>
      <path id="Path_1121" data-name="Path 1121" d="M847.967,246.806l7.736-9.478q-1.192-.389-2.4-.708l-7.218,8.841a17.156,17.156,0,0,1,1.8,1.275Z" transform="translate(-637.516 -195.387)" fill="#2f2e41"/>
    </g>
  </g>
</svg>
