<svg xmlns="http://www.w3.org/2000/svg" width="234.219" height="163.67" viewBox="0 0 234.219 163.67">
  <g id="Group_282" data-name="Group 282" transform="translate(-63 -77)">
    <g id="Group_9" data-name="Group 9" transform="translate(63 77)">
      <ellipse id="Ellipse_224" data-name="Ellipse 224" cx="98.916" cy="5" rx="98.916" ry="5" transform="translate(0 143.234)" fill="#2f2e41"/>
      <ellipse id="Ellipse_225" data-name="Ellipse 225" cx="38.706" cy="1.957" rx="38.706" ry="1.957" transform="translate(156.807 154.787)" fill="#3f3d56"/>
      <ellipse id="Ellipse_226" data-name="Ellipse 226" cx="38.706" cy="1.957" rx="38.706" ry="1.957" transform="translate(47.395 159.757)" fill="#6c63ff"/>
      <path id="Path_842" data-name="Path 842" d="M894.391,497.631l3.473-2.414,7.2-9.265a1.261,1.261,0,0,0-.222-1.77h0a1.262,1.262,0,0,0-1.77.222l-7.2,9.265Z" transform="translate(-713.281 -394.708)" fill="#2f2e41"/>
      <path id="Path_843" data-name="Path 843" d="M938.313,138.12s-4.368-3.916-10.241,3.464-15.061,10.995-17.17,13.856c0,0,8.735-3.615,11.748-5.121s2.862-1.2,2.862-1.2-4.067,2.862-4.82,5.723-.151,5.271-1.506,8.133,25.905,1.958,25.905,1.958,2.711-4.669,1.958-9.488S946.746,138.723,938.313,138.12Z" transform="translate(-726.203 -123.275)" fill="#2f2e41"/>
      <path id="Path_844" data-name="Path 844" d="M973.659,195.2s1.054,7.38-3.464,9.037-2.862,3.916-2.862,3.916l6.777,3.313,7.229-2.259,2.41-3.615s-3.916-.9-2.861-3.615,1.355-3.615,1.355-3.615Z" transform="translate(-770.134 -168.759)" fill="#ffb9b9"/>
      <path id="Path_845" data-name="Path 845" d="M973.659,195.2s1.054,7.38-3.464,9.037-2.862,3.916-2.862,3.916l6.777,3.313,7.229-2.259,2.41-3.615s-3.916-.9-2.861-3.615,1.355-3.615,1.355-3.615Z" transform="translate(-770.134 -168.759)" opacity="0.1"/>
      <path id="Path_846" data-name="Path 846" d="M1062.561,292.193s-1.054,13.856-.753,14.459,0,21.537,0,21.537,2.109,11.3-.6,11.9-2.109-12.651-2.109-12.651l-2.711-17.471.3-17.32Z" transform="translate(-840.059 -244.665)" fill="#ffb9b9"/>
      <path id="Path_847" data-name="Path 847" d="M1062.561,292.193s-1.054,13.856-.753,14.459,0,21.537,0,21.537,2.109,11.3-.6,11.9-2.109-12.651-2.109-12.651l-2.711-17.471.3-17.32Z" transform="translate(-840.059 -244.665)" opacity="0.1"/>
      <path id="Path_848" data-name="Path 848" d="M932.334,484.1s-4.97,18.826-4.82,28.014a202.266,202.266,0,0,0,2.109,21.989s.3,5.573-.151,6.175,2.259,3.163,2.259,3.163l2.862-1.657,1.054-1.2v-1.054s-1.657-5.121-.3-9.187,2.109-14.308.753-17.471l9.338-27.712Z" transform="translate(-739.201 -394.849)" fill="#ffb9b9"/>
      <path id="Path_849" data-name="Path 849" d="M912.8,739.983s-1.807-2.259-3.012-1.506-3.163,5.874-3.163,5.874-6.777,6.476-1.958,6.777,6.928-1.355,7.531-2.56,6.175-4.368,6.175-4.368-.6-5.723-1.506-5.874-2.259,2.259-2.259,2.259Z" transform="translate(-719.972 -593.805)" fill="#2f2e41"/>
      <path id="Path_850" data-name="Path 850" d="M1017.62,473.373v18.676a57.742,57.742,0,0,0,.452,6.777c.452,3.313-2.56,28.014-2.56,28.014l.3,4.368,3.765-.3.452-3.765,5.422-16.567s1.807-10.091.9-13.856,4.669-27.863,4.669-27.863Z" transform="translate(-808.07 -382.921)" fill="#ffb9b9"/>
      <path id="Path_851" data-name="Path 851" d="M1010.2,744.6l1.115-.243s.842-1.866,1.9-1.414a11.368,11.368,0,0,1,2.1,1.256l.464.852a18,18,0,0,0,2.41,3.765c1.356,1.506,2.862,4.819.6,5.121s-5.271.452-6.175-.3-.3-1.958-1.2-2.259-1.657-1.2-1.506-1.506S1010.2,744.6,1010.2,744.6Z" transform="translate(-803.66 -597.37)" fill="#2f2e41"/>
      <circle id="Ellipse_227" data-name="Ellipse 227" cx="7.229" cy="7.229" r="7.229" transform="translate(202.32 17.707)" fill="#ffb9b9"/>
      <path id="Path_852" data-name="Path 852" d="M967.015,239.812l1.989-.695s-.785,1.3,3.433,2.05,8.584,1.02,10.542-1.448c0,0,.753-.359,1.807.7s1.657.753,1.657.753l-.753,3.916-1.506,7.229-1.958,5.422-5.573-1.2-6.024-4.368-2.259-5.874v-5.422Z" transform="translate(-770.117 -203.128)" fill="#6ffb8b"/>
      <path id="Path_853" data-name="Path 853" d="M958.285,243.939l1.506-1.054s5.121.9,5.422,3.313l-3.916,7.531a8.573,8.573,0,0,1-.151,6.476c-1.506,3.464-1.355,4.217-1.355,4.217l-1.054,4.518-19.128,1.506a13.545,13.545,0,0,0-1.054-2.109c-.3-.3-.3-1.355,0-1.355s0-.452-.3-.9-.452-.6,0-1.2-.753-6.024-.753-6.024v-5.874L932.38,246.2s1.807-2.711,2.711-3.012,5.2-1.489,5.2-1.489l.973,1.432,1.355,10.9,1.958,6.627,8.244-1.4,3.2-5.377,2.109-6.326Z" transform="translate(-743.012 -205.146)" fill="#6ffb8b"/>
      <path id="Path_854" data-name="Path 854" d="M1064.29,258.246l1.2.9s1.054,8.434.753,9.037-5.573,1.2-5.723.9S1064.29,258.246,1064.29,258.246Z" transform="translate(-843.295 -218.098)" fill="#6ffb8b"/>
      <path id="Path_855" data-name="Path 855" d="M927.425,300.506s1.054,13.856.753,14.459,0,21.537,0,21.537-2.109,11.3.6,11.9,2.109-12.651,2.109-12.651l2.711-17.471-.3-17.32Z" transform="translate(-739.112 -251.171)" fill="#ffb9b9"/>
      <path id="Path_856" data-name="Path 856" d="M948.906,236.679l1.506,9.94s-1.355,14.76-1.054,17.772l.3.9s-.6-.3-.753.3a14.1,14.1,0,0,0,0,2.56s-.9.9-1.2,5.874-3.916,16.868-2.56,17.32,9.488,2.711,13.856,2.259,20.031-5.723,19.881-7.079-7.681-20.483-7.681-20.483a19.783,19.783,0,0,1-1.355-2.56c0-.3,1.807-1.506,1.355-2.711s-2.862-13.856-2.862-13.856l1.657-9.037-2.259-.6-1.657,8.735s-6.476,3.163-13.254.3l-1.506-10.242Z" transform="translate(-752.761 -200.748)" fill="#2f2e41"/>
      <path id="Path_857" data-name="Path 857" d="M927.249,260.324l-1.2.452s-2.259,9.488-1.657,9.488,7.832.9,7.832.6-1.355-7.681-1.355-7.681Z" transform="translate(-736.677 -219.724)" fill="#6ffb8b"/>
      <path id="Path_858" data-name="Path 858" d="M998.884,148.333s11.145,7.681,14.157,4.217-5.271-6.476-5.271-6.476l-6.928-.753Z" transform="translate(-795.058 -129.722)" fill="#2f2e41"/>
      <path id="Path_859" data-name="Path 859" d="M200.922,73.569V220.53H327.23V73.569Zm6.739,134.786a2.174,2.174,0,1,1,2.174-2.174,2.174,2.174,0,0,1-2.174,2.174Zm0-10.652a2.174,2.174,0,1,1,2.174-2.174,2.174,2.174,0,0,1-2.174,2.174Zm0-10.435a2.174,2.174,0,1,1,2.174-2.174,2.174,2.174,0,0,1-2.174,2.174Zm0-10.652a2.174,2.174,0,1,1,2.174-2.174,2.174,2.174,0,0,1-2.174,2.174Zm0-10.652a2.174,2.174,0,1,1,2.174-2.174,2.174,2.174,0,0,1-2.174,2.174Zm0-10.435a2.174,2.174,0,1,1,2.174-2.174,2.174,2.174,0,0,1-2.174,2.174Zm0-10.652a2.174,2.174,0,1,1,2.174-2.174,2.174,2.174,0,0,1-2.174,2.174Zm0-10.652a2.174,2.174,0,1,1,2.174-2.174,2.174,2.174,0,0,1-2.174,2.174Zm0-10.435a2.174,2.174,0,1,1,2.174-2.174,2.174,2.174,0,0,1-2.174,2.174Zm0-10.652a2.174,2.174,0,1,1,2.174-2.174,2.174,2.174,0,0,1-2.174,2.174Zm0-10.652a2.174,2.174,0,1,1,2.174-2.174,2.174,2.174,0,0,1-2.174,2.174Zm0-10.218a2.174,2.174,0,1,1,2.174-2.174,2.174,2.174,0,0,1-2.174,2.174Z" transform="translate(-170.571 -73.569)" fill="#f2f2f2"/>
      <path id="Path_860" data-name="Path 860" d="M265.921,11.161v-.435H154.56V0h-.435V10.726H139.613v.435h14.513V21.3H139.613v.435h14.513V31.884H139.613v.435h14.513V42.463H139.613V42.9h14.513V53.041H139.613v.435h14.513V63.62H139.613v.435h14.513V74.2H139.613v.435h14.513V84.778H139.613v.435h14.513V95.357H139.613v.435h14.513v10.144H139.613v.435h14.513v10.144H139.613v.435h14.513v10.144H139.613v.435h14.513v10.144H139.613v.435h14.513v8.854h.435v-8.854h111.36v-.435H154.56V127.528h111.36v-.435H154.56V116.949h111.36v-.435H154.56V106.37h111.36v-.435H154.56V95.792h111.36v-.435H154.56V85.213h111.36v-.435H154.56V74.634h111.36V74.2H154.56V64.055h111.36V63.62H154.56V53.476h111.36v-.435H154.56V42.9h111.36v-.435H154.56V32.319h111.36v-.435H154.56V21.74h111.36V21.3H154.56V11.161Z" transform="translate(-109.262 0)" fill="#3f3d56" opacity="0.3"/>
      <path id="Path_861" data-name="Path 861" d="M298.165,246.189a25.116,25.116,0,0,1-4.213,2.641,5.021,5.021,0,0,1-3.084.7,1.992,1.992,0,0,1-1.68-2.3,1.82,1.82,0,0,1,1.4-1.158,3.222,3.222,0,0,1,1.861.269,5.351,5.351,0,0,1,2.526,2.241,3.962,3.962,0,0,0,1.015,1.435,2.884,2.884,0,0,0,1.289.373,8.959,8.959,0,0,0,3.2.013,3.042,3.042,0,0,0,2.311-2.015" transform="translate(-239.599 -208.541)" fill="none" stroke="#3f3d56" stroke-miterlimit="10" stroke-width="2"/>
      <path id="Path_862" data-name="Path 862" d="M367.29,223.933q.124,4.789-.134,9.579l2.266-.428a2.82,2.82,0,0,0,2.163-1.16,1.9,1.9,0,0,0-.569-2.14,5.548,5.548,0,0,0-2.122-1.029l-1.237-.394" transform="translate(-300.665 -191.244)" fill="none" stroke="#3f3d56" stroke-miterlimit="10" stroke-width="2"/>
      <path id="Path_863" data-name="Path 863" d="M406.933,239.592a7.976,7.976,0,0,0-2.493-.077,2.762,2.762,0,0,0-2.012,1.339c-.7,1.375.372,3.067,1.732,3.8a5.6,5.6,0,0,0,3.694.556" transform="translate(-328.097 -203.383)" fill="none" stroke="#3f3d56" stroke-miterlimit="10" stroke-width="2"/>
      <path id="Path_864" data-name="Path 864" d="M308.3,98.842q-3.121,2.934-6.241,0a8.585,8.585,0,0,1-2.64-6.269v-19h11.522v19A8.585,8.585,0,0,1,308.3,98.842Z" transform="translate(-247.656 -73.569)" fill="#6c63ff"/>
      <path id="Path_865" data-name="Path 865" d="M466.562,354.8c0,17.79-10.574,24-23.62,24-.3,0-.6,0-.9-.011-.6-.013-1.2-.041-1.8-.083-11.774-.833-20.92-7.363-20.92-23.907,0-17.118,21.875-38.721,23.522-40.323v0h0c.063-.063.1-.093.1-.093S466.562,337.01,466.562,354.8Z" transform="translate(-341.491 -262.028)" fill="#7971ff"/>
      <path id="Path_866" data-name="Path 866" d="M489.836,376.076l8.639-12.07-8.661,13.4-.022,1.385c-.6-.013-1.2-.041-1.8-.083l.93-17.8-.006-.139.015-.024.089-1.683-8.683-13.429,8.709,12.168.022.357.7-13.446-7.433-13.876,7.524,11.518.733-27.879,0-.1v.093l-.122,21.983,7.4-8.715-7.431,10.609-.2,12.039,6.911-11.555-6.939,13.326-.109,6.694,10.029-16.083-10.068,18.418Z" transform="translate(-389.246 -262.028)" fill="#3f3d56"/>
    </g>
  </g>
</svg>
