<svg xmlns="http://www.w3.org/2000/svg" width="293.585" height="245.126" viewBox="0 0 293.585 245.126">
  <g id="Group_277" data-name="Group 277" transform="translate(-33 -21)">
    <g id="Group_270" data-name="Group 270" transform="translate(33 21.042)">
      <path id="Path_1178" data-name="Path 1178" d="M542.709,562.546H364.5l.08-18.894c.2-47.81,38.364-87.2,86.167-88.018q.775-.013,1.552-.013h0a90.145,90.145,0,0,1,31.509,5.661c33.824,12.6,56.527,44.6,58.038,80.664Z" transform="translate(-304.24 -331.026)" fill="#6c63ff"/>
      <rect id="Rectangle_1610" data-name="Rectangle 1610" width="293.585" height="0.735" transform="translate(0 231.519)" fill="#2f2e41"/>
      <path id="Path_1179" data-name="Path 1179" d="M398.287,376.815l7.852,5.711,7.853,67.1h18.56l-6.425-76.383-25.7-9.994Z" transform="translate(-251.94 -229.805)" fill="#2f2e41"/>
      <path id="Path_1180" data-name="Path 1180" d="M509.008,431.307s-2.142,24.271,6.425,24.985,41.4-7.139,41.4-7.139l15.7,55.681L596.1,492.7s-14.277-62.82-22.844-66.389S536.135,415.6,536.135,415.6l-20.7,3.569Z" transform="translate(-395.499 -305.713)" fill="#2f2e41"/>
      <path id="Path_1181" data-name="Path 1181" d="M645.151,710.906s-4.283,16.419-1.428,17.846a51.668,51.668,0,0,1,5,2.855v-2.855s3.569,3.569,3.569,6.425,19.274,3.569,19.274,0-.714-7.852-4.283-9.994-7.852-14.277-7.852-14.277Z" transform="translate(-480.244 -492.51)" fill="#2f2e41"/>
      <path id="Path_1182" data-name="Path 1182" d="M505.14,503.73l1.427,13.563,5,8.566L523.7,512.3,514.42,497.3Z" transform="translate(-319.531 -314.601)" fill="#2f2e41"/>
      <path id="Path_1183" data-name="Path 1183" d="M717.062,654.169s2.629-8.988,5.24-8.063,12.606,10.2,12.606,10.2l7.139,4.283s14.277,1.428,9.994,5.711-19.988,9.994-27.127,7.139-8.566-3.569-8.566-3.569l-2.142,1.428-8.566-2.142,1.428-14.991S709.209,660.594,717.062,654.169Z" transform="translate(-520.031 -451.477)" fill="#2f2e41"/>
      <circle id="Ellipse_306" data-name="Ellipse 306" cx="16.419" cy="16.419" r="16.419" transform="translate(121.362 3.525)" fill="#9f616a"/>
      <path id="Path_1184" data-name="Path 1184" d="M539.771,189.015s1.428,14.991-2.855,14.991.714,18.56,12.136,18.56,15.7-22.13,15.7-22.13-7.852-2.855-6.425-12.136S539.771,189.015,539.771,189.015Z" transform="translate(-412.341 -159.434)" fill="#9f616a"/>
      <path id="Path_1185" data-name="Path 1185" d="M502.363,225.82l-6,2.571-16.287,6.891a3.307,3.307,0,0,0-2,3.415l6.149,54.655s-6.425,13.563,3.569,14.277l1.428,5,11.422-13.563,42.832-1.428.714-69.244-19.6-7.744S521.927,235.384,502.363,225.82Z" transform="translate(-376.071 -182.392)" fill="#3f3d56"/>
      <path id="Path_1186" data-name="Path 1186" d="M468.309,264.566l-2.638-.754a2.175,2.175,0,0,0-2.745,1.749l-7,43.912a15.249,15.249,0,0,0,1.49,9.523c2.163,4.1,6.655,7.81,15.891,3.393l6.425-46.4Z" transform="translate(-361.939 -209.644)" fill="#3f3d56"/>
      <path id="Path_1187" data-name="Path 1187" d="M635.7,238.809l8.566,1.428,23.557,32.838,2.141,5.711,13.563-4.283s-.714,6.425,6.425,5.711c0,0-8.566,23.557-26.413,16.419s-23.557-28.554-23.557-28.554Z" transform="translate(-475.79 -193.88)" fill="#3f3d56"/>
      <path id="Path_1188" data-name="Path 1188" d="M404.639,139.082l-32.124-12.85-1.427,4.283,14.991,12.849Z" transform="translate(-234.735 -79.876)" fill="#ccc"/>
      <path id="Path_1189" data-name="Path 1189" d="M531.257,137.452c.606-.162.7-.967.716-1.594.109-3.359,2.132-6.806,5.347-7.784a8.99,8.99,0,0,1,3.789-.209,14.353,14.353,0,0,1,5.132,1.712,8.007,8.007,0,0,0,2.609,1.182c.627.095,3.344.885,3.969,1,1.374.244,2.65,1.473,3.968,1.016,1.261-.437,1.54-2.07,1.571-3.4.069-3.04-2.238-7.247-4.271-9.509a10.6,10.6,0,0,0-6.135-2.92,40.847,40.847,0,0,0-8.024-.488c-3.633.065-7.368.345-10.644,1.917s-6.028,4.7-6.185,8.332c-.033.756.045,1.516-.018,2.27-.155,1.84-1.132,3.5-1.591,5.291A9.683,9.683,0,0,0,522.841,142c1.216,1.789,6.078,3.414,6.008,5.576.879-.911-1.194-1.827-.315-2.738a2.165,2.165,0,0,0,.644-2.645l-.933-3.64a3.285,3.285,0,0,1-.081-2.026C529.164,134.053,530.246,137.723,531.257,137.452Z" transform="translate(-403.362 -116.462)" fill="#2f2e41"/>
      <path id="Path_1190" data-name="Path 1190" d="M347.738,117l-13.563,52.826L387,188.384l30.7-25.7,19.274-57.822-31.41,22.843Z" transform="translate(-211.385 -66.358)" fill="#f2f2f2"/>
      <rect id="Rectangle_1611" data-name="Rectangle 1611" width="0.714" height="53.157" transform="matrix(0.255, -0.967, 0.967, 0.255, 138.759, 57.052)" fill="#e6e6e6"/>
      <rect id="Rectangle_1612" data-name="Rectangle 1612" width="0.714" height="53.157" transform="matrix(0.255, -0.967, 0.967, 0.255, 137.332, 60.621)" fill="#e6e6e6"/>
      <rect id="Rectangle_1613" data-name="Rectangle 1613" width="0.714" height="53.157" transform="matrix(0.255, -0.967, 0.967, 0.255, 136.618, 64.191)" fill="#e6e6e6"/>
      <rect id="Rectangle_1614" data-name="Rectangle 1614" width="0.714" height="53.157" transform="matrix(0.255, -0.967, 0.967, 0.255, 135.904, 67.76)" fill="#e6e6e6"/>
      <rect id="Rectangle_1615" data-name="Rectangle 1615" width="0.714" height="53.157" transform="matrix(0.255, -0.967, 0.967, 0.255, 135.19, 71.329)" fill="#e6e6e6"/>
      <rect id="Rectangle_1616" data-name="Rectangle 1616" width="0.714" height="53.157" transform="matrix(0.255, -0.967, 0.967, 0.255, 134.476, 74.898)" fill="#e6e6e6"/>
      <rect id="Rectangle_1617" data-name="Rectangle 1617" width="0.714" height="53.157" transform="matrix(0.255, -0.967, 0.967, 0.255, 133.762, 78.468)" fill="#e6e6e6"/>
      <rect id="Rectangle_1618" data-name="Rectangle 1618" width="0.714" height="53.157" transform="matrix(0.255, -0.967, 0.967, 0.255, 133.048, 82.037)" fill="#e6e6e6"/>
      <rect id="Rectangle_1619" data-name="Rectangle 1619" width="0.714" height="53.157" transform="matrix(0.255, -0.967, 0.967, 0.255, 132.334, 85.607)" fill="#e6e6e6"/>
      <path id="Path_1191" data-name="Path 1191" d="M512.35,350.841s16.055-9.59,23.194-3.165-20.7,15.7-20.7,15.7Z" transform="translate(-397.764 -261.343)" fill="#9f616a"/>
      <path id="Path_1192" data-name="Path 1192" d="M462.967,359.343l20.7-7.852s-3.569,13.563,3.569,14.277L477.245,377.9S457.257,377.9,462.967,359.343Z" transform="translate(-365.877 -265.158)" fill="#3f3d56"/>
      <path id="Path_1193" data-name="Path 1193" d="M401.3,255.6l27.47,9.258-6.5,14.171-27.47-9.258Z" transform="translate(-249.735 -161.71)" fill="#e6e6e6"/>
      <path id="Path_1194" data-name="Path 1194" d="M533.907,146.794l20.7-15.705L548.9,150.363l-21.416,15.7Z" transform="translate(-333.664 -82.948)" fill="#ccc"/>
      <rect id="Rectangle_1620" data-name="Rectangle 1620" width="25.985" height="0.714" transform="matrix(0.797, -0.604, 0.604, 0.797, 190.034, 89.973)" fill="#e6e6e6"/>
      <rect id="Rectangle_1621" data-name="Rectangle 1621" width="25.985" height="0.714" transform="matrix(0.797, -0.604, 0.604, 0.797, 188.607, 97.825)" fill="#e6e6e6"/>
      <path id="Path_1195" data-name="Path 1195" d="M768.871,326.4s17.846-10.708,6.425-14.991-11.422,12.136-11.422,12.136S763.161,327.112,768.871,326.4Z" transform="translate(-556.849 -239.352)" fill="#9f616a"/>
      <path id="Path_1196" data-name="Path 1196" d="M291.176,171.888l-.714,27.841,11.065-3.158-8.923.3Z" transform="translate(-183.734 -108.756)" opacity="0.1"/>
      <path id="Path_1197" data-name="Path 1197" d="M279.749,683.924c2.232,8.249,9.875,13.358,9.875,13.358s4.025-8.265,1.794-16.515-9.875-13.358-9.875-13.358S277.517,675.675,279.749,683.924Z" transform="translate(-250.203 -464.995)" fill="#8985a8"/>
      <path id="Path_1198" data-name="Path 1198" d="M263.488,696.405c6.123,5.961,6.871,15.124,6.871,15.124s-9.18-.5-15.3-6.462-6.871-15.124-6.871-15.124S257.365,690.444,263.488,696.405Z" transform="translate(-230.663 -479.249)" fill="#3f3d56"/>
      <rect id="Rectangle_1622" data-name="Rectangle 1622" width="11.023" height="11.023" transform="translate(230.018 139.292)" fill="#f2f2f2"/>
      <rect id="Rectangle_1623" data-name="Rectangle 1623" width="11.023" height="11.023" transform="translate(185.925 14.362)" fill="#f2f2f2"/>
      <circle id="Ellipse_307" data-name="Ellipse 307" cx="5.512" cy="5.512" r="5.512" transform="translate(52.911 115.041)" fill="#f2f2f2"/>
    </g>
  </g>
</svg>
