<svg xmlns="http://www.w3.org/2000/svg" xmlns:xlink="http://www.w3.org/1999/xlink" width="217.712" height="161.104" viewBox="0 0 217.712 161.104">
  <defs>
    <linearGradient id="linear-gradient" x1="0.5" y1="1" x2="0.5" gradientUnits="objectBoundingBox">
      <stop offset="0" stop-color="gray" stop-opacity="0.251"/>
      <stop offset="0.54" stop-color="gray" stop-opacity="0.122"/>
      <stop offset="1" stop-color="gray" stop-opacity="0.102"/>
    </linearGradient>
  </defs>
  <g id="Group_272" data-name="Group 272" transform="translate(-71 -95.736)">
    <g id="Group_251" data-name="Group 251" transform="translate(71.007 95.756)">
      <g id="Group_250" data-name="Group 250" transform="translate(166.073 94.707)">
        <path id="Path_1050" data-name="Path 1050" d="M896.6,619.094s-15.542-2.018-3.951,23.136c0,0,10.563-4.526,10.984-14.736a8.124,8.124,0,0,0-6.813-8.368Z" transform="translate(-888.357 -599.682)" fill="#65c578"/>
        <path id="Path_1051" data-name="Path 1051" d="M914.227,619.06s3.518,14.026-4.167,23.176" transform="translate(-905.753 -599.686)" fill="none" stroke="#535461" stroke-miterlimit="10" stroke-width="1"/>
        <path id="Path_1052" data-name="Path 1052" d="M909,599.823s5.6-13.792,16.046-18.908a22.553,22.553,0,0,0,10.242-9.942,37.929,37.929,0,0,0,2.566-6.443" transform="translate(-904.904 -555.977)" fill="none" stroke="#535461" stroke-miterlimit="10" stroke-width="2"/>
        <path id="Path_1053" data-name="Path 1053" d="M1060.317,526.721c-1.089,1.369-6.727,3.373-6.727,3.373s.679-5.953,1.768-7.313a3.175,3.175,0,1,1,4.961,3.945Z" transform="translate(-1020.801 -521.428)" fill="#65c578"/>
        <path id="Path_1054" data-name="Path 1054" d="M1047.537,577.529c-1.659.558-7.477-.83-7.477-.83s3.8-4.62,5.459-5.177a3.175,3.175,0,1,1,2.018,6.007Z" transform="translate(-1009.956 -561.391)" fill="#65c578"/>
        <path id="Path_1055" data-name="Path 1055" d="M1000.5,642.13c-1.713-.355-6.037-4.491-6.037-4.491s5.612-2.07,7.326-1.715a3.175,3.175,0,0,1-1.29,6.2Z" transform="translate(-973.405 -613.171)" fill="#65c578"/>
        <path id="Path_1056" data-name="Path 1056" d="M946.779,681.65c-1.748-.062-6.709-3.405-6.709-3.405s5.183-2.992,6.932-2.929a3.175,3.175,0,0,1-.222,6.332Z" transform="translate(-929.808 -644.777)" fill="#65c578"/>
        <path id="Path_1057" data-name="Path 1057" d="M1012.52,563.709c.224,1.736,4.013,6.364,4.013,6.364s2.494-5.437,2.272-7.174a3.175,3.175,0,1,0-6.285.81Z" transform="translate(-987.833 -552.285)" fill="#65c578"/>
        <path id="Path_1058" data-name="Path 1058" d="M952.152,607.515c.732,1.588,5.733,4.872,5.733,4.872s.754-5.935.022-7.523a3.175,3.175,0,1,0-5.755,2.653Z" transform="translate(-939.185 -586.676)" fill="#65c578"/>
        <path id="Path_1059" data-name="Path 1059" d="M901.935,663.419c.453,1.691,4.828,5.771,4.828,5.771s1.746-5.721,1.292-7.412a3.175,3.175,0,1,0-6.12,1.641Z" transform="translate(-899.104 -631.876)" fill="#65c578"/>
        <path id="Path_1060" data-name="Path 1060" d="M1060.317,526.721c-1.089,1.369-6.727,3.373-6.727,3.373s.679-5.953,1.768-7.313a3.175,3.175,0,1,1,4.961,3.945Z" transform="translate(-1020.801 -521.428)" fill="#65c578" opacity="0.25"/>
        <path id="Path_1061" data-name="Path 1061" d="M1047.537,577.529c-1.659.558-7.477-.83-7.477-.83s3.8-4.62,5.459-5.177a3.175,3.175,0,1,1,2.018,6.007Z" transform="translate(-1009.956 -561.391)" fill="#65c578" opacity="0.25"/>
        <path id="Path_1062" data-name="Path 1062" d="M1000.5,642.13c-1.713-.355-6.037-4.491-6.037-4.491s5.612-2.07,7.326-1.715a3.175,3.175,0,0,1-1.29,6.2Z" transform="translate(-973.405 -613.171)" fill="#65c578" opacity="0.25"/>
        <path id="Path_1063" data-name="Path 1063" d="M946.779,681.65c-1.748-.062-6.709-3.405-6.709-3.405s5.183-2.992,6.932-2.929a3.175,3.175,0,0,1-.222,6.332Z" transform="translate(-929.808 -644.777)" fill="#65c578" opacity="0.25"/>
        <path id="Path_1064" data-name="Path 1064" d="M1012.52,563.709c.224,1.736,4.013,6.364,4.013,6.364s2.494-5.437,2.272-7.174a3.175,3.175,0,1,0-6.285.81Z" transform="translate(-987.833 -552.285)" fill="#65c578" opacity="0.25"/>
        <path id="Path_1065" data-name="Path 1065" d="M952.152,607.515c.732,1.588,5.733,4.872,5.733,4.872s.754-5.935.022-7.523a3.175,3.175,0,1,0-5.755,2.653Z" transform="translate(-939.185 -586.676)" fill="#65c578" opacity="0.25"/>
        <path id="Path_1066" data-name="Path 1066" d="M901.935,663.419c.453,1.691,4.828,5.771,4.828,5.771s1.746-5.721,1.292-7.412a3.175,3.175,0,1,0-6.12,1.641Z" transform="translate(-899.104 -631.876)" fill="#65c578" opacity="0.25"/>
        <path id="Path_1067" data-name="Path 1067" d="M946.56,631.435s5.6-13.792,16.046-18.908a22.553,22.553,0,0,0,10.236-9.944,37.931,37.931,0,0,0,2.566-6.443" transform="translate(-935.01 -581.314)" fill="none" stroke="#535461" stroke-miterlimit="10" stroke-width="2"/>
        <path id="Path_1068" data-name="Path 1068" d="M1097.827,559.542c-1.089,1.369-6.727,3.374-6.727,3.374s.679-5.953,1.768-7.313a3.175,3.175,0,0,1,4.961,3.945Z" transform="translate(-1050.867 -547.978)" fill="#65c578"/>
        <path id="Path_1069" data-name="Path 1069" d="M1085.067,609.655c-1.659.558-7.477-.829-7.477-.829s3.8-4.62,5.459-5.177a3.175,3.175,0,0,1,2.018,6.007Z" transform="translate(-1040.038 -587.247)" fill="#65c578"/>
        <path id="Path_1070" data-name="Path 1070" d="M1038.027,673.77c-1.713-.355-6.037-4.491-6.037-4.491s5.612-2.07,7.327-1.715a3.175,3.175,0,0,1-1.29,6.2Z" transform="translate(-1003.487 -638.532)" fill="#65c578"/>
        <path id="Path_1071" data-name="Path 1071" d="M984.3,713.249c-1.748-.062-6.709-3.405-6.709-3.405s5.183-2.989,6.932-2.927a3.175,3.175,0,0,1-.222,6.332Z" transform="translate(-959.882 -670.107)" fill="#65c578"/>
        <path id="Path_1072" data-name="Path 1072" d="M1050.04,595.35c.224,1.736,4.013,6.364,4.013,6.364s2.494-5.437,2.272-7.174a3.175,3.175,0,1,0-6.285.81Z" transform="translate(-1017.908 -577.646)" fill="#65c578"/>
        <path id="Path_1073" data-name="Path 1073" d="M990.371,640.572c.732,1.588,5.733,4.872,5.733,4.872s.754-5.935.022-7.523a3.175,3.175,0,0,0-5.755,2.653Z" transform="translate(-969.956 -613.47)" fill="#65c578"/>
        <path id="Path_1074" data-name="Path 1074" d="M939.9,696.679c.453,1.691,4.828,5.771,4.828,5.771s1.746-5.721,1.292-7.412a3.175,3.175,0,0,0-6.12,1.641Z" transform="translate(-929.625 -658.862)" fill="#65c578"/>
      </g>
      <path id="Path_1075" data-name="Path 1075" d="M63.3,474.07c3.445,14.724,10.738,27.453,22.263,33.622,23.952,12.821,77.97,6.209,118.286-1.389a92.318,92.318,0,0,0,52.494-30Z" transform="translate(-60.954 -388.761)" fill="#82809a" opacity="0.1"/>
      <path id="Path_1076" data-name="Path 1076" d="M297.2,60.1h-22.12a1.912,1.912,0,0,1,0-3.824h3.824a1.912,1.912,0,0,1,0-3.824h-2.731a1.912,1.912,0,1,1,0-3.824h11.545a30.551,30.551,0,0,0-9.005-2.483c-31.481-4.044-42.721-1.369-46.686,1.389a44.087,44.087,0,0,1-16.181,7.092c-19.426,4-55.751,8.825-88.674-1.548-16.364-5.16-28.526,3.556-35.815,18.114H301.042a34.166,34.166,0,0,0-2.6-11.557A1.9,1.9,0,0,1,297.2,60.1Z" transform="translate(-83.446 -44.1)" fill="#82809a" opacity="0.1"/>
      <path id="Path_1077" data-name="Path 1077" d="M51.919,319.2a97.447,97.447,0,0,0,.859,25.69l194.212,7.1a91.284,91.284,0,0,0,13.494-20.578Zm76.813,18.326h-3.824a1.912,1.912,0,0,1,0,3.824h-22.12a1.912,1.912,0,0,1,0-3.824h3.824a1.912,1.912,0,1,1,0-3.824h-2.731a1.912,1.912,0,1,1,0-3.824H126a1.912,1.912,0,1,1,0,3.824h2.731a1.912,1.912,0,0,1,0,3.824Z" transform="translate(-51.45 -264.624)" fill="#82809a" opacity="0.1"/>
      <path id="Path_1078" data-name="Path 1078" d="M271.106,181.38,59.072,186.54A84.716,84.716,0,0,0,54,208.434H267.391a90.582,90.582,0,0,0,3.082-13.956A66.132,66.132,0,0,0,271.106,181.38Zm-174.06,16.9H93.222a1.912,1.912,0,0,1,0,3.824H71.1a1.912,1.912,0,1,1,0-3.824h3.824a1.912,1.912,0,1,1,0-3.824H72.2a1.912,1.912,0,1,1,0-3.824h22.12a1.912,1.912,0,0,1,0,3.824h2.731a1.912,1.912,0,1,1,0,3.824Z" transform="translate(-53.499 -154.154)" fill="#82809a" opacity="0.1"/>
      <path id="Path_1079" data-name="Path 1079" d="M353.71,224.2s-8.843-48.5-25.7-56.37a238.308,238.308,0,0,0-34.132-12.393,18.974,18.974,0,0,0-2.264-2.955c-6-6.269-9.613-6.152-10.2-6.074a30.536,30.536,0,0,1-.6-3.77c-.018-.2-.036-.383-.052-.579l.052-.026q-.054-.563-.1-1.161a29.886,29.886,0,0,0,6.705-4.884c.026.085.048.171.075.258q6.491-5.487,12.714-11.272a8.74,8.74,0,0,0,2.846-3.891,5.708,5.708,0,0,0,.149-1.651c.054-1.191-.228-2.407-.276-3.614a4.138,4.138,0,0,1,.048-.572c.278-1.975,1.651-3.6,2.778-5.253a24.77,24.77,0,0,0,4.213-14.181,24.012,24.012,0,0,0-.992-7.144c-.879-2.941-2.709-6.031-5.755-6.674a25.345,25.345,0,0,0-3.606-.171c-4.979-.318-8.706-4.366-12.677-7.332a33.459,33.459,0,0,0-16.586-6.437,13.289,13.289,0,0,0-5.6.383c-4.007,1.334-6.439,5.451-10.3,7.144-2.854,1.258-6.152,1.054-9.128,2-4.431,1.409-8.192,5.953-8.291,10.623v.605c-.05,2.359.794,4.763.861,7.178q0,.327.01.657a21.6,21.6,0,0,1-1.284,7.674,10.384,10.384,0,0,0-1.064,4.167,2.789,2.789,0,0,0,.659,2.183l.958-.845a28.983,28.983,0,0,0,9.972,27.552q.056.891.107,1.909c.151,2.941.27,6.63.236,10.65l-9.359,8.6-24.059,10.914s-22,4.648-17.265,35.559l2.262,19.193H219.17l-.046.1H248.94l.018-.1H319.9l-.014.1h2.778v-.1Zm-72.12-77.3a20.623,20.623,0,0,1,1.429,3.929,16.1,16.1,0,0,1-1.542-4.143l.03.054Zm-34.1,3.969q0,.568-.02,1.145l-.048.067a9.722,9.722,0,0,1,.067-1.222Z" transform="translate(-167.441 -63.217)" fill="url(#linear-gradient)"/>
      <path id="Path_1080" data-name="Path 1080" d="M477.119,362.387l-3.969,37.9-21.233,6.747s-27.584-5.16-20.44-20.043c5.082-10.587,4.941-29.506,4.437-39.548-.2-4.076-.468-6.689-.468-6.689s36.117-31.552,33.14-3.175a67.156,67.156,0,0,0-.29,13.149C469.636,364.709,477.119,362.387,477.119,362.387Z" transform="translate(-355.122 -269.869)" fill="#fdc2cc"/>
      <path id="Path_1081" data-name="Path 1081" d="M477.119,362.387l-3.969,37.9-21.233,6.747s-27.584-5.16-20.44-20.043c5.082-10.587,4.941-29.506,4.437-39.548-.2-4.076-.468-6.689-.468-6.689s36.117-31.552,33.14-3.175a67.156,67.156,0,0,0-.29,13.149C469.636,364.709,477.119,362.387,477.119,362.387Z" transform="translate(-355.122 -269.869)" opacity="0.03"/>
      <path id="Path_1082" data-name="Path 1082" d="M489.39,334.581a67.161,67.161,0,0,0-.29,13.149,28.788,28.788,0,0,1-32.382-3.284c-.2-4.076-.468-6.69-.468-6.69S492.367,306.2,489.39,334.581Z" transform="translate(-375.926 -267.464)" opacity="0.1"/>
      <circle id="Ellipse_279" data-name="Ellipse 279" cx="28.774" cy="28.774" r="28.774" transform="translate(70.6 25.05)" fill="#fdc2cc"/>
      <circle id="Ellipse_280" data-name="Ellipse 280" cx="28.774" cy="28.774" r="28.774" transform="translate(70.6 25.05)" opacity="0.03"/>
      <path id="Path_1083" data-name="Path 1083" d="M362.065,546.857H212.836L210.653,528c-4.564-30.362,16.669-34.926,16.669-34.926l23.218-10.716,9.228-8.632c-2.977,11.311,19.547,34.827,19.547,34.827h0a5.347,5.347,0,0,0,.411-.427c.607-.663,2.058-2.322,5.455-6.437,1.214-1.474,2.681-3.262,4.447-5.433,8.493-10.438,4.136-22.771,2.834-25.321l-.081-.159c-.05-.091-.087-.165-.117-.216a.324.324,0,0,0-.03-.054.31.31,0,0,1-.022-.04L303.125,479s.419.111,1.191.329A225.556,225.556,0,0,1,337.258,491.5C353.532,499.23,362.065,546.857,362.065,546.857Z" transform="translate(-178.551 -385.876)" fill="#6c63ff"/>
      <path id="Path_1084" data-name="Path 1084" d="M577.589,501.3c-1.786-1.786-13.891-3.969-13.891-3.969.4,4.763-14.288,12.105-14.288,12.105L550.5,546.74h-7.041L542.27,513.2l3.374-4.763h0l.411-.427a65.484,65.484,0,0,0,5.455-6.437c1.214-1.474,2.681-3.262,4.447-5.433,8.493-10.438,4.136-22.771,2.834-25.321l-.081-.159c-.048-.093-.085-.165-.117-.216a.326.326,0,0,0-.03-.054.32.32,0,0,1-.022-.04h0s3.572-.794,9.922,5.953a18.6,18.6,0,0,1,2.183,2.909C575.8,487.5,579.162,502.87,577.589,501.3Z" transform="translate(-444.876 -385.759)" fill="#6c63ff"/>
      <path id="Path_1085" data-name="Path 1085" d="M577.589,501.3c-1.786-1.786-13.891-3.969-13.891-3.969.4,4.763-14.288,12.105-14.288,12.105L550.5,546.74h-7.041L542.27,513.2l3.374-4.763h0l.411-.427a65.484,65.484,0,0,0,5.455-6.437c1.214-1.474,2.681-3.262,4.447-5.433,8.493-10.438,4.136-22.771,2.834-25.321l-.081-.159c-.048-.093-.085-.165-.117-.216a.326.326,0,0,0-.03-.054.32.32,0,0,1-.022-.04h0s3.572-.794,9.922,5.953a18.6,18.6,0,0,1,2.183,2.909C575.8,487.5,579.162,502.87,577.589,501.3Z" transform="translate(-444.876 -385.759)" opacity="0.1"/>
      <path id="Path_1086" data-name="Path 1086" d="M313.25,703.4s9.327,19.051,9.823,30.263" transform="translate(-261.303 -572.583)" opacity="0.1"/>
      <path id="Path_1087" data-name="Path 1087" d="M762.979,714.31,760.3,733.658h2.679Z" transform="translate(-609.429 -572.576)" opacity="0.1"/>
      <path id="Path_1088" data-name="Path 1088" d="M323.75,513.907l14.784-33.636s4.167-7.938,5.16-15.875,6.35-20.44,6.35-20.44,13.3-16.868,19.447-14.486-5.358,11.311-5.358,11.311,16.868,6.549,5.358,26-11.708,15.875-11.708,15.875l-5.656,31.255Z" transform="translate(-269.72 -352.827)" opacity="0.1"/>
      <path id="Path_1089" data-name="Path 1089" d="M321.75,513.89l14.784-33.636s4.167-7.938,5.16-15.875c.631-5.046,3.026-11.938,4.687-16.29a24.976,24.976,0,0,1,4.707-7.739c4.3-4.81,12.105-12.567,16.4-10.9,6.152,2.381-5.358,11.311-5.358,11.311s16.868,6.549,5.358,26-11.708,15.875-11.708,15.875l-5.656,31.255Z" transform="translate(-268.116 -352.81)" fill="#fdc2cc"/>
      <circle id="Ellipse_281" data-name="Ellipse 281" cx="0.595" cy="0.595" r="0.595" transform="translate(107.61 37.055)" fill="#fff" opacity="0.15"/>
      <circle id="Ellipse_282" data-name="Ellipse 282" cx="0.595" cy="0.595" r="0.595" transform="translate(104.832 38.246)" fill="#fff" opacity="0.15"/>
      <path id="Path_1090" data-name="Path 1090" d="M411.1,94.389c2.871-.929,6.058-.728,8.813-1.963,3.725-1.671,6.072-5.715,9.938-7.025a12.761,12.761,0,0,1,5.4-.375,31.963,31.963,0,0,1,16.006,6.324c3.832,2.915,7.428,6.89,12.232,7.2a23.868,23.868,0,0,1,3.479.167c2.945.631,4.709,3.665,5.556,6.549a24.659,24.659,0,0,1-3.108,20.36c-1.087,1.627-2.413,3.221-2.681,5.16-.262,1.9.548,3.872.075,5.733a8.549,8.549,0,0,1-2.746,3.822q-6,5.677-12.27,11.063c-2.171-6.9,1.014-14.326.518-21.539-.2-2.81-1.191-5.878-3.669-7.2-2.32-1.238-5.285-.6-7.632-1.786-2.619-1.32-3.695-4.445-5.675-6.608-3.374-3.691-9.23-4.167-13.947-2.5s-8.573,5.1-12.3,8.44l-6.781,6.082c-1.324-1.492-.319-3.782.4-5.648a22.955,22.955,0,0,0,1.23-8.779c-.058-2.381-.879-4.733-.831-7.051C403.2,100.241,406.827,95.773,411.1,94.389Z" transform="translate(-332.17 -76.827)" opacity="0.1"/>
      <path id="Path_1091" data-name="Path 1091" d="M411.1,91.389c2.871-.929,6.058-.728,8.813-1.963,3.725-1.671,6.072-5.715,9.938-7.025a12.761,12.761,0,0,1,5.4-.375,31.963,31.963,0,0,1,16.006,6.324c3.832,2.915,7.428,6.89,12.232,7.2a23.869,23.869,0,0,1,3.479.167c2.945.631,4.709,3.665,5.556,6.549a24.659,24.659,0,0,1-3.108,20.36c-1.087,1.627-2.413,3.221-2.681,5.16-.262,1.9.548,3.872.075,5.733a8.549,8.549,0,0,1-2.746,3.822q-6,5.677-12.27,11.063c-2.171-6.9,1.014-14.326.518-21.539-.2-2.81-1.191-5.878-3.669-7.2-2.32-1.238-5.285-.6-7.632-1.786-2.619-1.32-3.695-4.445-5.675-6.608-3.374-3.691-9.23-4.167-13.947-2.5s-8.573,5.1-12.3,8.44l-6.781,6.082c-1.324-1.492-.319-3.782.4-5.648a22.955,22.955,0,0,0,1.23-8.779c-.058-2.381-.879-4.733-.831-7.051C403.2,97.241,406.827,92.773,411.1,91.389Z" transform="translate(-332.17 -74.422)" fill="#865a61"/>
    </g>
  </g>
</svg>
