<svg xmlns="http://www.w3.org/2000/svg" width="146.849" height="130.565" viewBox="0 0 146.849 130.565">
  <g id="Group_267" data-name="Group 267" transform="translate(-111 -63.435)">
    <g id="Group_265" data-name="Group 265" transform="translate(-1 14)">
      <g id="Group_246" data-name="Group 246" transform="translate(104.397 49.435)">
        <path id="Path_963" data-name="Path 963" d="M67.454,280.119,80.61,259.43,51.147,240.694,35.931,264.622l24.37,15.5Z" transform="translate(-28.328 -189.76)" fill="#f0f0f0"/>
        <path id="Path_964" data-name="Path 964" d="M350.088,574.56H317.5V568h32.588Zm-32.165-.423h31.742v-5.714H317.923Z" transform="translate(-292.318 -477.747)" fill="#3f3d56"/>
        <circle id="Ellipse_244" data-name="Ellipse 244" cx="2" cy="2" r="2" transform="translate(52 91.565)" fill="#6c63ff"/>
        <circle id="Ellipse_245" data-name="Ellipse 245" cx="2" cy="2" r="2" transform="translate(46 91.565)" fill="#6c63ff"/>
        <circle id="Ellipse_246" data-name="Ellipse 246" cx="2" cy="2" r="2" transform="translate(40 91.565)" fill="#6c63ff"/>
        <circle id="Ellipse_247" data-name="Ellipse 247" cx="2" cy="2" r="2" transform="translate(34 91.565)" fill="#6c63ff"/>
        <circle id="Ellipse_248" data-name="Ellipse 248" cx="2" cy="2" r="2" transform="translate(28 91.565)" fill="#6c63ff"/>
        <path id="Path_965" data-name="Path 965" d="M537.819,165.412V149.33h8.041V141.5H506.5v39.36h33.646v-3.848a5.463,5.463,0,0,1,5.462-5.463h.251v-6.137Z" transform="translate(-441.323 -141.5)" fill="#f0f0f0"/>
        <rect id="Rectangle_1601" data-name="Rectangle 1601" width="11" height="11" transform="translate(99 10.565)" fill="#f0f0f0"/>
        <path id="Path_977" data-name="Path 977" d="M860.039,208.579a2.539,2.539,0,1,1,2.539-2.539A2.539,2.539,0,0,1,860.039,208.579Zm0-4.655a2.116,2.116,0,1,0,2.116,2.116,2.116,2.116,0,0,0-2.116-2.116Z" transform="translate(-718.048 -190.38)" fill="#3f3d56"/>
        <path id="Path_978" data-name="Path 978" d="M585,374h-5.5v-5.5H585Zm-5.079-.423h4.655v-4.655h-4.655Z" transform="translate(-498.876 -320.464)" fill="#3f3d56"/>
        <path id="Path_989" data-name="Path 989" d="M282.913,279.732l2.666,5.866.634-.317-2.758-5.66Z" transform="translate(-223.045 -220.45)" fill="#2f2e41"/>
        <path id="Path_990" data-name="Path 990" d="M522.737,432.306l2,4.4.48-.043-.163-.749-1.5-3.378C523.361,432.493,523.064,432.417,522.737,432.306Z" transform="translate(-454.124 -370.768)" fill="#2f2e41"/>
        <ellipse id="Ellipse_254" data-name="Ellipse 254" cx="0.554" cy="0.951" rx="0.554" ry="0.951" transform="translate(66.336 54.376)" fill="#ffb8b8"/>
        <circle id="Ellipse_256" data-name="Ellipse 256" cx="1.383" cy="1.383" r="1.383" transform="translate(10.67 106.097)" fill="#ff6584"/>
        <rect id="Rectangle_1602" data-name="Rectangle 1602" width="0.423" height="15.746" transform="translate(18.617 114.688)" fill="#3f3d56"/>
        <circle id="Ellipse_257" data-name="Ellipse 257" cx="2.227" cy="2.227" r="2.227" transform="translate(16.602 112.461)" fill="#3f3d56"/>
        <path id="Path_993" data-name="Path 993" d="M261.994,706.567s-.318-6.842-6.839-6.047" transform="translate(-243.166 -582.174)" fill="#3f3d56"/>
      </g>
      <g id="Group_249" data-name="Group 249" transform="translate(-784 816.334)">
        <path id="Path_1007" data-name="Path 1007" d="M860.553,311.5v13.053A13.053,13.053,0,0,1,847.5,311.5Z" transform="translate(179.359 -1019.137)" fill="#6c63ff"/>
        <circle id="Ellipse_262" data-name="Ellipse 262" cx="4" cy="4" r="4" transform="translate(1027 -704.334)" opacity="0.1"/>
        <rect id="Rectangle_1607" data-name="Rectangle 1607" width="27" height="4" transform="translate(1005 -678.334)" fill="#f0f0f0"/>
        <path id="Path_1005" data-name="Path 1005" d="M705.974,360.166h-37.1a4.38,4.38,0,0,1-4.375-4.375V286.875a4.38,4.38,0,0,1,4.375-4.375h37.1a4.38,4.38,0,0,1,4.375,4.375v68.916A4.38,4.38,0,0,1,705.974,360.166Zm-37.1-77.34a4.054,4.054,0,0,0-4.049,4.049v68.916a4.054,4.054,0,0,0,4.049,4.049h37.1a4.053,4.053,0,0,0,4.049-4.049V286.875a4.054,4.054,0,0,0-4.049-4.049Z" transform="translate(332.5 -996.5)" fill="#3f3d56"/>
        <path id="Path_1006" data-name="Path 1006" d="M772.979,292.458a.979.979,0,1,1,.979-.979A.979.979,0,0,1,772.979,292.458Zm0-1.632a.653.653,0,1,0,.653.653A.653.653,0,0,0,772.979,290.826Z" transform="translate(242.54 -1001.563)" fill="#3f3d56"/>
        <rect id="Rectangle_1603" data-name="Rectangle 1603" width="7.179" height="0.326" transform="translate(1017.967 -710.247)" fill="#3f3d56"/>
        <path id="Path_1008" data-name="Path 1008" d="M721.8,379.192H681.5V310.5h40.3Zm-39.975-.326h39.649V310.826H681.826Z" transform="translate(318.274 -1018.3)" fill="#3f3d56"/>
        <rect id="Rectangle_1604" data-name="Rectangle 1604" width="6" height="1" transform="translate(1001 -705.334)" fill="#3f3d56"/>
        <rect id="Rectangle_1605" data-name="Rectangle 1605" width="6" height="4" transform="translate(1005 -684.334)" fill="#3f3d56"/>
        <path id="Path_1009" data-name="Path 1009" d="M743.522,490.742H713.5V486.5h30.022Zm-29.7-.326H743.2v-3.59H713.826Z" transform="translate(291.495 -1165.583)" fill="#3f3d56"/>
        <rect id="Rectangle_1606" data-name="Rectangle 1606" width="19" height="4" transform="translate(1009 -650.334)" fill="#6c63ff"/>
        <rect id="Rectangle_1608" data-name="Rectangle 1608" width="27" height="2" transform="translate(1005 -658.334)" fill="#f0f0f0"/>
        <rect id="Rectangle_1609" data-name="Rectangle 1609" width="6" height="3" transform="translate(1005 -665.334)" fill="#3f3d56"/>
        <path id="Path_1011" data-name="Path 1011" d="M743.522,566.742H713.5V562.5h30.022Zm-29.7-.327H743.2v-3.59H713.826Z" transform="translate(292.148 -1223.145)" fill="#3f3d56"/>
        <path id="Path_1012" data-name="Path 1012" d="M763.059,618.069H742.5V613.5h20.559Zm-20.232-.326h19.906v-3.916H742.826Z" transform="translate(267.879 -1265.824)" fill="#3f3d56"/>
        <g id="Group_248" data-name="Group 248" transform="translate(1030.449 -658.851)">
          <path id="Path_1014" data-name="Path 1014" d="M875.76,570.131a1.632,1.632,0,0,1-2.89,1.039l0,0a1.632,1.632,0,1,1,2.844-1.424h0A1.671,1.671,0,0,1,875.76,570.131Z" transform="translate(-872.17 -568.173)" fill="#6c63ff"/>
          <ellipse id="Ellipse_263" data-name="Ellipse 263" cx="0.5" cy="1" rx="0.5" ry="1" transform="translate(0.551 0.517)" fill="#6c63ff"/>
          <path id="Path_1016" data-name="Path 1016" d="M877.437,573.478a1.632,1.632,0,0,1-2.89,1.039l0,0a1.662,1.662,0,0,1-.046-.385,1.632,1.632,0,0,1,2.89-1.039h0A1.657,1.657,0,0,1,877.437,573.478Z" transform="translate(-874.5 -572.499)" opacity="0.1"/>
        </g>
        <g id="Group_249-2" data-name="Group 249" transform="translate(1030.122 -678.104)">
          <path id="Path_1048" data-name="Path 1048" d="M875.76,494.131a1.632,1.632,0,0,1-2.89,1.039l0,0a1.632,1.632,0,1,1,2.844-1.424h0A1.67,1.67,0,0,1,875.76,494.131Z" transform="translate(-872.496 -492.5)" fill="#6c63ff"/>
          <path id="Path_1013" data-name="Path 1013" d="M877.437,497.478a1.632,1.632,0,0,1-2.89,1.039l0,0a1.664,1.664,0,0,1-.046-.385,1.632,1.632,0,0,1,2.89-1.039h0A1.656,1.656,0,0,1,877.437,497.478Z" transform="translate(-874.336 -496.173)" opacity="0.1"/>
          <circle id="Ellipse_278" data-name="Ellipse 278" cx="0.5" cy="0.5" r="0.5" transform="translate(0.878 2.77)" fill="#6c63ff"/>
        </g>
        <ellipse id="Ellipse_260" data-name="Ellipse 260" cx="3" cy="4.5" rx="3" ry="4.5" transform="translate(1026 -704.334)" fill="#6c63ff"/>
      </g>
    </g>
  </g>
</svg>
