<svg xmlns="http://www.w3.org/2000/svg" width="238.327" height="143.492" viewBox="0 0 238.327 143.492">
  <g id="Group_275" data-name="Group 275" transform="translate(-61 -74.958)">
    <g id="Group_255" data-name="Group 255" transform="translate(61 74.958)">
      <path id="Path_1125" data-name="Path 1125" d="M568.348,258.251a3.624,3.624,0,0,1-3.6,3.643h-158.6a3.624,3.624,0,0,1-3.6-3.642V149.918a3.624,3.624,0,0,1,3.6-3.643h158.6a3.624,3.624,0,0,1,3.6,3.642h0Z" transform="translate(-330.02 -146.275)" fill="#e6e6e6"/>
      <path id="Path_1126" data-name="Path 1126" d="M572.877,262.762a3.522,3.522,0,0,1-3.522,3.522H414.442a3.522,3.522,0,0,1-3.522-3.522V158.027a3.522,3.522,0,0,1,3.522-3.522h154.92a3.522,3.522,0,0,1,3.515,3.522Z" transform="translate(-336.421 -152.561)" fill="#fff"/>
      <path id="c6fe725a-3b03-4a96-90af-cfbd2676500a" d="M343.671,27.48H489.234a2.091,2.091,0,0,1,2.091,2.091v98.1a2.091,2.091,0,0,1-2.091,2.091H343.671a2.091,2.091,0,0,1-2.091-2.091v-98.1a2.091,2.091,0,0,1,2.091-2.091Z" transform="translate(-260.892 -20.989)" fill="#e6e6e6"/>
      <path id="Path_1127" data-name="Path 1127" d="M351.471,37.44h141.72a2.091,2.091,0,0,1,2.091,2.091v92.863a2.091,2.091,0,0,1-2.091,2.091H351.471a2.091,2.091,0,0,1-2.091-2.091V39.531A2.091,2.091,0,0,1,351.471,37.44Z" transform="translate(-266.849 -28.596)" fill="#fff"/>
      <path id="Path_1128" data-name="Path 1128" d="M832.28,353.423a3.985,3.985,0,0,1-1.619-.345,1.966,1.966,0,0,1-.337-.192l-10.3-7.25h0a3.985,3.985,0,0,1-1.691-3.258v-9.887a3.984,3.984,0,0,1,1.69-3.257l10.3-7.25a1.962,1.962,0,0,1,.337-.192,3.985,3.985,0,0,1,5.6,3.641v24a3.985,3.985,0,0,1-3.985,3.985Z" transform="translate(-647.595 -280.069)" fill="#3f3d56"/>
      <path id="Path_1129" data-name="Path 1129" d="M652.588,349.077H623.861c-5.861,0-10.61-3.793-10.616-8.468V321.681c.006-4.675,4.756-8.463,10.616-8.468h28.8c5.819.005,10.534,3.767,10.541,8.408v18.988C663.2,345.284,658.448,349.072,652.588,349.077Z" transform="translate(-490.953 -273.779)" fill="#3f3d56"/>
      <circle id="Ellipse_286" data-name="Ellipse 286" cx="8.543" cy="8.543" r="8.543" transform="translate(204.262 82.83)" fill="#e6e6e6"/>
      <path id="Path_1130" data-name="Path 1130" d="M992.323,519.651l-6.81-3.932a.177.177,0,0,0-.265.153v7.864a.177.177,0,0,0,.265.153l6.81-3.932a.177.177,0,0,0,0-.306l-6.81-3.932a.177.177,0,0,0-.265.153v7.864a.177.177,0,0,0,.265.153l6.81-3.932a.177.177,0,0,0,0-.306Z" transform="translate(-775.081 -428.431)" fill="#fff"/>
      <path id="Path_1131" data-name="Path 1131" d="M413.348,313.251a3.624,3.624,0,0,1-3.6,3.642h-158.6a3.624,3.624,0,0,1-3.6-3.642V204.918a3.624,3.624,0,0,1,3.6-3.643h158.6a3.624,3.624,0,0,1,3.6,3.642h0Z" transform="translate(-211.634 -188.283)" fill="#e6e6e6"/>
      <path id="Path_1132" data-name="Path 1132" d="M417.877,317.762a3.522,3.522,0,0,1-3.522,3.522H259.442a3.522,3.522,0,0,1-3.522-3.522V213.027a3.522,3.522,0,0,1,3.522-3.522h154.92a3.522,3.522,0,0,1,3.515,3.522Z" transform="translate(-218.035 -194.569)" fill="#fff"/>
      <path id="c6fe725a-3b03-4a96-90af-cfbd2676500a-2" data-name="c6fe725a-3b03-4a96-90af-cfbd2676500a" d="M188.671,82.48H334.234a2.091,2.091,0,0,1,2.091,2.091v98.1a2.091,2.091,0,0,1-2.091,2.091H188.671a2.091,2.091,0,0,1-2.091-2.091v-98.1A2.091,2.091,0,0,1,188.671,82.48Z" transform="translate(-142.506 -62.997)" fill="#e6e6e6"/>
      <path id="Path_1133" data-name="Path 1133" d="M196.471,92.44h141.72a2.091,2.091,0,0,1,2.09,2.091v92.863a2.091,2.091,0,0,1-2.091,2.091H196.471a2.091,2.091,0,0,1-2.091-2.091V94.531A2.091,2.091,0,0,1,196.471,92.44Z" transform="translate(-148.463 -70.604)" fill="#fff"/>
      <path id="Path_1134" data-name="Path 1134" d="M677.28,408.423a3.985,3.985,0,0,1-1.619-.345,1.957,1.957,0,0,1-.337-.192l-10.3-7.25h0a3.985,3.985,0,0,1-1.691-3.258v-9.887a3.984,3.984,0,0,1,1.69-3.257l10.3-7.25a1.96,1.96,0,0,1,.337-.192,3.985,3.985,0,0,1,5.6,3.641v24a3.985,3.985,0,0,1-3.985,3.985Z" transform="translate(-529.209 -322.077)" fill="#3f3d56"/>
      <path id="Path_1135" data-name="Path 1135" d="M497.587,404.077H468.861c-5.861,0-10.61-3.793-10.616-8.468V376.681c.006-4.675,4.756-8.463,10.616-8.468h28.8c5.819.005,10.534,3.767,10.541,8.408v18.988C508.2,400.284,503.448,404.072,497.587,404.077Z" transform="translate(-372.567 -315.787)" fill="#3f3d56"/>
      <circle id="Ellipse_287" data-name="Ellipse 287" cx="8.543" cy="8.543" r="8.543" transform="translate(167.648 95.822)" fill="#e6e6e6"/>
      <path id="Path_1136" data-name="Path 1136" d="M837.327,574.651l-6.81-3.932a.177.177,0,0,0-.265.153v7.864a.177.177,0,0,0,.265.153l6.81-3.932a.177.177,0,0,0,0-.306l-6.81-3.932a.177.177,0,0,0-.265.153v7.864a.177.177,0,0,0,.265.153l6.81-3.932a.177.177,0,0,0,0-.306Z" transform="translate(-656.698 -470.438)" fill="#fff"/>
      <path id="Path_1137" data-name="Path 1137" d="M261.348,376.25a3.624,3.624,0,0,1-3.6,3.643H99.145a3.624,3.624,0,0,1-3.6-3.642V267.918a3.624,3.624,0,0,1,3.6-3.643h158.6a3.624,3.624,0,0,1,3.6,3.642h0Z" transform="translate(-95.54 -236.401)" fill="#e6e6e6"/>
      <path id="Path_1138" data-name="Path 1138" d="M265.877,380.762a3.522,3.522,0,0,1-3.522,3.522H107.442a3.522,3.522,0,0,1-3.522-3.522V276.027a3.522,3.522,0,0,1,3.522-3.522h154.92a3.522,3.522,0,0,1,3.515,3.522Z" transform="translate(-101.94 -242.687)" fill="#fff"/>
      <path id="c6fe725a-3b03-4a96-90af-cfbd2676500a-3" data-name="c6fe725a-3b03-4a96-90af-cfbd2676500a" d="M36.671,145.48H182.234a2.091,2.091,0,0,1,2.091,2.091v98.1a2.091,2.091,0,0,1-2.091,2.091H36.671a2.091,2.091,0,0,1-2.091-2.091v-98.1a2.091,2.091,0,0,1,2.091-2.091Z" transform="translate(-26.412 -111.115)" fill="#e6e6e6"/>
      <path id="Path_1139" data-name="Path 1139" d="M44.471,155.44h141.72a2.091,2.091,0,0,1,2.091,2.091v92.863a2.091,2.091,0,0,1-2.091,2.091H44.471a2.091,2.091,0,0,1-2.091-2.091V157.531a2.091,2.091,0,0,1,2.091-2.091Z" transform="translate(-32.369 -118.722)" fill="#fff"/>
      <path id="Path_1140" data-name="Path 1140" d="M525.28,471.423a3.984,3.984,0,0,1-1.619-.345,1.966,1.966,0,0,1-.338-.192l-10.3-7.25h0a3.985,3.985,0,0,1-1.691-3.258v-9.887a3.985,3.985,0,0,1,1.69-3.257l10.3-7.25a1.97,1.97,0,0,1,.338-.192,3.985,3.985,0,0,1,5.6,3.641v24a3.985,3.985,0,0,1-3.985,3.985Z" transform="translate(-413.115 -370.195)" fill="#6c63ff"/>
      <path id="Path_1141" data-name="Path 1141" d="M345.588,467.077H316.861c-5.861,0-10.61-3.793-10.616-8.468V439.681c.006-4.675,4.756-8.463,10.616-8.468h28.8c5.819.005,10.534,3.767,10.541,8.408v18.988C356.2,463.284,351.448,467.072,345.588,467.077Z" transform="translate(-256.472 -363.905)" fill="#6c63ff"/>
      <circle id="Ellipse_288" data-name="Ellipse 288" cx="8.543" cy="8.543" r="8.543" transform="translate(131.743 110.704)" fill="#3f3d56"/>
      <path id="Path_1142" data-name="Path 1142" d="M685.327,637.651l-6.81-3.932a.177.177,0,0,0-.265.153v7.864a.177.177,0,0,0,.265.153l6.81-3.932a.177.177,0,0,0,0-.306l-6.81-3.932a.177.177,0,0,0-.265.153v7.864a.177.177,0,0,0,.265.153l6.81-3.932a.177.177,0,0,0,0-.306Z" transform="translate(-540.603 -518.557)" fill="#fff"/>
    </g>
  </g>
</svg>
