<svg xmlns="http://www.w3.org/2000/svg" width="95.632" height="91" viewBox="0 0 95.632 91">
  <g id="Group_267" data-name="Group 267" transform="translate(-25 -481)">
    <g id="calendar" transform="translate(25 468.6)">
      <path id="Path_940" data-name="Path 940" d="M80.753,119.109a3.062,3.062,0,0,1,3.059-3.059v-24.7a4.627,4.627,0,0,0-4.627-4.627H12.853a4.627,4.627,0,0,0-4.627,4.627v52.462a4.627,4.627,0,0,0,4.627,4.627H79.185a4.627,4.627,0,0,0,4.627-4.627V122.168A3.062,3.062,0,0,1,80.753,119.109Z" transform="translate(-6.69 -60.44)" fill="#eceaec"/>
      <path id="Path_941" data-name="Path 941" d="M78.73,45.432H10.862A4.622,4.622,0,0,0,9.32,45.7L7.667,56.211l75.691-1.524V50.06A4.627,4.627,0,0,0,78.73,45.432Z" transform="translate(-6.235 -26.862)" fill="#7971ff"/>
      <path id="Path_942" data-name="Path 942" d="M4.627,167.025a1.542,1.542,0,0,1-1.542-1.542V111.5H0v53.986a4.627,4.627,0,0,0,4.627,4.627H72.5a4.614,4.614,0,0,0,4.344-3.085H4.627Z" transform="translate(0 -80.587)" fill="#dad8db"/>
      <path id="Path_943" data-name="Path 943" d="M3.085,52.744V46.836A4.648,4.648,0,0,0,0,51.2v7.712H77.123V55.828H6.17a3.085,3.085,0,0,1-3.085-3.085Z" transform="translate(0 -28.004)" fill="#acfcbc"/>
      <path id="Path_944" data-name="Path 944" d="M44.375,21.655A3.085,3.085,0,0,1,41.29,18.57V15.485a3.085,3.085,0,1,1,6.17,0V18.57A3.085,3.085,0,0,1,44.375,21.655Z" transform="translate(-33.578)" fill="#eceaec"/>
      <path id="Path_945" data-name="Path 945" d="M44.375,51.6a3.085,3.085,0,0,1-3.085-3.085V45.432h6.17v3.085A3.085,3.085,0,0,1,44.375,51.6Z" transform="translate(-33.578 -26.862)" fill="#dad8db"/>
      <path id="Path_946" data-name="Path 946" d="M341.666,21.655a3.085,3.085,0,0,1-3.085-3.085V15.485a3.085,3.085,0,1,1,6.17,0V18.57A3.085,3.085,0,0,1,341.666,21.655Z" transform="translate(-275.34)" fill="#eceaec"/>
      <path id="Path_947" data-name="Path 947" d="M341.666,51.6a3.085,3.085,0,0,1-3.085-3.085V45.432h6.17v3.085A3.085,3.085,0,0,1,341.666,51.6Z" transform="translate(-275.34 -26.862)" fill="#dad8db"/>
      <path id="Path_948" data-name="Path 948" d="M404.645,276.633h3.085v6.17h-3.085Z" transform="translate(-329.065 -214.879)" fill="#ffd064"/>
      <circle id="Ellipse_239" data-name="Ellipse 239" cx="6.17" cy="6.17" r="6.17" transform="translate(70.953 91.06)" fill="#7971ff"/>
      <path id="Path_949" data-name="Path 949" d="M392.756,244.6a4.627,4.627,0,1,1,4.627-4.627A4.632,4.632,0,0,1,392.756,244.6Zm0-6.17a1.542,1.542,0,1,0,1.542,1.542A1.544,1.544,0,0,0,392.756,238.428Z" transform="translate(-315.634 -181.301)" fill="#7971ff"/>
      <path id="Path_950" data-name="Path 950" d="M398.107,328.654a3.2,3.2,0,0,0-3.208-2.567,2.92,2.92,0,0,1-2.92-2.92v-9.42a12.343,12.343,0,0,0-18.509-10.689L372,307.774V328.32l1.556,2.708h21.508l3.085-1.856A3.215,3.215,0,0,0,398.107,328.654Z" transform="translate(-302.517 -235.027)" fill="#eceaec"/>
      <path id="Path_951" data-name="Path 951" d="M326.146,330.189V310.246a12.346,12.346,0,0,0-6.17,10.689v9.42a2.9,2.9,0,0,1-2.9,2.92,3.2,3.2,0,0,0-3.231,2.567,3.087,3.087,0,0,0,3.043,3.6h30.849a3.088,3.088,0,0,0,3.085-3.085H332.316A6.17,6.17,0,0,1,326.146,330.189Z" transform="translate(-255.194 -242.214)" fill="#6c63ff"/>
      <path id="Path_952" data-name="Path 952" d="M139.432,174.1a21.5,21.5,0,0,1-3.863,12.329c-3.9,5.6-10.388,8.317-17.731,8.317-11.926,0-20.338-8.72-20.338-20.646,0-7.341,2.407-13.827,8.005-17.729A21.6,21.6,0,0,1,139.432,174.1Z" transform="translate(-79.289 -113.935)" fill="#6c63ff"/>
      <path id="Path_953" data-name="Path 953" d="M117.766,207.124A21.6,21.6,0,0,1,100.035,173.2,21.6,21.6,0,1,0,130.1,203.258a21.5,21.5,0,0,1-12.332,3.867Z" transform="translate(-73.818 -130.766)" fill="#7971ff"/>
      <circle id="Ellipse_240" data-name="Ellipse 240" cx="18.51" cy="18.51" r="18.51" transform="translate(20.04 41.654)" fill="#fff"/>
      <circle id="Ellipse_241" data-name="Ellipse 241" cx="15.425" cy="15.425" r="15.425" transform="translate(23.125 44.739)" fill="#fff"/>
      <path id="Path_954" data-name="Path 954" d="M169.342,213.538l-11.514,3.838-9.033-9.033a1.542,1.542,0,0,0-2.181,2.181l9.707,9.707a1.544,1.544,0,0,0,1.579.373l12.418-4.139a1.543,1.543,0,0,0-.976-2.927Z" transform="translate(-118.862 -158.978)" fill="#acfcbc"/>
      <circle id="Ellipse_242" data-name="Ellipse 242" cx="3.085" cy="3.085" r="3.085" transform="translate(35.464 57.078)" fill="#0c0404"/>
    </g>
  </g>
</svg>
