<svg xmlns="http://www.w3.org/2000/svg" width="153.889" height="153.894" viewBox="0 0 153.889 153.894">
  <g id="Group_270" data-name="Group 270" transform="translate(-103 -162)">
    <g id="Group_269" data-name="Group 269">
      <g id="Group_263" data-name="Group 263" transform="translate(103 162)">
        <path id="Path_1167" data-name="Path 1167" d="M415.889,188.944a76.684,76.684,0,0,1-6.2,30.3l-.255.587a77.072,77.072,0,0,1-83.844,44.9q-.693-.123-1.384-.255a76.258,76.258,0,0,1-13.918-4.1q-1.1-.441-2.176-.913c-.492-.214-.983-.435-1.471-.662a76.952,76.952,0,1,1,109.245-69.855Z" transform="translate(-262 -112)" fill="#f5f5f5"/>
        <path id="Path_1170" data-name="Path 1170" d="M482.433,305.816a30.425,30.425,0,0,0,1.754,15.615,27.727,27.727,0,0,0,5.26-29.675A30.427,30.427,0,0,0,482.433,305.816Z" transform="translate(-431.961 -250.835)" opacity="0.2"/>
        <circle id="Ellipse_305" data-name="Ellipse 305" cx="29.997" cy="29.997" r="29.997" transform="translate(46.789 33.99)" fill="#fdb797"/>
        <path id="Path_1173" data-name="Path 1173" d="M547.833,462.161s3.75,17.811,3.75,19.685,17.811,10.311,17.811,10.311l15.936-2.812,5.624-16.873s-9.374-14.061-9.374-19.685Z" transform="translate(-482.764 -375.208)" fill="#fdb797"/>
        <path id="Path_1174" data-name="Path 1174" d="M506.422,532.264l-.255.587a77.071,77.071,0,0,1-83.844,44.9q-.693-.123-1.384-.255a76.243,76.243,0,0,1-13.918-4.1q-1.1-.44-2.176-.913c-.492-.214-.983-.435-1.471-.662a76.845,76.845,0,0,1-12.577-7.348l-3.556-10.315,2-1.525,4.111-3.139,4.387-3.349,1.141-.872,17.212-13.14,1.27-.97,8.947-6.829,0,0s9.675,15.764,23.737,11.077A19.39,19.39,0,0,0,463.8,517.28Z" transform="translate(-358.73 -425.02)" fill="#6c63ff"/>
        <path id="Path_1175" data-name="Path 1175" d="M461.1,230.641s9.524-20.635,27.778-15.873,28.572,11.9,29.365,19.048-.4,17.857-.4,17.857-1.984-14.683-14.683-11.508-32.54.794-32.54.794l-3.175,28.572s-3.571-5.159-7.54-1.984S448.4,236.99,461.1,230.641Z" transform="translate(-410.326 -190.822)" fill="#333"/>
        <path id="Path_1176" data-name="Path 1176" d="M394.106,698.508q-1.1-.44-2.176-.913c-.492-.214-.983-.435-1.471-.662A77.135,77.135,0,0,1,370.52,683.57a26.973,26.973,0,0,1,3.806-4.3h14.062l2.108,7.089Z" transform="translate(-345.816 -550.133)" fill="#2f2e41"/>
        <path id="Path_1177" data-name="Path 1177" d="M853.758,576.32l12.063,2.131A76.934,76.934,0,0,1,852.9,598.613Z" transform="translate(-718.384 -470.62)" fill="#2f2e41"/>
      </g>
    </g>
  </g>
</svg>
