<svg xmlns="http://www.w3.org/2000/svg" width="353.415" height="256.171" viewBox="0 0 353.415 256.171">
  <g id="Group_2" data-name="Group 2" transform="translate(-11 -74)">
    <g id="Group_1" data-name="Group 1" transform="translate(11 74)">
      <path id="Path_1" data-name="Path 1" d="M495.8,584.643V646.4H341.083c-17.628,0-31.969-13.852-31.969-30.876s14.342-30.876,31.969-30.876Z" transform="translate(-270.583 -392.599)" fill="#f2f2f2"/>
      <path id="Path_2" data-name="Path 2" d="M495.922,644.346a2.376,2.376,0,0,1-2.375,2.375H334.653a32.539,32.539,0,0,1,0-65.078H493.547a2.375,2.375,0,1,1,0,4.75H334.653a27.789,27.789,0,0,0,0,55.577H493.547A2.376,2.376,0,0,1,495.922,644.346Z" transform="translate(-266.908 -391.024)" fill="#6c63ff"/>
      <path id="Path_3" data-name="Path 3" d="M517.846,613.593H351.589a.475.475,0,1,1,0-.95H517.846a.475.475,0,1,1,0,.95Z" transform="translate(-292.632 -407.299)" fill="#ccc"/>
      <path id="Path_4" data-name="Path 4" d="M517.846,637.593H351.589a.475.475,0,1,1,0-.95H517.846a.475.475,0,1,1,0,.95Z" transform="translate(-292.632 -419.898)" fill="#ccc"/>
      <path id="Path_5" data-name="Path 5" d="M517.846,661.593H351.589a.475.475,0,1,1,0-.95H517.846a.475.475,0,1,1,0,.95Z" transform="translate(-292.632 -432.498)" fill="#ccc"/>
      <path id="Path_6" data-name="Path 6" d="M517.846,685.593H351.589a.475.475,0,1,1,0-.95H517.846a.475.475,0,1,1,0,.95Z" transform="translate(-292.632 -445.097)" fill="#ccc"/>
      <path id="Path_7" data-name="Path 7" d="M764.432,493.816,725.687,541.9l-120.472-97.07c-13.726-11.06-16.2-30.844-5.521-44.1s30.54-15.044,44.266-3.984Z" transform="translate(-419.647 -290.148)" fill="#f2f2f2"/>
      <path id="Path_8" data-name="Path 8" d="M725.293,540.837a2.376,2.376,0,0,1-3.34.359L598.225,441.5a32.539,32.539,0,0,1,40.831-50.675l123.728,99.693a2.375,2.375,0,0,1-2.98,3.7L636.076,394.527a27.789,27.789,0,1,0-34.87,43.277L724.933,537.5a2.376,2.376,0,0,1,.36,3.339Z" transform="translate(-415.996 -287.069)" fill="#ccc"/>
      <path id="Path_9" data-name="Path 9" d="M791.736,516.256,662.275,411.943a.475.475,0,1,1,.6-.74L792.332,515.516a.475.475,0,1,1-.6.74Z" transform="translate(-455.893 -301.491)" fill="#ccc"/>
      <path id="Path_10" data-name="Path 10" d="M776.678,534.945,647.217,430.631a.475.475,0,1,1,.6-.74L777.274,534.2a.475.475,0,0,1-.6.74Z" transform="translate(-447.988 -311.302)" fill="#ccc"/>
      <path id="Path_11" data-name="Path 11" d="M761.62,553.633,632.159,449.32a.475.475,0,0,1,.6-.74L762.216,552.893a.475.475,0,0,1-.6.74Z" transform="translate(-440.083 -321.114)" fill="#ccc"/>
      <path id="Path_12" data-name="Path 12" d="M746.562,572.321,617.1,468.008a.475.475,0,1,1,.6-.74l129.46,104.313a.475.475,0,1,1-.6.74Z" transform="translate(-432.178 -330.925)" fill="#ccc"/>
      <path id="Path_13" data-name="Path 13" d="M580.94,718.593H228.475a.475.475,0,1,1,0-.95H580.94a.475.475,0,1,1,0,.95Z" transform="translate(-228 -462.422)" fill="#ccc"/>
      <path id="Path_14" data-name="Path 14" d="M329.225,367.472h-5.43l-2.583-20.946h8.015Z" transform="translate(-168.63 -181.919)" fill="#ffb8b8"/>
      <path id="Path_15" data-name="Path 15" d="M311.194,387.355h10.473v6.594H304.6a6.594,6.594,0,0,1,6.594-6.594Z" transform="translate(-159.909 -203.354)" fill="#2f2e41"/>
      <path id="Path_16" data-name="Path 16" d="M212.43,367.472H207l-2.583-20.946h8.015Z" transform="translate(-107.315 -181.919)" fill="#ffb8b8"/>
      <path id="Path_17" data-name="Path 17" d="M194.4,387.355h10.473v6.594H187.806a6.594,6.594,0,0,1,6.594-6.594Z" transform="translate(-98.594 -203.354)" fill="#2f2e41"/>
      <path id="Path_18" data-name="Path 18" d="M487.471,224.334v-2.375A15.319,15.319,0,0,1,502.79,206.64h0a15.319,15.319,0,0,1,15.319,15.319v2.375a11.044,11.044,0,0,1-11.044,11.044h-8.55a11.044,11.044,0,0,1-11.044-11.044Z" transform="translate(-364.217 -194.155)" fill="#2f2e41"/>
      <circle id="Ellipse_1" data-name="Ellipse 1" cx="11.667" cy="11.667" r="11.667" transform="translate(126.906 18.707)" fill="#ffb8b8"/>
      <path id="Path_19" data-name="Path 19" d="M634.488,376.475" transform="translate(-441.398 -283.315)" fill="#ffb8b8"/>
      <path id="Path_20" data-name="Path 20" d="M384.55,327.369a4.454,4.454,0,0,1,6.783.8l10-1.892,2.632,5.8-14.161,2.473a4.478,4.478,0,0,1-5.255-7.176Z" transform="translate(-309.438 -256.897)" fill="#ffb8b8"/>
      <path id="Path_21" data-name="Path 21" d="M450.729,283.682l.131.2-16.4,10.8-27.674,8.837a1.666,1.666,0,0,0-1.146,1.776l.6,5.2a1.663,1.663,0,0,0,2,1.434l26.045-5.583a9.408,9.408,0,0,0,3.5-1.542L456.215,291.7a4.738,4.738,0,0,0-5.355-7.817Z" transform="translate(-321.252 -234.294)" fill="#ccc"/>
      <path id="Path_22" data-name="Path 22" d="M488.839,447.164a2.146,2.146,0,0,1-1.966-1.283l-24.9-61.515a.712.712,0,0,0-1.334.075l-20.311,59.887a2.138,2.138,0,0,1-2.794,1.373l-6.811-2.554a2.132,2.132,0,0,1-1.376-1.76c-3.064-26.693,23.656-94.068,23.926-94.746l.075-.188,24.358,5.388.051.055c9.718,10.6,17.706,77.467,19.208,90.764a2.127,2.127,0,0,1-1.411,2.255l-6.012,2.126a2.118,2.118,0,0,1-.707.122Z" transform="translate(-333.577 -267.554)" fill="#2f2e41"/>
      <path id="Path_23" data-name="Path 23" d="M493.934,315.891c-5.9,0-12.481-1.177-14.506-6.033l-.047-.112.063-.1c1.6-2.623,3.711-7.1,2.576-7.937-2.237-1.654-3.322-4.375-3.226-8.087a19.485,19.485,0,0,1,13.664-17.8h0a60.642,60.642,0,0,1,6.775-1.744,11.534,11.534,0,0,1,9.563,2.362,11.65,11.65,0,0,1,4.321,8.964c.083,8.613-1.242,20.608-8.034,28.843a2.113,2.113,0,0,1-1.251.727,58.055,58.055,0,0,1-9.9.926Z" transform="translate(-359.659 -229.434)" fill="#ccc"/>
      <path id="Path_24" data-name="Path 24" d="M505.863,350.829a4.539,4.539,0,0,1,5.548-3.166,4.469,4.469,0,0,1,.688.255l7.594-6.911,5.281,3.558-10.86,9.61a4.531,4.531,0,0,1-5.136,2.179,4.462,4.462,0,0,1-3.114-5.525Z" transform="translate(-373.783 -264.695)" fill="#ffb8b8"/>
      <path id="Path_25" data-name="Path 25" d="M526.961,320.64a2.132,2.132,0,0,1-1.352-.482l-2.995-2.447a2.137,2.137,0,0,1,.052-3.351l12.56-9.633a.714.714,0,0,0,.135-1l-7.753-10.249a6.311,6.311,0,0,1,.422-8.13h0a6.293,6.293,0,0,1,8.5-.68l.049.052,8.1,11.592A7.217,7.217,0,0,1,544.5,307.8l-16.267,12.416a2.141,2.141,0,0,1-1.272.419Z" transform="translate(-382.255 -234.418)" fill="#ccc"/>
      <path id="Path_26" data-name="Path 26" d="M497.965,226.005v-5.789L508.3,215.7l9.854,4.513v5.789a.95.95,0,0,1-.95.95H498.915a.95.95,0,0,1-.95-.95Z" transform="translate(-369.726 -198.913)" fill="#2f2e41"/>
      <path id="Path_27" data-name="Path 27" d="M518.3,193.61c-1.52-4.863,1.672-10.437,6.389-12.362s10.362-.579,14.343,2.6,6.451,7.944,7.759,12.869,1.557,10.059,1.8,15.149c5.8,1.065,9.739,7.94,7.731,13.48s-9.44,8.293-14.573,5.4-6.619-10.681-2.915-15.264a12.528,12.528,0,0,0-14.577-19.433C521.4,197.242,517.815,194.138,518.3,193.61Z" transform="translate(-380.201 -180.357)" fill="#2f2e41"/>
      <path id="Path_28" data-name="Path 28" d="M357.99,252.935a49.616,49.616,0,0,1-20.116-4.406,2.125,2.125,0,0,1-1.26-1.949v-17.3a2.14,2.14,0,0,1,2.138-2.138h38.477a2.14,2.14,0,0,1,2.138,2.138v17.3a2.125,2.125,0,0,1-1.26,1.949h0a49.615,49.615,0,0,1-20.116,4.406Z" transform="translate(-285.02 -204.919)" fill="#6c63ff"/>
      <path id="Path_29" data-name="Path 29" d="M345.52,220.194a2.14,2.14,0,0,1-.831-.167l-30.511-12.873a2.137,2.137,0,0,1,.073-3.968l30.512-11.575a2.13,2.13,0,0,1,1.525,0l30.1,11.575a2.138,2.138,0,0,1,.073,3.961l-30.1,12.873A2.141,2.141,0,0,1,345.52,220.194Z" transform="translate(-272.556 -186.191)" fill="#6c63ff"/>
      <circle id="Ellipse_2" data-name="Ellipse 2" cx="2.85" cy="2.85" r="2.85" transform="translate(52.306 39.088)" fill="#3f3d56"/>
      <path id="Path_30" data-name="Path 30" d="M377.048,219.752l-30.1,12.873a1.9,1.9,0,0,1-1.486,0l-30.511-12.872a1.864,1.864,0,0,1-.909-.8,1.9,1.9,0,0,0,.908,2.7l30.511,12.872a1.9,1.9,0,0,0,1.486,0l30.1-12.873a1.9,1.9,0,0,0,.9-2.695A1.865,1.865,0,0,1,377.048,219.752Z" transform="translate(-273.036 -200.621)" opacity="0.2"/>
      <path id="Path_31" data-name="Path 31" d="M344.093,243.17a.475.475,0,0,0,.475-.475V226.8l15.667-5.707a.475.475,0,0,0,.014-.95l-15.667,5.707a.932.932,0,0,0-.681.273.943.943,0,0,0-.283.677V242.7A.475.475,0,0,0,344.093,243.17Z" transform="translate(-288.697 -201.244)" fill="#3f3d56"/>
    </g>
  </g>
</svg>
