<svg xmlns="http://www.w3.org/2000/svg" width="18" height="18" viewBox="0 0 18 18">
  <path id="Path_259" data-name="Path 259" d="M16.2,0a2.189,2.189,0,0,1,1.26.338.905.905,0,0,1,.54.787v15.75a.905.905,0,0,1-.54.788A2.19,2.19,0,0,1,16.2,18H1.8a2.19,2.19,0,0,1-1.26-.337A.905.905,0,0,1,0,16.875V1.125A.905.905,0,0,1,.54.338,2.19,2.19,0,0,1,1.8,0ZM14.94,13.5V3.038H3.06V13.5Zm-7.2,3.038A2.19,2.19,0,0,0,9,16.875a2.19,2.19,0,0,0,1.26-.337.844.844,0,0,0,0-1.575A2.189,2.189,0,0,0,9,14.625a2.189,2.189,0,0,0-1.26.338.844.844,0,0,0,0,1.575Z" fill="#6c63ff"/>
</svg>
