<svg id="_x31_px" height="512" viewBox="0 0 24 24" width="512" xmlns="http://www.w3.org/2000/svg"><path d="m20 24h-3c-.551 0-1-.449-1-1v-5h-2.5c-.202 0-.385-.122-.462-.309-.078-.187-.035-.402.108-.545l5-5c.195-.195.512-.195.707 0l5 5c.143.143.186.358.108.545-.076.187-.259.309-.461.309h-2.5v5c0 .551-.449 1-1 1zm-5.293-7h1.793c.276 0 .5.224.5.5v5.5h3v-5.5c0-.276.224-.5.5-.5h1.793l-3.793-3.793z"/><path d="m10.75 16.8c-.112 0-.226-.038-.319-.116-1.792-1.491-3.669-2.105-5.744-1.867-.432.05-.867-.085-1.19-.373-.316-.28-.497-.682-.497-1.104v-11.75c0-.748.559-1.391 1.3-1.495 2.389-.354 4.642.311 6.7 1.982 2.058-1.67 4.308-2.337 6.703-1.981.738.103 1.297.746 1.297 1.494v7.91c0 .276-.224.5-.5.5s-.5-.224-.5-.5v-7.91c0-.252-.189-.47-.44-.505-2.251-.335-4.29.328-6.231 2.022-.188.164-.469.164-.657 0-1.942-1.694-3.978-2.355-6.229-2.023-.254.036-.443.253-.443.506v11.75c0 .139.057.266.16.357.11.098.258.143.412.126 2.325-.263 4.512.44 6.498 2.092.212.176.241.492.064.704-.098.119-.241.181-.384.181z"/><path d="m21.5 12c-.276 0-.5-.224-.5-.5v-8c0-.276-.224-.5-.5-.5h-2c-.276 0-.5-.224-.5-.5s.224-.5.5-.5h2c.827 0 1.5.673 1.5 1.5v8c0 .276-.224.5-.5.5z"/><path d="m10.67 17h-9.17c-.827 0-1.5-.673-1.5-1.5v-12c0-.812.669-1.485 1.491-1.5h2.009c.276 0 .5.224.5.5s-.224.5-.5.5h-2c-.271.005-.5.229-.5.5v12c0 .276.224.5.5.5h9.17c.276 0 .5.224.5.5s-.224.5-.5.5z"/><path d="m11 17c-.276 0-.5-.224-.5-.5v-14c0-.276.224-.5.5-.5s.5.224.5.5v14c0 .276-.224.5-.5.5z"/></svg>