<svg xmlns="http://www.w3.org/2000/svg" width="98" height="98" viewBox="0 0 98 98">
  <g id="Group_426" data-name="Group 426" transform="translate(-21 -228)">
    <g id="Buttons_Play" data-name="Buttons/Play" transform="translate(-143 -56)">
      <path id="Path_126" data-name="Path 126" d="M20.417,12.564,0,0V25.128Z" transform="translate(206.875 320.75)" fill="#6c63ff"/>
      <g id="Path_1124" data-name="Path 1124" transform="translate(164 284)" fill="none">
        <path d="M49,0A49,49,0,1,1,0,49,49,49,0,0,1,49,0Z" stroke="none"/>
        <path d="M 49.00000762939453 1.999992370605469 C 42.6541633605957 1.999992370605469 36.49920654296875 3.242393493652344 30.70609283447266 5.692665100097656 C 25.10960388183594 8.059776306152344 20.08302307128906 11.44893646240234 15.76597595214844 15.76597595214844 C 11.44893646240234 20.08302307128906 8.059776306152344 25.10960388183594 5.692665100097656 30.70609283447266 C 3.242393493652344 36.49920654296875 1.999992370605469 42.6541633605957 1.999992370605469 49.00000762939453 C 1.999992370605469 55.34585189819336 3.242393493652344 61.50080871582031 5.692665100097656 67.29392242431641 C 8.059776306152344 72.89041137695313 11.44893646240234 77.91697692871094 15.76597595214844 82.23402404785156 C 20.08302307128906 86.55106353759766 25.10960388183594 89.94022369384766 30.70609283447266 92.30733489990234 C 36.49920654296875 94.75760650634766 42.6541633605957 96.00000762939453 49.00000762939453 96.00000762939453 C 55.34585189819336 96.00000762939453 61.50080871582031 94.75760650634766 67.29392242431641 92.30733489990234 C 72.89041137695313 89.94022369384766 77.91697692871094 86.55106353759766 82.23402404785156 82.23402404785156 C 86.55106353759766 77.91697692871094 89.94022369384766 72.89041137695313 92.30733489990234 67.29392242431641 C 94.75760650634766 61.50080871582031 96.00000762939453 55.34585189819336 96.00000762939453 49.00000762939453 C 96.00000762939453 42.6541633605957 94.75760650634766 36.49920654296875 92.30733489990234 30.70609283447266 C 89.94022369384766 25.10960388183594 86.55106353759766 20.08302307128906 82.23402404785156 15.76597595214844 C 77.91697692871094 11.44893646240234 72.89041137695313 8.059776306152344 67.29392242431641 5.692665100097656 C 61.50080871582031 3.242393493652344 55.34585189819336 1.999992370605469 49.00000762939453 1.999992370605469 M 49.00000762939453 -7.62939453125e-06 C 76.06196594238281 -7.62939453125e-06 98.00000762939453 21.93804931640625 98.00000762939453 49.00000762939453 C 98.00000762939453 76.06196594238281 76.06196594238281 98.00000762939453 49.00000762939453 98.00000762939453 C 21.93804931640625 98.00000762939453 -7.62939453125e-06 76.06196594238281 -7.62939453125e-06 49.00000762939453 C -7.62939453125e-06 21.93804931640625 21.93804931640625 -7.62939453125e-06 49.00000762939453 -7.62939453125e-06 Z" stroke="none" fill="#6c63ff"/>
      </g>
    </g>
  </g>
</svg>
