<svg xmlns="http://www.w3.org/2000/svg" width="18" height="18" viewBox="0 0 18 18">
  <g id="Group_287" data-name="Group 287" transform="translate(-31 -336)">
    <g id="Group_286" data-name="Group 286" transform="translate(0 3)">
      <g id="Buttons_Play" data-name="Buttons/Play" transform="translate(31 333)">
        <path id="Path_126" data-name="Path 126" d="M7,4.308,0,0V8.615Z" transform="translate(6.421 4.692)" fill="#fff"/>
        <g id="Path_1124" data-name="Path 1124" fill="none">
          <path d="M9,0A9,9,0,1,1,0,9,9,9,0,0,1,9,0Z" stroke="none"/>
          <path d="M 9 2 C 5.140190124511719 2 2 5.140190124511719 2 9 C 2 12.85980987548828 5.140190124511719 16 9 16 C 12.85980987548828 16 16 12.85980987548828 16 9 C 16 5.140190124511719 12.85980987548828 2 9 2 M 9 0 C 13.97056007385254 0 18 4.029439926147461 18 9 C 18 13.97056007385254 13.97056007385254 18 9 18 C 4.029439926147461 18 0 13.97056007385254 0 9 C 0 4.029439926147461 4.029439926147461 0 9 0 Z" stroke="none" fill="#fff"/>
        </g>
      </g>
    </g>
  </g>
</svg>
